<svg width="94" height="30" viewBox="0 0 94 30" fill="none" xmlns="http://www.w3.org/2000/svg">
<g id="asko_SC_logo_mid.svg-17_20_56_604" clip-path="url(#clip0_137_8230)">
<g id="Clip path group">
<mask id="mask0_137_8230" style="mask-type:luminance" maskUnits="userSpaceOnUse" x="0" y="0" width="94" height="30">
<g id="a">
<path id="Vector" d="M0.125 0H93.875V30H0.125V0Z" fill="white"/>
</g>
</mask>
<g mask="url(#mask0_137_8230)">
<g id="Group">
<path id="Vector_2" fill-rule="evenodd" clip-rule="evenodd" d="M18.5187 5.9675V19.6737C18.5187 19.6737 18.5187 24.2812 13.9206 24.2812V17.4237H4.72375V19.6875H11.6144C11.6144 19.6875 11.6144 24.2581 7.00187 24.2581H0.125V17.3863C0.125 12.8156 4.72375 12.8156 4.72375 12.8156H11.6144C13.9112 12.8156 13.9062 10.5562 13.9062 10.5562H0.125C0.125 10.5562 0.125 5.9675 4.72375 5.9675H18.5187ZM29.7125 17.03H34.4L32.1312 10.4675H32.0794L29.7356 17.03H29.7125ZM30.0919 6.05187H34.1513L40.9062 23.9487H36.7762L35.4169 19.9644H28.6812L27.275 23.9487H23.2581L30.0919 6.05187ZM45.425 18.0094C45.425 20.3906 47.3 21.3194 49.4094 21.3194C50.8156 21.3194 52.9156 20.9156 52.9156 19.0875C52.9156 17.1563 50.2156 16.8331 47.5669 16.13C44.9187 15.4269 42.2 14.4 42.2 11.0394C42.2 7.37813 45.6781 5.625 48.9312 5.625C52.6812 5.625 56.145 7.25625 56.145 11.3906H52.3112C52.1838 9.23438 50.6469 8.68125 48.7531 8.68125C47.4919 8.68125 46.0294 9.20625 46.0294 10.7106C46.0294 12.0894 46.8875 12.2669 51.4019 13.42C52.7144 13.7481 56.75 14.5731 56.75 18.6325C56.75 21.9137 54.1531 24.375 49.25 24.375C45.2656 24.375 41.5344 22.4206 41.5813 18.0094H45.425ZM59.7969 6.05187H63.7531V13.4719L70.7887 6.05187H75.7344L68.6981 13.1206L76.4137 23.9487H71.4456L66.0263 15.905L63.7531 18.1831V23.9487H59.7969V6.05187ZM85.025 21.0656C88.5831 21.0656 89.9181 18.0563 89.9181 15.075C89.9181 11.9438 88.5831 8.93438 85.025 8.93438C81.4675 8.93438 80.1312 11.9438 80.1312 15.075C80.1312 18.0563 81.4675 21.0656 85.025 21.0656ZM85.025 5.625C90.5938 5.625 93.875 9.75938 93.875 15.075C93.875 20.2313 90.5938 24.375 85.025 24.375C79.4562 24.375 76.175 20.2406 76.175 15.075C76.175 9.75938 79.4562 5.625 85.025 5.625Z" fill="#001B2B"/>
</g>
</g>
</g>
</g>
<defs>
<clipPath id="clip0_137_8230">
<rect width="93.75" height="30" fill="white" transform="translate(0.125)"/>
</clipPath>
</defs>
</svg>
