<svg width="70" height="70" viewBox="0 0 70 70" fill="none" xmlns="http://www.w3.org/2000/svg">
<g id="fi_5763314" clip-path="url(#clip0_137_8513)">
<path id="Vector" d="M54.6875 22.4219H49.7656V14.2188C49.7642 12.9138 49.2452 11.6628 48.3225 10.74C47.3997 9.81731 46.1487 9.2983 44.8438 9.29688H34.4264C33.9913 9.29688 33.574 9.46973 33.2663 9.7774C32.9587 10.0851 32.7858 10.5024 32.7858 10.9375C32.7858 11.3726 32.9587 11.7899 33.2663 12.0976C33.574 12.4053 33.9913 12.5781 34.4264 12.5781H44.8438C45.2787 12.5786 45.6957 12.7516 46.0033 13.0592C46.3109 13.3668 46.4839 13.7838 46.4844 14.2188V46.4844H3.82812V30.0301C3.82812 29.5949 3.65527 29.1776 3.3476 28.87C3.03992 28.5623 2.62262 28.3894 2.1875 28.3894C1.75238 28.3894 1.33508 28.5623 1.0274 28.87C0.719726 29.1776 0.546875 29.5949 0.546875 30.0301V57.9688C0.548296 59.2737 1.06731 60.5247 1.99003 61.4475C2.91275 62.3702 4.16382 62.8892 5.46875 62.8906H9.46223C9.84048 64.7432 10.8471 66.4083 12.3117 67.6041C13.7764 68.8 15.6092 69.4531 17.5 69.4531C19.3908 69.4531 21.2236 68.8 22.6883 67.6041C24.1529 66.4083 25.1595 64.7432 25.5378 62.8906H46.6497C47.028 64.7432 48.0346 66.4083 49.4992 67.6041C50.9639 68.8 52.7967 69.4531 54.6875 69.4531C56.5783 69.4531 58.4111 68.8 59.8758 67.6041C61.3404 66.4083 62.347 64.7432 62.7253 62.8906H64.5312C65.8362 62.8892 67.0872 62.3702 68.01 61.4475C68.9327 60.5247 69.4517 59.2737 69.4531 57.9688V37.1875C69.4487 33.2728 67.8916 29.5197 65.1235 26.7515C62.3553 23.9834 58.6022 22.4263 54.6875 22.4219ZM3.82812 57.9688V49.7656H46.4844V59.6094H25.5378C25.1595 57.7568 24.1529 56.0917 22.6883 54.8959C21.2236 53.7 19.3908 53.0469 17.5 53.0469C15.6092 53.0469 13.7764 53.7 12.3117 54.8959C10.8471 56.0917 9.84048 57.7568 9.46223 59.6094H5.46875C5.03377 59.6089 4.61675 59.4359 4.30918 59.1283C4.0016 58.8207 3.8286 58.4037 3.82812 57.9688ZM17.5 66.1719C16.5265 66.1719 15.575 65.8832 14.7656 65.3424C13.9562 64.8016 13.3253 64.0329 12.9528 63.1335C12.5803 62.2342 12.4828 61.2445 12.6727 60.2898C12.8626 59.335 13.3314 58.458 14.0197 57.7697C14.708 57.0814 15.585 56.6126 16.5398 56.4227C17.4945 56.2328 18.4842 56.3303 19.3835 56.7028C20.2829 57.0753 21.0516 57.7062 21.5924 58.5156C22.1332 59.325 22.4219 60.2765 22.4219 61.25C22.4205 62.5549 21.9014 63.806 20.9787 64.7287C20.056 65.6514 18.8049 66.1705 17.5 66.1719ZM54.6875 66.1719C53.714 66.1719 52.7625 65.8832 51.9531 65.3424C51.1437 64.8016 50.5128 64.0329 50.1403 63.1335C49.7678 62.2342 49.6703 61.2445 49.8602 60.2898C50.0501 59.335 50.5189 58.458 51.2072 57.7697C51.8955 57.0814 52.7725 56.6126 53.7273 56.4227C54.682 56.2328 55.6717 56.3303 56.571 56.7028C57.4704 57.0753 58.2391 57.7062 58.7799 58.5156C59.3207 59.325 59.6094 60.2765 59.6094 61.25C59.608 62.5549 59.0889 63.806 58.1662 64.7287C57.2435 65.6514 55.9924 66.1705 54.6875 66.1719ZM64.5312 59.6094H62.7253C62.4508 58.2526 61.8367 56.9876 60.9404 55.9326C60.0442 54.8777 58.895 54.0673 57.6004 53.5772C56.3058 53.087 54.9081 52.9332 53.5379 53.1301C52.1677 53.327 50.8698 53.8682 49.7656 54.703V43.2031H66.1719V57.9688C66.1714 58.4037 65.9984 58.8207 65.6908 59.1283C65.3832 59.4359 64.9662 59.6089 64.5312 59.6094ZM66.1719 39.9219H49.7656V25.7031H54.6875C57.7323 25.7066 60.6513 26.9177 62.8043 29.0707C64.9573 31.2237 66.1684 34.1427 66.1719 37.1875V39.9219Z" fill="#001B2B"/>
<path id="Vector_2" d="M56.875 46.4844H54.6875C54.2524 46.4844 53.8351 46.6572 53.5274 46.9649C53.2197 47.2726 53.0469 47.6899 53.0469 48.125C53.0469 48.5601 53.2197 48.9774 53.5274 49.2851C53.8351 49.5928 54.2524 49.7656 54.6875 49.7656H56.875C57.3101 49.7656 57.7274 49.5928 58.0351 49.2851C58.3428 48.9774 58.5156 48.5601 58.5156 48.125C58.5156 47.6899 58.3428 47.2726 58.0351 46.9649C57.7274 46.6572 57.3101 46.4844 56.875 46.4844Z" fill="#001B2B"/>
<path id="Vector_3" d="M38.2812 56.3281H41.5625C41.9976 56.3281 42.4149 56.1553 42.7226 55.8476C43.0303 55.5399 43.2031 55.1226 43.2031 54.6875C43.2031 54.2524 43.0303 53.8351 42.7226 53.5274C42.4149 53.2197 41.9976 53.0469 41.5625 53.0469H38.2812C37.8461 53.0469 37.4288 53.2197 37.1212 53.5274C36.8135 53.8351 36.6406 54.2524 36.6406 54.6875C36.6406 55.1226 36.8135 55.5399 37.1212 55.8476C37.4288 56.1553 37.8461 56.3281 38.2812 56.3281Z" fill="#001B2B"/>
<path id="Vector_4" d="M28.4375 36.6406H40.4688C40.9039 36.6406 41.3212 36.4678 41.6288 36.1601C41.9365 35.8524 42.1094 35.4351 42.1094 35C42.1094 34.5649 41.9365 34.1476 41.6288 33.8399C41.3212 33.5322 40.9039 33.3594 40.4688 33.3594H28.4375C28.0024 33.3594 27.5851 33.5322 27.2774 33.8399C26.9697 34.1476 26.7969 34.5649 26.7969 35C26.7969 35.4351 26.9697 35.8524 27.2774 36.1601C27.5851 36.4678 28.0024 36.6406 28.4375 36.6406Z" fill="#001B2B"/>
<path id="Vector_5" d="M28.4375 43.2031H40.4688C40.9039 43.2031 41.3212 43.0303 41.6288 42.7226C41.9365 42.4149 42.1094 41.9976 42.1094 41.5625C42.1094 41.1274 41.9365 40.7101 41.6288 40.4024C41.3212 40.0947 40.9039 39.9219 40.4688 39.9219H28.4375C28.0024 39.9219 27.5851 40.0947 27.2774 40.4024C26.9697 40.7101 26.7969 41.1274 26.7969 41.5625C26.7969 41.9976 26.9697 42.4149 27.2774 42.7226C27.5851 43.0303 28.0024 43.2031 28.4375 43.2031Z" fill="#001B2B"/>
<path id="Vector_6" d="M15.3125 19.4141C17.5777 19.4141 19.4141 17.5777 19.4141 15.3125C19.4141 13.0473 17.5777 11.2109 15.3125 11.2109C13.0473 11.2109 11.2109 13.0473 11.2109 15.3125C11.2109 17.5777 13.0473 19.4141 15.3125 19.4141Z" fill="#3CB2F2"/>
<path id="Vector_7" d="M25.4778 26.0284C28.2889 23.2291 29.9013 19.4463 29.974 15.4797C30.0283 13.5164 29.6815 11.5626 28.955 9.73786C28.2285 7.9131 27.1374 6.25568 25.7485 4.86694C22.9774 2.10534 19.2247 0.554687 15.3125 0.554688C11.4003 0.554688 7.64758 2.10534 4.87649 4.86694C3.48759 6.25564 2.39655 7.91306 1.67011 9.73784C0.943666 11.5626 0.597082 13.5164 0.651551 15.4797C0.724223 19.4464 2.33659 23.2294 5.14778 26.0289L12.6059 33.4865C14.0258 34.9075 16.4053 35.1009 18.7962 32.71L25.4778 26.0284ZM15.3125 22.148C13.9605 22.148 12.6388 21.747 11.5147 20.9959C10.3905 20.2448 9.51432 19.1771 8.99692 17.928C8.47952 16.6789 8.34415 15.3044 8.60792 13.9784C8.87168 12.6524 9.52274 11.4343 10.4788 10.4783C11.4348 9.52227 12.6528 8.87121 13.9789 8.60744C15.3049 8.34368 16.6794 8.47905 17.9285 8.99645C19.1776 9.51384 20.2452 10.39 20.9964 11.5142C21.7475 12.6384 22.1484 13.96 22.1484 15.312C22.1464 17.1244 21.4255 18.862 20.144 20.1435C18.8625 21.4251 17.1249 22.1459 15.3125 22.148Z" fill="#3CB2F2"/>
</g>
<defs>
<clipPath id="clip0_137_8513">
<rect width="70" height="70" fill="white"/>
</clipPath>
</defs>
</svg>
