<svg width="59" height="16" viewBox="0 0 59 16" fill="none" xmlns="http://www.w3.org/2000/svg">
<g clip-path="url(#clip0_4006_8284)">
<path d="M22.4714 14.1732C20.9838 14.1732 19.8101 13.6359 18.9501 12.5612C18.0902 11.475 17.6602 9.9496 17.6602 7.98515C17.6602 6.06692 18.0843 4.55312 18.9327 3.44379C19.7927 2.33446 21.0245 1.77979 22.6283 1.77979C23.1861 1.77979 23.6858 1.86068 24.1274 2.02245C24.569 2.17268 24.9293 2.34601 25.2082 2.54246V4.22379C24.8944 4.02734 24.5225 3.84246 24.0925 3.66913C23.6625 3.49579 23.2093 3.40913 22.7328 3.40913C21.7102 3.40913 20.9664 3.78468 20.5016 4.5358C20.0367 5.28691 19.8043 6.43669 19.8043 7.98515C19.8043 9.48737 20.0367 10.6256 20.5016 11.3998C20.9664 12.1625 21.6753 12.5439 22.6283 12.5439C23.1861 12.5439 23.6684 12.463 24.0751 12.3012C24.4818 12.1278 24.8595 11.9141 25.2082 11.6598V13.3412C24.9409 13.5261 24.5806 13.711 24.1274 13.8959C23.6742 14.0807 23.1222 14.1732 22.4714 14.1732Z" fill="#001B2B"/>
<path d="M26.5195 5.28125H33.3528V14H31.2784V6.91059H28.5939V14H26.5195V5.28125Z" fill="#001B2B"/>
<path d="M34.4023 12.2146C34.4023 12.2146 34.4429 12.2435 34.5243 12.3013C34.6056 12.3475 34.7218 12.3706 34.8729 12.3706C35.2099 12.3706 35.4307 12.1973 35.5353 11.8506C35.6399 11.5039 35.7096 10.8684 35.7445 9.94394L35.9188 5.28125H41.8631V14H39.7887V6.91059H37.6794L37.5574 10.0306C37.5109 11.4751 37.3308 12.5266 37.017 13.1853C36.7033 13.844 36.1048 14.1733 35.2216 14.1733C34.9775 14.1733 34.7799 14.1444 34.6289 14.0866C34.4778 14.0288 34.4023 14 34.4023 14V12.2146Z" fill="#001B2B"/>
<path d="M43.6113 5.28125H45.6334V10.6719L48.8409 5.28125H50.6363V14H48.6142V8.60927L45.4068 14H43.6113V5.28125Z" fill="#001B2B"/>
<path d="M58.8108 6.91059H56.3703V14H54.2959V6.91059H51.8555V5.28125H58.8108V6.91059Z" fill="#001B2B"/>
<mask id="mask0_4006_8284" style="mask-type:luminance" maskUnits="userSpaceOnUse" x="0" y="0" width="17" height="16">
<path d="M16.0909 0H0V16H16.0909V0Z" fill="white"/>
</mask>
<g mask="url(#mask0_4006_8284)">
<path d="M8.07075 8.03823L13.7228 13.7934L13.6075 13.8978L13.5588 13.9437C11.9762 15.3474 9.90243 16.0769 7.78415 15.9751C5.66586 15.8734 3.67251 14.9484 2.23337 13.3995C0.794237 11.8506 0.0244462 9.80158 0.089781 7.69381C0.155116 5.58604 1.05035 3.58809 2.58269 2.13024C4.15816 0.696622 6.23822 -0.0620712 8.37228 0.0185172C10.5063 0.0991056 12.5226 1.01249 13.9841 2.56079L8.07075 8.03823Z" fill="#01B94F"/>
<path d="M2.58824 2.12759C4.16348 0.695223 6.24276 -0.0624725 8.37578 0.0185897C10.5088 0.099652 12.5239 1.01295 13.9846 2.56069C13.9846 2.56069 9.28306 6.93755 9.18826 7.01398C9.18826 7.01398 8.13523 7.99991 8.14291 8.0152C8.1506 8.03049 13.713 13.7704 13.713 13.7704L13.6002 13.8774L13.5516 13.9232C10.2311 16.8275 5.14267 16.6951 2.13731 13.4647C0.694029 11.8976 -0.0683498 9.82707 0.0161031 7.70382C0.100556 5.58056 1.02501 3.57642 2.58824 2.12759Z" fill="url(#paint0_radial_4006_8284)"/>
<path d="M2.59092 2.12269C4.16742 0.692217 6.24681 -0.0637564 8.37944 0.0182445C10.5121 0.100245 12.5265 1.01363 13.9872 2.56089C13.9872 2.56089 9.41129 6.84093 9.22425 6.99124C9.22425 6.99124 8.1994 7.96444 8.21734 7.99501C8.25577 8.08673 13.7054 13.7451 13.7054 13.7451L13.5927 13.8521L13.544 13.8979C10.2312 16.7971 5.14023 16.6545 2.14512 13.4343C0.703999 11.8715 -0.0577622 9.80585 0.0257379 7.68719C0.109238 5.56854 1.03124 3.5685 2.59092 2.12269Z" fill="url(#paint1_radial_4006_8284)"/>
<path d="M2.59524 2.11999C4.17181 0.691393 6.25028 -0.0631698 8.38166 0.0192969C10.5131 0.101764 12.5263 1.01464 13.9864 2.56073C13.9864 2.56073 9.54115 6.74142 9.25419 6.96816C9.25419 6.96816 8.26521 7.92608 8.28315 7.97193C8.34208 8.10951 13.6943 13.722 13.6943 13.722L13.5791 13.829L13.5304 13.8723C10.2278 16.7639 5.13943 16.6161 2.14943 13.4036C0.710647 11.8452 -0.0499563 9.78424 0.0335614 7.67039C0.117079 5.55654 1.03794 3.56131 2.59524 2.11999Z" fill="url(#paint2_radial_4006_8284)"/>
<path d="M2.59771 2.11757C4.17448 0.690067 6.25258 -0.0635677 8.38335 0.0193704C10.5141 0.102309 12.5266 1.01517 13.9863 2.56086C13.9863 2.56086 9.66917 6.63709 9.28741 6.94536C9.28741 6.94536 8.32918 7.89053 8.3548 7.95168C8.43166 8.13511 13.684 13.6992 13.684 13.6992L13.5713 13.8036C13.5713 13.8036 13.5226 13.847 13.5226 13.8495C10.2277 16.7309 5.13934 16.5729 2.15703 13.3731C0.720552 11.8195 -0.039369 9.76379 0.0431979 7.65496C0.125765 5.54612 1.04411 3.55543 2.59771 2.11757Z" fill="url(#paint3_radial_4006_8284)"/>
<path d="M2.60374 2.11271C4.1809 0.687418 6.25827 -0.0643616 8.38781 0.019519C10.5174 0.103399 12.5284 1.01622 13.9873 2.5611C13.9873 2.5611 9.80073 6.54561 9.32162 6.92266C9.32162 6.92266 8.39413 7.85255 8.42488 7.92898C8.52224 8.15827 13.6772 13.6739 13.6747 13.6765L13.5619 13.7809L13.5133 13.8268C10.2261 16.6954 5.14024 16.5349 2.16562 13.3427C0.731621 11.7931 -0.0272358 9.74209 0.0548581 7.63785C0.136952 5.53361 1.05333 3.54722 2.60374 2.11271Z" fill="url(#paint4_radial_4006_8284)"/>
<path d="M2.60563 2.10981C4.18299 0.685606 6.26 -0.065246 8.38892 0.0191057C10.5178 0.103458 12.5282 1.01626 13.9866 2.56074C13.9866 2.56074 9.92817 6.44845 9.35426 6.89174C9.35426 6.89174 8.45751 7.80634 8.49595 7.89806C8.61124 8.1732 13.6663 13.6405 13.6663 13.6405L13.5536 13.7704L13.5049 13.8137C10.2228 16.662 5.13957 16.4964 2.17007 13.3118C0.738716 11.7666 -0.0190102 9.72065 0.0626129 7.62141C0.144236 5.52218 1.05857 3.54051 2.60563 2.10981Z" fill="url(#paint5_radial_4006_8284)"/>
<path d="M2.61054 2.10739C4.18809 0.684284 6.26473 -0.0656417 8.39304 0.0191811C10.5213 0.104004 12.531 1.01679 13.9889 2.56087C13.9889 2.56087 10.0586 6.35176 9.38991 6.89186C9.38991 6.89186 8.52135 7.79118 8.56491 7.89818C8.71095 8.20644 13.6584 13.6279 13.6558 13.6279L13.5431 13.7323L13.4944 13.7782C10.2226 16.629 5.13935 16.4557 2.17754 13.2814C0.748181 11.7409 -0.00884116 9.69984 0.0723192 7.60541C0.15348 5.51099 1.06621 3.53394 2.61054 2.10739Z" fill="url(#paint6_radial_4006_8284)"/>
<path d="M2.61296 2.10233C4.19103 0.680649 6.2675 -0.067905 8.39519 0.0178656C10.5229 0.103636 12.5316 1.01687 13.9888 2.56091C13.9888 2.56091 10.1866 6.25244 9.42307 6.85623C9.42307 6.85623 8.58526 7.74281 8.6365 7.87529C8.79022 8.24215 13.648 13.6152 13.6454 13.6152C13.6429 13.6152 13.5404 13.7145 13.5327 13.7196L13.484 13.7629C10.2199 16.5959 5.13664 16.4176 2.18252 13.261C0.751842 11.7244 -0.00651587 9.68559 0.0742017 7.59305C0.154919 5.50052 1.0681 3.52552 2.61296 2.10233Z" fill="url(#paint7_radial_4006_8284)"/>
<path d="M2.61864 2.09964C4.19678 0.679834 6.27232 -0.0673138 8.39878 0.018922C10.5252 0.105158 12.5327 1.01789 13.9893 2.56077C13.9893 2.56077 10.3178 6.15549 9.45694 6.83317C9.45694 6.83317 8.64987 7.70446 8.7088 7.85223C8.88046 8.26494 13.6383 13.5896 13.6383 13.5921L13.5256 13.6966L13.4769 13.7399C10.2204 16.5729 5.1372 16.3869 2.20358 13.2303C0.774553 11.6994 0.0155015 9.66681 0.0933369 7.57952C0.171172 5.49222 1.07952 3.52112 2.61864 2.09964Z" fill="url(#paint8_radial_4006_8284)"/>
<path d="M2.62168 2.09723C4.20001 0.678516 6.27519 -0.0677073 8.40104 0.0189994C10.5269 0.105706 12.5336 1.01842 13.9898 2.5609C13.9898 2.5609 10.4464 6.05627 9.48047 6.81037C9.48047 6.81037 8.71184 7.66893 8.76821 7.82943C8.96805 8.28036 13.6311 13.5566 13.6286 13.5591L13.5158 13.661C13.5158 13.661 13.4723 13.7018 13.4671 13.7069C10.2184 16.5297 5.13768 16.336 2.1938 13.1973C1.48888 12.4406 0.940759 11.5532 0.580754 10.5858C0.22075 9.61834 0.0559077 8.5899 0.09564 7.55915C0.135372 6.5284 0.378901 5.51553 0.81232 4.57837C1.24574 3.6412 1.86056 2.79811 2.62168 2.09723Z" fill="url(#paint9_radial_4006_8284)"/>
<path d="M2.62769 2.09191C4.20641 0.675393 6.28086 -0.0689811 8.40547 0.0186672C10.5301 0.106316 12.5354 1.019 13.9907 2.56068C13.9907 2.56068 10.578 5.95924 9.52493 6.78722C9.52493 6.78722 8.77934 7.63304 8.85108 7.80628C9.06117 8.31581 13.6218 13.5411 13.6218 13.5436L13.5091 13.6455L13.4604 13.6888C10.2167 16.4963 5.13857 16.2976 2.20494 13.1615C0.785013 11.6377 0.0318713 9.61548 0.11115 7.53963C0.190427 5.46378 1.09563 3.50422 2.62769 2.09191Z" fill="url(#paint10_radial_4006_8284)"/>
<path d="M2.62882 2.08973C4.20817 0.674148 6.28267 -0.0693717 8.40709 0.018745C10.5315 0.106862 12.5365 1.01959 13.9918 2.56104C13.9918 2.56104 10.7046 5.87298 9.5568 6.7672C9.5568 6.7672 8.84453 7.59519 8.91883 7.78626C9.14942 8.32891 13.6126 13.5159 13.6101 13.5159L13.4973 13.6204L13.4487 13.6637C10.2153 16.4661 5.13714 16.2623 2.2112 13.1363C1.50849 12.3841 0.96182 11.5014 0.602456 10.5389C0.243092 9.57642 0.0780853 8.55291 0.116873 7.52693C0.155661 6.50095 0.397483 5.49265 0.828507 4.55968C1.25953 3.62671 1.8713 2.78739 2.62882 2.08973Z" fill="url(#paint11_radial_4006_8284)"/>
<path d="M2.63472 2.08705C4.21412 0.67334 6.28771 -0.0687774 8.41089 0.019804C10.5341 0.108385 12.5379 1.02061 13.9926 2.56091C13.9926 2.56091 10.8361 5.7633 9.59088 6.74414C9.59088 6.74414 8.90936 7.55939 8.99135 7.7632C9.24756 8.35935 13.6032 13.4929 13.6032 13.4954L13.4905 13.5999C13.4905 13.5999 13.4469 13.6381 13.4443 13.6432C10.2161 16.4456 5.14048 16.2239 2.21966 13.1082C-0.701164 9.99239 -0.555122 4.96334 2.63472 2.08705Z" fill="url(#paint12_radial_4006_8284)"/>
<path d="M2.63626 2.08201C4.21618 0.669716 6.28958 -0.0710325 8.41216 0.0184959C10.5347 0.108024 12.5376 1.02071 13.9916 2.56096C13.9916 2.56096 10.9631 5.66145 9.63596 6.71617C9.63596 6.71617 8.98262 7.51613 9.0723 7.73523C9.34132 8.37723 13.6021 13.4623 13.6021 13.4649L13.4894 13.5668L13.4407 13.6101C10.2099 16.3947 5.12407 16.1781 2.22375 13.07C-0.676564 9.96187 -0.545896 4.95065 2.63626 2.08201Z" fill="url(#paint13_radial_4006_8284)"/>
<path d="M2.64219 2.07934C4.22217 0.668912 6.29465 -0.0704365 8.41599 0.0195564C10.5374 0.109549 12.539 1.02173 13.9924 2.56084C13.9924 2.56084 11.0946 5.56706 9.65984 6.69822C9.65984 6.69822 9.03724 7.48544 9.13204 7.71727C9.42156 8.40259 13.5799 13.4393 13.5799 13.4418L13.4672 13.5438L13.4185 13.5871C10.2107 16.3615 5.12489 16.1373 2.22969 13.0393C-0.66551 9.94137 -0.534841 4.93779 2.64219 2.07934Z" fill="url(#paint14_radial_4006_8284)"/>
<path d="M2.64439 2.07693C4.22455 0.667601 6.29667 -0.0708257 8.4174 0.0196376C10.5381 0.110101 12.539 1.02227 13.992 2.56098C13.992 2.56098 11.2224 5.47039 9.69278 6.67542C9.69278 6.67542 9.10093 7.43972 9.20341 7.69448C9.51087 8.42056 13.5795 13.4165 13.5795 13.419L13.4694 13.5209L13.4207 13.5643C10.2078 16.3183 5.12452 16.0992 2.23701 13.0063C-0.650504 9.91348 -0.527522 4.92774 2.64439 2.07693Z" fill="url(#paint15_radial_4006_8284)"/>
<path d="M2.65002 2.07183C4.23128 0.665146 6.30295 -0.071102 8.42268 0.0202911C10.5424 0.111684 12.5422 1.02348 13.9951 2.56098C13.9951 2.56098 11.3536 5.36339 9.73684 6.6525C9.73684 6.6525 9.17574 7.41679 9.28334 7.67156C9.60105 8.45114 13.58 13.391 13.5647 13.3936L13.4519 13.4955C13.4369 13.5112 13.4207 13.5257 13.4033 13.5388C10.2083 16.2953 5.12503 16.0635 2.24521 12.9783C-0.634618 9.8931 -0.511637 4.915 2.65002 2.07183Z" fill="url(#paint16_radial_4006_8284)"/>
<path d="M2.65148 2.06918C4.23463 0.664608 6.30755 -0.0684206 8.4271 0.0267941C10.5466 0.122009 12.5446 1.03791 13.994 2.57871C13.994 2.57871 11.4805 5.27412 9.7588 6.63711C9.7588 6.63711 9.22844 7.38102 9.34373 7.65617C9.68962 8.48415 13.5559 13.3782 13.5533 13.3807C13.5507 13.3833 13.4585 13.4699 13.4406 13.4826L13.3944 13.526C10.2046 16.2621 5.12392 16.0176 2.24923 12.9476C-0.625473 9.87771 -0.51274 4.90216 2.65148 2.06918Z" fill="url(#paint17_radial_4006_8284)"/>
<path d="M2.65803 2.06673C4.24062 0.663093 6.31256 -0.0693885 8.43107 0.0258224C10.5496 0.121033 12.5467 1.03638 13.9955 2.57626C13.9955 2.57626 11.6127 5.1825 9.79353 6.61683C9.79353 6.61683 9.29392 7.34545 9.41434 7.63588C9.78072 8.50973 13.5496 13.3553 13.5445 13.3579L13.4343 13.4598L13.3857 13.5031C10.2035 16.2291 5.12535 15.9794 2.25834 12.9172C-0.60867 9.85488 -0.498499 4.88952 2.65803 2.06673Z" fill="url(#paint18_radial_4006_8284)"/>
<path d="M2.65973 2.05131C4.24247 0.64905 6.31371 -0.0825507 8.43141 0.0126451C10.5491 0.107841 12.5455 1.02229 13.9946 2.56083C13.9946 2.56083 11.7399 5.07027 9.82854 6.57847C9.82854 6.57847 9.35711 7.29181 9.48521 7.59753C9.86953 8.51723 13.5385 13.317 13.5359 13.3195L13.4232 13.4215L13.3745 13.4622C10.2026 16.1958 5.12449 15.9385 2.2626 12.889C-0.599288 9.83946 -0.489116 4.87665 2.65973 2.05131Z" fill="url(#paint19_radial_4006_8284)"/>
<path d="M2.66422 2.05131C4.2464 0.649977 6.31666 -0.0810772 8.43331 0.0141148C10.55 0.109307 12.5454 1.02321 13.9939 2.56083C12.7201 3.99697 11.3386 5.33493 9.86121 6.56319C9.86121 6.56319 9.42053 7.26379 9.55632 7.58224C9.95857 8.5478 13.5276 13.2966 13.525 13.3017L13.4149 13.4011L13.3662 13.4444C10.1994 16.1627 5.12385 15.9003 2.26965 12.8584C-0.584552 9.81653 -0.482067 4.85372 2.66422 2.05131Z" fill="url(#paint20_radial_4006_8284)"/>
<path d="M2.66787 2.05127C4.25033 0.65056 6.32047 -0.0800892 8.43692 0.0150939C10.5534 0.110277 12.5487 1.02376 13.9976 2.5608C12.7416 3.99302 11.3706 5.32132 9.89817 6.53258C9.89817 6.53258 9.4908 7.2179 9.64196 7.55164C10.0647 8.5707 13.5364 13.266 13.5313 13.2686L13.4211 13.3705L13.3724 13.4138C10.2005 16.127 5.12494 15.8595 2.27586 12.8278C-0.573216 9.79611 -0.470731 4.85368 2.66787 2.05127Z" fill="url(#paint21_radial_4006_8284)"/>
<path d="M2.67236 2.0517C4.25483 0.653145 6.32371 -0.0761517 8.43874 0.0190102C10.5538 0.114172 12.548 1.02627 13.9969 2.56123C12.7607 3.99447 11.3992 5.31593 9.92829 6.51008C9.92829 6.51008 9.55165 7.18266 9.69769 7.52914C10.1384 8.59661 13.5101 13.2613 13.5076 13.2613C13.505 13.2613 13.4179 13.3454 13.3948 13.3632L13.3487 13.404C10.1973 16.0943 5.12431 15.809 2.28292 12.7976C-0.558479 9.78636 -0.46368 4.85411 2.67236 2.0517Z" fill="url(#paint22_radial_4006_8284)"/>
<path d="M2.67561 2.05145C4.25794 0.653657 6.32627 -0.075165 8.44067 0.0199905C10.5551 0.115146 12.5488 1.02677 13.9976 2.56097C12.7814 3.99682 11.4302 5.31398 9.96228 6.49454C9.96228 6.49454 9.61639 7.15183 9.76756 7.5136C10.2313 8.61673 13.5031 13.2254 13.498 13.228L13.3879 13.3273L13.3392 13.3706C10.1954 16.0635 5.12499 15.7807 2.29129 12.7668C-0.54242 9.75298 -0.452746 4.82838 2.67561 2.05145Z" fill="url(#paint23_radial_4006_8284)"/>
<path d="M2.67767 2.05119C4.25986 0.654169 6.32763 -0.0741784 8.44142 0.0209708C10.5552 0.11612 12.5483 1.02727 13.9971 2.56072C12.8017 3.99909 11.4597 5.31048 9.99252 6.47391C9.99252 6.47391 9.67738 7.11591 9.83623 7.49296C10.3179 8.64195 13.4898 13.1997 13.4873 13.2048L13.3745 13.3042L13.3259 13.3475C10.1949 16.0276 5.12449 15.7397 2.30616 12.7361C-0.512179 9.73234 -0.443002 4.81539 2.67767 2.05119Z" fill="url(#paint24_radial_4006_8284)"/>
<path d="M2.68336 2.05165C4.26528 0.656171 6.33193 -0.0712286 8.44449 0.0239079C10.5571 0.119044 12.5491 1.02922 13.9977 2.56118C12.8247 4.00003 11.4945 5.30479 10.0315 6.45143C10.0315 6.45143 9.74457 7.0807 9.9111 7.47049C10.4235 8.66533 13.4981 13.1772 13.4802 13.1823L13.37 13.2816L13.3213 13.3224C10.193 15.9949 5.12506 15.6994 2.30673 12.7059C-0.511613 9.71242 -0.43475 4.8031 2.68336 2.05165Z" fill="url(#paint25_radial_4006_8284)"/>
<path d="M2.68585 2.05138C4.26792 0.657272 6.33388 -0.0692543 8.44562 0.0258674C10.5574 0.120989 12.5488 1.03028 13.9976 2.56091C12.8482 4.00288 11.5277 5.30141 10.0648 6.42823C10.0648 6.42823 9.80855 7.04222 9.98021 7.44729C10.4927 8.688 13.475 13.1515 13.4698 13.154C13.4647 13.1566 13.3853 13.233 13.3597 13.2534L13.311 13.2967C10.1929 15.9615 5.12499 15.6609 2.30666 12.6751C-0.511679 9.68922 -0.424567 4.7901 2.68585 2.05138Z" fill="url(#paint26_radial_4006_8284)"/>
<path d="M2.68959 2.03636C4.27346 0.644959 6.34 -0.0784312 8.45116 0.0195393C10.5623 0.11751 12.5521 1.02914 13.9988 2.56118C13.9988 2.56118 12.7741 4.29358 10.0967 6.40557C10.0967 6.40557 9.87121 7.00682 10.0505 7.42463C10.5886 8.69845 13.4633 13.1288 13.4607 13.1313L13.348 13.2307L13.3019 13.274C10.1889 15.9286 5.1236 15.6204 2.30527 12.6447C-0.513055 9.66911 -0.418256 4.77763 2.68959 2.03636Z" fill="url(#paint27_radial_4006_8284)"/>
<path d="M2.69321 2.03086C4.27786 0.641466 6.3441 -0.0801659 8.45446 0.0187409C10.5648 0.117648 12.5536 1.02933 13.9999 2.56077C13.9999 2.56077 12.9058 4.18617 10.1311 6.38224C10.0277 6.71414 10.0277 7.06939 10.1311 7.40129C10.6896 8.73371 13.4618 13.1004 13.4618 13.1055L13.3516 13.2049L13.303 13.2456C10.1874 15.8952 5.12466 15.5818 2.32426 12.6163C-0.47614 9.65087 -0.406962 4.76703 2.69321 2.03086Z" fill="url(#paint28_radial_4006_8284)"/>
<path d="M2.69914 2.02874C4.28327 0.639998 6.34885 -0.0810463 8.45838 0.0183415C10.5679 0.117729 12.5557 1.02974 14.0007 2.5612C14.0007 2.5612 13.0348 4.08979 10.1575 6.34955C10.067 6.68473 10.0768 7.03888 10.1857 7.36861C10.7622 8.76472 13.4473 13.0855 13.4421 13.0906L13.332 13.1899L13.2858 13.2307C10.1882 15.8624 5.12546 15.5541 2.33019 12.5861C-0.465088 9.61819 -0.395911 4.75472 2.69914 2.02874Z" fill="url(#paint29_radial_4006_8284)"/>
<path d="M2.70071 2.02588C4.28502 0.638216 6.35024 -0.0819129 8.45915 0.0179441C10.5681 0.117801 12.5551 1.02981 13.9997 2.56088C13.9997 2.56088 13.1644 4.0003 10.1975 6.33904C10.1261 6.67826 10.1482 7.03035 10.2615 7.3581C10.8585 8.78223 13.4386 13.0546 13.4334 13.0597L13.3233 13.1566L13.2746 13.1999C10.1847 15.829 5.12448 15.5004 2.33689 12.5553C-0.494253 9.56945 -0.389206 4.74167 2.70071 2.02588Z" fill="url(#paint30_radial_4006_8284)"/>
<path d="M2.70537 2.0211C4.29033 0.636221 6.35468 -0.0816793 8.46218 0.0191069C10.5697 0.119893 12.5552 1.03147 13.9992 2.5612C13.9992 2.5612 13.2921 3.89362 10.2303 6.30624C10.1775 6.64908 10.2127 6.99964 10.3328 7.32529C10.9477 8.79529 13.4278 13.0218 13.4227 13.0244L13.3126 13.1237L13.2639 13.1645C10.1893 15.7758 5.12914 15.4574 2.34155 12.5072C-0.446037 9.55703 -0.379422 4.72924 2.70537 2.0211Z" fill="url(#paint31_radial_4006_8284)"/>
<path d="M2.70794 2.01798C4.29349 0.634028 6.3579 -0.0830311 8.46521 0.0182215C10.5725 0.119474 12.5578 1.03112 14.0018 2.56063C14.0018 2.56063 13.4227 3.79369 10.2662 6.28274C10.2316 6.62851 10.279 6.97752 10.4045 7.3018C11.0374 8.83803 13.4176 13.006 13.4125 13.0188L13.3023 13.1181L13.2562 13.1589C10.1816 15.76 5.12401 15.4212 2.34924 12.4965C-0.469094 9.52589 -0.369171 4.71594 2.70794 2.01798Z" fill="url(#paint32_radial_4006_8284)"/>
<path d="M2.71379 2.01586C4.29911 0.633153 6.36273 -0.0829203 8.46901 0.018804C10.5753 0.120528 12.5594 1.03209 14.0025 2.56105C14.0025 2.56105 13.5516 3.70749 10.3002 6.27043C10.2857 6.61851 10.3451 6.96572 10.4745 7.28948C11.1278 8.86138 13.4107 12.9911 13.4055 13.0064L13.2954 13.1032L13.2467 13.144C10.1798 15.7273 5.12475 15.3834 2.3551 12.4638C-0.455553 9.50339 -0.360755 4.70362 2.71379 2.01586Z" fill="url(#paint33_radial_4006_8284)"/>
<path d="M2.71609 2.01085C4.30218 0.630162 6.36549 -0.0841578 8.47098 0.0185017C10.5765 0.121161 12.5596 1.03278 14.0022 2.56114C14.0022 2.56114 13.682 3.60822 10.3333 6.24758C10.3388 6.60169 10.4109 6.95165 10.5459 7.27938C11.2198 8.88694 13.4001 12.9682 13.395 12.9733L13.2848 13.0702L13.2387 13.1109C10.1795 15.6942 5.12448 15.3427 2.36251 12.4332C-0.443008 9.48309 -0.350771 4.69097 2.71609 2.01085Z" fill="url(#paint34_radial_4006_8284)"/>
<path d="M2.72159 2.00827C4.30857 0.633014 6.37004 -0.0767473 8.47249 0.028256C10.5749 0.133259 12.5545 1.04484 13.9949 2.5713C13.9949 2.5713 13.8028 3.51138 10.3593 6.22462C10.389 6.57991 10.4755 6.92821 10.6155 7.25642C11.3098 8.91239 13.3928 12.9453 13.3877 12.9504L13.2775 13.0472C13.2602 13.0594 13.2439 13.073 13.2289 13.088C10.1774 15.6611 5.12486 15.2993 2.37058 12.4026C-0.429825 9.46013 -0.342713 4.68075 2.72159 2.00827Z" fill="url(#paint35_radial_4006_8284)"/>
<path d="M2.72424 2.00568C4.31127 0.63013 6.37308 -0.0795848 8.47572 0.0259036C10.5784 0.131392 12.5579 1.04385 13.9976 2.57125C13.9976 2.57125 13.9361 3.41452 10.3953 6.20165C10.4456 6.55731 10.542 6.90499 10.6822 7.23599C11.3996 8.93018 13.3827 12.9198 13.3776 12.9249L13.2674 13.0217C13.252 13.0217 13.2341 13.0522 13.2187 13.0624C10.1749 15.6279 5.12495 15.2636 2.3758 12.372C-0.416919 9.43971 -0.332369 4.66797 2.72424 2.00568Z" fill="url(#paint36_radial_4006_8284)"/>
<path d="M2.72981 2.00044C4.31803 0.626739 6.37994 -0.0813009 8.48221 0.0251192C10.5845 0.131539 12.5635 1.04413 14.0032 2.57111C14.0032 2.57111 14.0698 3.32521 10.4341 6.18112C10.5086 6.53507 10.6185 6.88072 10.7621 7.21292C11.4923 8.96061 13.378 12.8967 13.3703 12.9018C13.3626 12.9069 13.296 12.9706 13.2602 12.9986L13.214 13.0394C10.1779 15.5998 5.12539 15.2227 2.38392 12.3413C-0.406224 9.41663 -0.321675 4.65509 2.72981 2.00044Z" fill="url(#paint37_radial_4006_8284)"/>
<path d="M2.73144 1.99768C4.32003 0.624009 6.38245 -0.0835424 8.48493 0.0238385C10.5874 0.131219 12.5661 1.04517 14.0048 2.57345C14.0048 2.57345 14.1995 3.218 10.469 6.15799C10.5648 6.51047 10.6847 6.85606 10.8277 7.19233C11.5784 8.97568 13.3642 12.8736 13.3591 12.8787L13.2489 12.9755L13.2003 13.0163C10.1744 15.5537 5.12446 15.1818 2.38812 12.3131C-0.394347 9.3935 -0.314921 4.64214 2.73144 1.99768Z" fill="url(#paint38_radial_4006_8284)"/>
<path d="M2.73602 1.99555C4.32493 0.622209 6.38755 -0.0849 8.49003 0.0229562C10.5925 0.130812 12.571 1.04523 14.0094 2.57387C14.0094 2.57387 14.3271 3.11906 10.5044 6.12783C10.5044 6.12783 10.6453 6.55583 10.9015 7.16217C11.6701 9.00157 13.356 12.8434 13.3509 12.8485L13.2407 12.9453L13.1946 12.9835C10.1713 15.5286 5.12392 15.1439 2.39526 12.2829C-0.382085 9.37098 -0.305221 4.62982 2.73602 1.99555Z" fill="url(#paint39_radial_4006_8284)"/>
<path d="M13.3381 12.833C10.3456 15.5081 5.17265 15.1539 2.40044 12.242C-0.371772 9.33003 -0.297471 4.59905 2.73864 1.98008C4.32847 0.607975 6.39133 -0.097855 8.49364 0.0109424C10.5959 0.11974 12.574 1.03469 14.012 2.56349C14.012 2.56349 14.4655 3.01187 10.5429 6.10217C10.5352 6.11236 13.3484 12.8254 13.3381 12.833Z" fill="url(#paint40_radial_4006_8284)"/>
<path d="M10.423 6.19824C9.19578 7.19947 7.68669 8.37903 5.93164 9.70126C7.23543 11.1033 8.75174 12.2938 10.4256 13.2298C11.863 13.9941 12.9877 14.1367 13.5386 13.6527C14.0894 13.1686 14.0228 12.0528 13.3823 10.5955C12.6239 8.99008 11.6263 7.50765 10.423 6.19824Z" fill="url(#paint41_linear_4006_8284)"/>
<path d="M10.533 6.09912L9.91811 6.60865C11.044 7.83933 11.98 9.22935 12.6955 10.7333C13.3232 12.1702 13.3078 12.8911 13.1054 13.072C12.903 13.2529 12.0293 13.2988 10.633 12.5625C9.08613 11.6902 7.68715 10.5812 6.48743 9.27603L5.80078 9.78556L5.9622 9.94097C8.8702 12.9294 12.0165 14.6312 13.4 14.0121C13.441 13.9917 13.482 13.9713 13.5205 13.9484H13.5358C13.5893 13.9154 13.6399 13.8779 13.687 13.8363C13.7369 13.7915 13.7823 13.742 13.8228 13.6886C14.7272 12.509 13.3539 9.33208 10.6176 6.21886L10.533 6.09912Z" fill="#84EEB1"/>
</g>
</g>
<defs>
<radialGradient id="paint0_radial_4006_8284" cx="0" cy="0" r="1" gradientUnits="userSpaceOnUse" gradientTransform="translate(10.1128 0.906144) rotate(-2.27768) scale(36.8852 27.1419)">
<stop stop-color="#03BA50"/>
<stop offset="0.8" stop-color="#01B64E"/>
</radialGradient>
<radialGradient id="paint1_radial_4006_8284" cx="0" cy="0" r="1" gradientUnits="userSpaceOnUse" gradientTransform="translate(10.1092 0.903386) rotate(-2.27768) scale(36.8083 27.0853)">
<stop stop-color="#04BC50"/>
<stop offset="0.8" stop-color="#01B34D"/>
</radialGradient>
<radialGradient id="paint2_radial_4006_8284" cx="0" cy="0" r="1" gradientUnits="userSpaceOnUse" gradientTransform="translate(10.0996 0.91011) rotate(-2.27768) scale(36.7314 27.0287)">
<stop stop-color="#06BD51"/>
<stop offset="0.72" stop-color="#02B24C"/>
<stop offset="0.8" stop-color="#01B04B"/>
</radialGradient>
<radialGradient id="paint3_radial_4006_8284" cx="0" cy="0" r="1" gradientUnits="userSpaceOnUse" gradientTransform="translate(10.0857 0.92175) rotate(-2.27768) scale(36.6545 26.9722)">
<stop stop-color="#08BF52"/>
<stop offset="0.56" stop-color="#04B44D"/>
<stop offset="0.8" stop-color="#01AD4A"/>
</radialGradient>
<radialGradient id="paint4_radial_4006_8284" cx="0" cy="0" r="1" gradientUnits="userSpaceOnUse" gradientTransform="translate(10.0729 0.933051) rotate(-2.27768) scale(36.5775 26.9155)">
<stop stop-color="#0AC053"/>
<stop offset="0.48" stop-color="#05B54E"/>
<stop offset="0.8" stop-color="#01AA49"/>
</radialGradient>
<radialGradient id="paint5_radial_4006_8284" cx="0" cy="0" r="1" gradientUnits="userSpaceOnUse" gradientTransform="translate(10.056 0.960231) rotate(-1.70866) scale(36.4854 26.8554)">
<stop stop-color="#0BC253"/>
<stop offset="0.42" stop-color="#07B74E"/>
<stop offset="0.8" stop-color="#01A848"/>
</radialGradient>
<radialGradient id="paint6_radial_4006_8284" cx="0" cy="0" r="1" gradientUnits="userSpaceOnUse" gradientTransform="translate(10.0346 0.967313) rotate(-1.70865) scale(36.4085 26.7988)">
<stop stop-color="#0DC354"/>
<stop offset="0.37" stop-color="#08B84F"/>
<stop offset="0.8" stop-color="#01A546"/>
</radialGradient>
<radialGradient id="paint7_radial_4006_8284" cx="0" cy="0" r="1" gradientUnits="userSpaceOnUse" gradientTransform="translate(10.305 0.97446) rotate(-1.70866) scale(36.3316 26.7314)">
<stop stop-color="#0FC555"/>
<stop offset="0.33" stop-color="#0ABA50"/>
<stop offset="0.8" stop-color="#01A245"/>
</radialGradient>
<radialGradient id="paint8_radial_4006_8284" cx="0" cy="0" r="1" gradientUnits="userSpaceOnUse" gradientTransform="translate(10.2786 0.987237) rotate(-1.69175) scale(36.617 26.6748)">
<stop stop-color="#11C656"/>
<stop offset="0.3" stop-color="#0CBB51"/>
<stop offset="0.8" stop-color="#019F44"/>
</radialGradient>
<radialGradient id="paint9_radial_4006_8284" cx="0" cy="0" r="1" gradientUnits="userSpaceOnUse" gradientTransform="translate(10.2701 1.00044) rotate(-1.69175) scale(36.5393 26.6183)">
<stop stop-color="#12C856"/>
<stop offset="0.28" stop-color="#0EBD51"/>
<stop offset="0.77" stop-color="#029E44"/>
<stop offset="0.8" stop-color="#019C43"/>
</radialGradient>
<radialGradient id="paint10_radial_4006_8284" cx="0" cy="0" r="1" gradientUnits="userSpaceOnUse" gradientTransform="translate(10.262 1.01788) rotate(-1.69175) scale(36.4591 26.5598)">
<stop stop-color="#14C957"/>
<stop offset="0.26" stop-color="#0FBE52"/>
<stop offset="0.72" stop-color="#049F44"/>
<stop offset="0.8" stop-color="#019941"/>
</radialGradient>
<radialGradient id="paint11_radial_4006_8284" cx="0" cy="0" r="1" gradientUnits="userSpaceOnUse" gradientTransform="translate(10.2439 1.03989) rotate(-1.69175) scale(36.3814 26.5032)">
<stop stop-color="#16CB58"/>
<stop offset="0.24" stop-color="#11C053"/>
<stop offset="0.66" stop-color="#06A145"/>
<stop offset="0.8" stop-color="#019640"/>
</radialGradient>
<radialGradient id="paint12_radial_4006_8284" cx="0" cy="0" r="1" gradientUnits="userSpaceOnUse" gradientTransform="translate(10.2255 1.06338) rotate(-1.69175) scale(36.3037 26.4467)">
<stop stop-color="#18CC59"/>
<stop offset="0.23" stop-color="#13C154"/>
<stop offset="0.62" stop-color="#07A246"/>
<stop offset="0.8" stop-color="#01933F"/>
</radialGradient>
<radialGradient id="paint13_radial_4006_8284" cx="0" cy="0" r="1" gradientUnits="userSpaceOnUse" gradientTransform="translate(10.2052 1.09163) rotate(-1.69175) scale(36.2234 26.3882)">
<stop stop-color="#19CD59"/>
<stop offset="0.21" stop-color="#15C254"/>
<stop offset="0.59" stop-color="#09A347"/>
<stop offset="0.8" stop-color="#01903E"/>
</radialGradient>
<radialGradient id="paint14_radial_4006_8284" cx="0" cy="0" r="1" gradientUnits="userSpaceOnUse" gradientTransform="translate(10.1817 1.12175) rotate(-1.69175) scale(36.1458 26.3316)">
<stop stop-color="#1BCF5A"/>
<stop offset="0.2" stop-color="#17C455"/>
<stop offset="0.56" stop-color="#0BA547"/>
<stop offset="0.8" stop-color="#018D3C"/>
</radialGradient>
<radialGradient id="paint15_radial_4006_8284" cx="0" cy="0" r="1" gradientUnits="userSpaceOnUse" gradientTransform="translate(10.1545 1.0112) rotate(-1.12801) scale(36.0594 26.2744)">
<stop stop-color="#1DD05B"/>
<stop offset="0.19" stop-color="#18C556"/>
<stop offset="0.54" stop-color="#0CA648"/>
<stop offset="0.8" stop-color="#018B3B"/>
</radialGradient>
<radialGradient id="paint16_radial_4006_8284" cx="0" cy="0" r="1" gradientUnits="userSpaceOnUse" gradientTransform="translate(10.1257 1.03417) rotate(-1.12802) scale(35.9791 26.2159)">
<stop stop-color="#1ED25B"/>
<stop offset="0.18" stop-color="#1AC756"/>
<stop offset="0.51" stop-color="#0EA848"/>
<stop offset="0.8" stop-color="#01883A"/>
</radialGradient>
<radialGradient id="paint17_radial_4006_8284" cx="0" cy="0" r="1" gradientUnits="userSpaceOnUse" gradientTransform="translate(10.0952 1.05644) rotate(-1.12801) scale(35.9015 26.1593)">
<stop stop-color="#20D35C"/>
<stop offset="0.18" stop-color="#1BC857"/>
<stop offset="0.49" stop-color="#0FA949"/>
<stop offset="0.8" stop-color="#018539"/>
</radialGradient>
<radialGradient id="paint18_radial_4006_8284" cx="0" cy="0" r="1" gradientUnits="userSpaceOnUse" gradientTransform="translate(10.0622 1.08793) rotate(-1.12801) scale(35.8239 26.1027)">
<stop stop-color="#22D55D"/>
<stop offset="0.17" stop-color="#1DCA58"/>
<stop offset="0.47" stop-color="#11AB4A"/>
<stop offset="0.8" stop-color="#018237"/>
</radialGradient>
<radialGradient id="paint19_radial_4006_8284" cx="0" cy="0" r="1" gradientUnits="userSpaceOnUse" gradientTransform="translate(10.0217 1.11673) rotate(-1.12802) scale(35.7436 26.0443)">
<stop stop-color="#24D65E"/>
<stop offset="0.16" stop-color="#1FCB59"/>
<stop offset="0.45" stop-color="#13AC4B"/>
<stop offset="0.8" stop-color="#017F36"/>
</radialGradient>
<radialGradient id="paint20_radial_4006_8284" cx="0" cy="0" r="1" gradientUnits="userSpaceOnUse" gradientTransform="translate(9.97886 1.15209) rotate(-1.12801) scale(35.666 25.9877)">
<stop stop-color="#25D85E"/>
<stop offset="0.15" stop-color="#20CD59"/>
<stop offset="0.43" stop-color="#14AE4B"/>
<stop offset="0.79" stop-color="#017D36"/>
<stop offset="0.8" stop-color="#007C35"/>
</radialGradient>
<radialGradient id="paint21_radial_4006_8284" cx="0" cy="0" r="1" gradientUnits="userSpaceOnUse" gradientTransform="translate(10.7554 1.19195) rotate(-1.12801) scale(35.5884 25.9242)">
<stop stop-color="#27D95F"/>
<stop offset="0.15" stop-color="#22CE5A"/>
<stop offset="0.42" stop-color="#16AF4C"/>
<stop offset="0.77" stop-color="#027E36"/>
<stop offset="0.8" stop-color="#007934"/>
</radialGradient>
<radialGradient id="paint22_radial_4006_8284" cx="0" cy="0" r="1" gradientUnits="userSpaceOnUse" gradientTransform="translate(10.4897 1.23355) rotate(-1.11696) scale(35.8596 25.8658)">
<stop stop-color="#29DB60"/>
<stop offset="0.14" stop-color="#24D05B"/>
<stop offset="0.4" stop-color="#18B14D"/>
<stop offset="0.74" stop-color="#048037"/>
<stop offset="0.8" stop-color="#007632"/>
</radialGradient>
<radialGradient id="paint23_radial_4006_8284" cx="0" cy="0" r="1" gradientUnits="userSpaceOnUse" gradientTransform="translate(10.4592 1.27905) rotate(-1.11696) scale(35.7811 25.8092)">
<stop stop-color="#2BDC61"/>
<stop offset="0.14" stop-color="#26D15C"/>
<stop offset="0.39" stop-color="#1AB24E"/>
<stop offset="0.71" stop-color="#068138"/>
<stop offset="0.8" stop-color="#007331"/>
</radialGradient>
<radialGradient id="paint24_radial_4006_8284" cx="0" cy="0" r="1" gradientUnits="userSpaceOnUse" gradientTransform="translate(10.4274 1.32904) rotate(-1.11696) scale(35.7001 25.7508)">
<stop stop-color="#2CDE61"/>
<stop offset="0.13" stop-color="#27D35C"/>
<stop offset="0.37" stop-color="#1BB44E"/>
<stop offset="0.69" stop-color="#088339"/>
<stop offset="0.8" stop-color="#007030"/>
</radialGradient>
<radialGradient id="paint25_radial_4006_8284" cx="0" cy="0" r="1" gradientUnits="userSpaceOnUse" gradientTransform="translate(10.394 1.07442) rotate(-0.558531) scale(35.6166 25.6945)">
<stop stop-color="#2EDF62"/>
<stop offset="0.13" stop-color="#29D45D"/>
<stop offset="0.37" stop-color="#1DB54F"/>
<stop offset="0.67" stop-color="#098439"/>
<stop offset="0.8" stop-color="#006E2F"/>
</radialGradient>
<radialGradient id="paint26_radial_4006_8284" cx="0" cy="0" r="1" gradientUnits="userSpaceOnUse" gradientTransform="translate(10.3547 1.11402) rotate(-0.558532) scale(35.5382 25.6379)">
<stop stop-color="#30E163"/>
<stop offset="0.13" stop-color="#2BD65E"/>
<stop offset="0.35" stop-color="#1FB750"/>
<stop offset="0.65" stop-color="#0B8639"/>
<stop offset="0.8" stop-color="#006B2D"/>
</radialGradient>
<radialGradient id="paint27_radial_4006_8284" cx="0" cy="0" r="1" gradientUnits="userSpaceOnUse" gradientTransform="translate(10.3141 1.15862) rotate(-0.558532) scale(35.4572 25.5795)">
<stop stop-color="#31E263"/>
<stop offset="0.12" stop-color="#2CD75E"/>
<stop offset="0.34" stop-color="#20B850"/>
<stop offset="0.63" stop-color="#0D873A"/>
<stop offset="0.8" stop-color="#00682C"/>
</radialGradient>
<radialGradient id="paint28_radial_4006_8284" cx="0" cy="0" r="1" gradientUnits="userSpaceOnUse" gradientTransform="translate(10.2708 1.20448) rotate(-0.558532) scale(35.3788 25.5229)">
<stop stop-color="#33E364"/>
<stop offset="0.12" stop-color="#2ED85F"/>
<stop offset="0.34" stop-color="#22B951"/>
<stop offset="0.62" stop-color="#0E883B"/>
<stop offset="0.8" stop-color="#00652B"/>
</radialGradient>
<radialGradient id="paint29_radial_4006_8284" cx="0" cy="0" r="1" gradientUnits="userSpaceOnUse" gradientTransform="translate(10.2246 1.255) rotate(-0.558532) scale(35.2978 25.4644)">
<stop stop-color="#35E565"/>
<stop offset="0.12" stop-color="#30DA60"/>
<stop offset="0.33" stop-color="#24BB52"/>
<stop offset="0.6" stop-color="#108A3C"/>
<stop offset="0.8" stop-color="#00622A"/>
</radialGradient>
<radialGradient id="paint30_radial_4006_8284" cx="0" cy="0" r="1" gradientUnits="userSpaceOnUse" gradientTransform="translate(10.1765 1.30668) rotate(-0.558532) scale(35.2193 25.4079)">
<stop stop-color="#37E666"/>
<stop offset="0.11" stop-color="#32DB61"/>
<stop offset="0.32" stop-color="#26BC53"/>
<stop offset="0.59" stop-color="#128B3C"/>
<stop offset="0.8" stop-color="#005F28"/>
</radialGradient>
<radialGradient id="paint31_radial_4006_8284" cx="0" cy="0" r="1" gradientUnits="userSpaceOnUse" gradientTransform="translate(10.1238 1.3635) rotate(-0.558532) scale(35.1383 25.3494)">
<stop stop-color="#38E866"/>
<stop offset="0.11" stop-color="#33DD61"/>
<stop offset="0.31" stop-color="#27BE53"/>
<stop offset="0.57" stop-color="#148D3D"/>
<stop offset="0.8" stop-color="#005C27"/>
</radialGradient>
<radialGradient id="paint32_radial_4006_8284" cx="0" cy="0" r="1" gradientUnits="userSpaceOnUse" gradientTransform="translate(10.0689 1.42323) rotate(-0.558532) scale(35.0599 25.2929)">
<stop stop-color="#3AE967"/>
<stop offset="0.11" stop-color="#35DE62"/>
<stop offset="0.3" stop-color="#29BF54"/>
<stop offset="0.56" stop-color="#158E3E"/>
<stop offset="0.8" stop-color="#005926"/>
</radialGradient>
<radialGradient id="paint33_radial_4006_8284" cx="0" cy="0" r="1" gradientUnits="userSpaceOnUse" gradientTransform="translate(10.0147 1.4859) rotate(-0.558532) scale(34.9815 25.2363)">
<stop stop-color="#3CEB68"/>
<stop offset="0.11" stop-color="#37E063"/>
<stop offset="0.29" stop-color="#2BC155"/>
<stop offset="0.54" stop-color="#17903F"/>
<stop offset="0.8" stop-color="#005625"/>
</radialGradient>
<radialGradient id="paint34_radial_4006_8284" cx="0" cy="0" r="1" gradientUnits="userSpaceOnUse" gradientTransform="translate(9.95172 1.55273) rotate(-0.558532) scale(34.9005 25.1779)">
<stop stop-color="#3EEC69"/>
<stop offset="0.1" stop-color="#39E164"/>
<stop offset="0.29" stop-color="#2DC256"/>
<stop offset="0.53" stop-color="#19913F"/>
<stop offset="0.8" stop-color="#005323"/>
</radialGradient>
<radialGradient id="paint35_radial_4006_8284" cx="0" cy="0" r="1" gradientUnits="userSpaceOnUse" gradientTransform="translate(9.8894 1.15629) scale(34.8204 25.1192)">
<stop stop-color="#3FEE69"/>
<stop offset="0.1" stop-color="#3AE364"/>
<stop offset="0.28" stop-color="#2EC456"/>
<stop offset="0.52" stop-color="#1A9340"/>
<stop offset="0.8" stop-color="#005122"/>
</radialGradient>
<radialGradient id="paint36_radial_4006_8284" cx="0" cy="0" r="1" gradientUnits="userSpaceOnUse" gradientTransform="translate(10.7116 1.21198) scale(35.08 25.0607)">
<stop stop-color="#41EF6A"/>
<stop offset="0.1" stop-color="#3CE465"/>
<stop offset="0.28" stop-color="#30C557"/>
<stop offset="0.51" stop-color="#1C9441"/>
<stop offset="0.79" stop-color="#015022"/>
<stop offset="0.8" stop-color="#004E21"/>
</radialGradient>
<radialGradient id="paint37_radial_4006_8284" cx="0" cy="0" r="1" gradientUnits="userSpaceOnUse" gradientTransform="translate(10.6613 1.27202) scale(35.0035 25.0061)">
<stop stop-color="#43F16B"/>
<stop offset="0.1" stop-color="#3EE666"/>
<stop offset="0.27" stop-color="#32C758"/>
<stop offset="0.5" stop-color="#1E9642"/>
<stop offset="0.77" stop-color="#035223"/>
<stop offset="0.8" stop-color="#004B20"/>
</radialGradient>
<radialGradient id="paint38_radial_4006_8284" cx="0" cy="0" r="1" gradientUnits="userSpaceOnUse" gradientTransform="translate(10.6123 1.33575) scale(34.9243 24.9495)">
<stop stop-color="#45F26C"/>
<stop offset="0.1" stop-color="#40E767"/>
<stop offset="0.27" stop-color="#34C859"/>
<stop offset="0.49" stop-color="#209742"/>
<stop offset="0.76" stop-color="#055323"/>
<stop offset="0.8" stop-color="#00481E"/>
</radialGradient>
<radialGradient id="paint39_radial_4006_8284" cx="0" cy="0" r="1" gradientUnits="userSpaceOnUse" gradientTransform="translate(10.5609 1.40455) scale(34.8425 24.891)">
<stop stop-color="#46F46C"/>
<stop offset="0.09" stop-color="#41E967"/>
<stop offset="0.26" stop-color="#35CA59"/>
<stop offset="0.48" stop-color="#229943"/>
<stop offset="0.74" stop-color="#065524"/>
<stop offset="0.8" stop-color="#00451D"/>
</radialGradient>
<radialGradient id="paint40_radial_4006_8284" cx="0" cy="0" r="1" gradientUnits="userSpaceOnUse" gradientTransform="translate(10.5128 1.47651) scale(34.7607 24.8326)">
<stop stop-color="#48F56D"/>
<stop offset="0.09" stop-color="#43EA68"/>
<stop offset="0.25" stop-color="#37CB5A"/>
<stop offset="0.47" stop-color="#239A44"/>
<stop offset="0.73" stop-color="#085625"/>
<stop offset="0.8" stop-color="#00421C"/>
</radialGradient>
<linearGradient id="paint41_linear_4006_8284" x1="11.079" y1="19.3314" x2="8.1144" y2="-2.04799" gradientUnits="userSpaceOnUse">
<stop offset="0.1" stop-color="#FF8475"/>
<stop offset="0.37" stop-color="#E84E43"/>
<stop offset="0.6" stop-color="#D6261F"/>
<stop offset="0.79" stop-color="#CC0E08"/>
<stop offset="0.9" stop-color="#C80500"/>
</linearGradient>
<clipPath id="clip0_4006_8284">
<rect width="59" height="16" fill="white"/>
</clipPath>
</defs>
</svg>
