<svg width="45" height="16" viewBox="0 0 45 16" fill="none" xmlns="http://www.w3.org/2000/svg">
<g clip-path="url(#clip0_4006_8339)">
<path d="M28.3233 1.87402V13.8991H26.2328V3.50045H22.5008V13.8991H20.4102V1.87402H28.3233Z" fill="#464B51"/>
<path d="M31.8244 14.0721C30.9029 14.0721 30.1944 13.8933 29.6992 13.5357V11.8574C29.9641 12.0419 30.252 12.1861 30.5631 12.2899C30.8856 12.3938 31.2657 12.4457 31.7034 12.4457C32.3599 12.4457 32.8552 12.2554 33.1893 11.8747C33.5233 11.4825 33.7306 10.9461 33.8113 10.2655H30.7877V8.6392H33.794C33.5982 7.31264 32.9186 6.64939 31.7552 6.64939C31.3981 6.64939 31.0411 6.70706 30.684 6.8224C30.3384 6.93775 30.062 7.05887 29.8547 7.18576V5.43821C30.0735 5.32286 30.3672 5.22481 30.7358 5.14407C31.1045 5.06332 31.5479 5.02295 32.0663 5.02295C32.7112 5.02295 33.2757 5.1383 33.7594 5.369C34.2547 5.58816 34.6636 5.89961 34.9862 6.30333C35.3202 6.69552 35.5678 7.17422 35.729 7.73944C35.9018 8.29311 35.9882 8.89868 35.9882 9.55619C35.9882 11.0211 35.6426 12.14 34.9516 12.9129C34.272 13.6857 33.2296 14.0721 31.8244 14.0721Z" fill="#464B51"/>
<path d="M40.8746 4.05412C40.0453 4.05412 39.4175 3.84649 38.9913 3.43123C38.5767 3.01598 38.3694 2.4969 38.3694 1.87402H40.0971C40.0971 2.17393 40.1662 2.39309 40.3045 2.53151C40.4542 2.66993 40.6442 2.73914 40.8746 2.73914C41.0935 2.73914 41.2662 2.66993 41.3929 2.53151C41.5196 2.38156 41.583 2.16239 41.583 1.87402H43.3108C43.3108 2.17393 43.2589 2.45653 43.1553 2.72183C43.0516 2.98714 42.8961 3.21784 42.6887 3.41393C42.493 3.61003 42.2395 3.76575 41.9286 3.8811C41.6291 3.99645 41.2777 4.05412 40.8746 4.05412ZM39.3542 5.19608V10.5944L42.4987 5.19608H44.3302V13.8991H42.3432V8.51818L39.1987 13.8991H37.3672V5.19608H39.3542Z" fill="#464B51"/>
<path d="M16.114 8.04287C16.114 3.63247 12.5387 0.0571289 8.12832 0.0571289C3.71791 0.0571289 0.142578 3.63247 0.142578 8.04287C0.142578 12.4533 3.71791 16.0287 8.12832 16.0287C12.5387 16.0287 16.114 12.4533 16.114 8.04287Z" fill="#FC3F1D"/>
<path d="M9.25455 12.8422H10.923V3.25928H8.49619C6.05566 3.25928 4.77334 4.51402 4.77334 6.36166C4.77334 7.83701 5.47654 8.70564 6.73128 9.60192L4.55273 12.8422H6.359L8.78575 9.21585L7.94466 8.65049C6.92432 7.9611 6.42794 7.42335 6.42794 6.26513C6.42794 5.2448 7.14493 4.55538 8.50997 4.55538H9.25455V12.8422Z" fill="white"/>
</g>
<defs>
<clipPath id="clip0_4006_8339">
<rect width="45" height="16" fill="white"/>
</clipPath>
</defs>
</svg>
