<svg width="20" height="20" viewBox="0 0 20 20" fill="none" xmlns="http://www.w3.org/2000/svg">
<g clip-path="url(#clip0_187_20189)">
<path d="M16.2187 6.27609V1.84097C16.2187 0.825806 15.3929 0 14.3777 0H5.59097C4.57581 0 3.75 0.825806 3.75 1.84097V6.27594H16.2187V6.27609ZM12.5365 3.09631C12.5365 2.77283 12.7988 2.51038 13.1224 2.51038C13.446 2.51038 13.7083 2.77283 13.7083 3.09631V4.3515C13.7083 4.67514 13.446 4.93744 13.1224 4.93744C12.7988 4.93744 12.5365 4.67514 12.5365 4.3515V3.09631Z" fill="#3CB2F2"/>
<path d="M3.75 7.448V16.9036C3.75 17.9187 4.57581 18.745 5.59097 18.745H5.63278V19.4141C5.63278 19.7377 5.89508 20 6.21872 20C6.54236 20 6.80466 19.7377 6.80466 19.4141V18.745H13.1641V19.4141C13.1641 19.7377 13.4264 20 13.75 20C14.0736 20 14.3359 19.7377 14.3359 19.4141V18.745H14.3777C15.3929 18.745 16.2187 17.9187 16.2187 16.9036V7.448H3.75ZM13.7083 12.5104C13.7083 12.834 13.446 13.0963 13.1224 13.0963C12.7988 13.0963 12.5365 12.834 12.5365 12.5104V9.37244C12.5365 9.0488 12.7988 8.7865 13.1224 8.7865C13.446 8.7865 13.7083 9.0488 13.7083 9.37244V12.5104Z" fill="#3CB2F2"/>
</g>
<defs>
<clipPath id="clip0_187_20189">
<rect width="20" height="20" fill="white"/>
</clipPath>
</defs>
</svg>
