<svg width="20" height="20" viewBox="0 0 20 20" fill="none" xmlns="http://www.w3.org/2000/svg">
<g clip-path="url(#clip0_187_20154)">
<path d="M0 9.76514V10.0075C0 13.5816 2.90774 16.4893 6.48181 16.4893H8.24115V18.2412C8.24115 19.211 9.03017 20 9.99998 20C10.9698 20 11.7588 19.211 11.7588 18.2412V16.4893H13.5182C17.0922 16.4893 20 13.5816 20 10.0075V9.76514H0Z" fill="#3CB2F2"/>
<path d="M11.8357 0C10.5004 0 9.41403 1.08637 9.41403 2.42168V8.59314H10.5859V2.42168C10.5859 1.73258 11.1466 1.17196 11.8357 1.17196C12.5247 1.17196 13.0854 1.73262 13.0854 2.42168V3.90567H14.2573V2.42168C14.2574 1.08637 13.171 0 11.8357 0Z" fill="#3CB2F2"/>
<path d="M13.0855 6.24731V8.59306H14.2574V7.41927H16.2008V6.24731H13.0855Z" fill="#3CB2F2"/>
<path d="M3.79932 6.24731V7.41927H5.74264V8.59306H6.91456V6.24731H3.79932Z" fill="#3CB2F2"/>
</g>
<defs>
<clipPath id="clip0_187_20154">
<rect width="20" height="20" fill="white"/>
</clipPath>
</defs>
</svg>
