<svg width="20" height="20" viewBox="0 0 20 20" fill="none" xmlns="http://www.w3.org/2000/svg">
<path d="M2.96875 12.9298V20.0001H7.65625V18.8282H10C10 18.6818 10 12.7619 10 12.9298H8.82812V15.2735H7.65625V12.9298H2.96875Z" fill="#3CB2F2"/>
<path d="M17.0312 12.3438C17.0312 11.5948 16.1392 10.2227 15.7558 9.66708L15.2734 8.96899L14.7911 9.66708C14.4077 10.2227 13.5156 11.5948 13.5156 12.3438C13.5156 13.3131 14.3041 14.1017 15.2734 14.1017C16.2427 14.1017 17.0312 13.3131 17.0312 12.3438Z" fill="#3CB2F2"/>
<path d="M17.0312 7.03125C17.0312 3.15398 13.8773 0 10 0C6.12273 0 2.96875 3.15398 2.96875 7.03125V11.7578H6.48438V7.03125C6.48438 5.09262 8.06137 3.51562 10 3.51562C11.9386 3.51562 13.5156 5.09262 13.5156 7.03125V8.20312H17.0312V7.03125Z" fill="#3CB2F2"/>
</svg>
