<svg width="20" height="20" viewBox="0 0 20 20" fill="none" xmlns="http://www.w3.org/2000/svg">
<g clip-path="url(#clip0_187_20206)">
<path d="M16.9709 0H3.02903C2.08945 0 1.32779 0.76166 1.32779 1.70124V3.44398C1.32779 3.6273 1.47642 3.77593 1.65974 3.77593H16.4602C16.6592 3.77593 16.8328 3.92606 16.8457 4.12452C16.8597 4.34203 16.6875 4.52282 16.473 4.52282H1.65974C1.47642 4.52282 1.32779 4.67145 1.32779 4.85477V18.2988C1.32779 19.2383 2.08945 20 3.02903 20H16.9709C17.9105 20 18.6722 19.2383 18.6722 18.2988V1.70124C18.6722 0.76166 17.9105 0 16.9709 0ZM6.55601 2.6971H5.97509C5.76883 2.6971 5.60165 2.52992 5.60165 2.32365C5.60165 2.11739 5.76883 1.95021 5.97509 1.95021H6.55601C6.76227 1.95021 6.92945 2.11739 6.92945 2.32365C6.92945 2.52992 6.76227 2.6971 6.55601 2.6971ZM11.0788 2.6971H8.92115C8.71489 2.6971 8.54771 2.52992 8.54771 2.32365C8.54771 2.11739 8.71489 1.95021 8.92115 1.95021H11.0788C11.2851 1.95021 11.4523 2.11739 11.4523 2.32365C11.4523 2.52992 11.2851 2.6971 11.0788 2.6971ZM14.0249 2.6971H13.444C13.2377 2.6971 13.0705 2.52992 13.0705 2.32365C13.0705 2.11739 13.2377 1.95021 13.444 1.95021H14.0249C14.2312 1.95021 14.3983 2.11739 14.3983 2.32365C14.3983 2.52992 14.2312 2.6971 14.0249 2.6971ZM12.1187 5.83116C12.3021 5.73647 12.5273 5.8083 12.6219 5.99158L13.3609 7.42199C13.4555 7.60523 13.3837 7.8305 13.2005 7.92515C13.0168 8.01996 12.7918 7.94768 12.6973 7.76473L11.9584 6.33432C11.8637 6.15108 11.9355 5.92581 12.1187 5.83116ZM9.62655 6.34855C9.62655 6.14228 9.79372 5.9751 9.99999 5.9751C10.2063 5.9751 10.3734 6.14228 10.3734 6.34855V8.34025C10.3734 8.54651 10.2063 8.71369 9.99999 8.71369C9.79372 8.71369 9.62655 8.54651 9.62655 8.34025V6.34855ZM6.59767 7.42199L7.33659 5.99158C7.43119 5.80834 7.65642 5.73643 7.83978 5.83116C8.02302 5.92581 8.0948 6.15108 8.00016 6.33432L7.26123 7.76473C7.16659 7.94801 6.94128 8.01979 6.75804 7.92515C6.5748 7.8305 6.50302 7.60523 6.59767 7.42199ZM7.09542 17.8008C5.08202 17.8008 3.44397 16.1628 3.44397 14.1494C3.44397 12.136 5.08202 10.4979 7.09542 10.4979C9.10883 10.4979 10.7469 12.136 10.7469 14.1494C10.7469 16.1628 9.10883 17.8008 7.09542 17.8008ZM11.2004 17.5988C11.0056 17.6666 10.7928 17.5637 10.725 17.3689C10.6572 17.1741 10.7602 16.9612 10.9549 16.8934C12.1211 16.4877 12.9046 15.3849 12.9046 14.1494C12.9046 12.9139 12.1211 11.8111 10.9549 11.4054C10.7602 11.3376 10.6572 11.1247 10.725 10.9299C10.7928 10.7351 11.0054 10.6321 11.2004 10.7C12.6665 11.2101 13.6514 12.5963 13.6514 14.1494C13.6514 15.7025 12.6665 17.0887 11.2004 17.5988ZM14.105 17.5988C13.9102 17.6666 13.6973 17.5637 13.6295 17.3689C13.5617 17.1741 13.6647 16.9612 13.8595 16.8934C15.0256 16.4877 15.8091 15.3849 15.8091 14.1494C15.8091 12.9139 15.0256 11.8111 13.8595 11.4054C13.6647 11.3376 13.5617 11.1247 13.6295 10.9299C13.6973 10.7351 13.9099 10.6321 14.105 10.7C15.571 11.2101 16.556 12.5963 16.556 14.1494C16.556 15.7025 15.571 17.0887 14.105 17.5988Z" fill="#3CB2F2"/>
</g>
<defs>
<clipPath id="clip0_187_20206">
<rect width="20" height="20" fill="white"/>
</clipPath>
</defs>
</svg>
