<svg width="20" height="18" viewBox="0 0 20 18" fill="none" xmlns="http://www.w3.org/2000/svg">
<path fill-rule="evenodd" clip-rule="evenodd" d="M17.5004 4.78152C17.0336 4.78152 16.6556 4.40352 16.6556 3.93672C16.6556 3.46992 17.0336 3.09192 17.5004 3.09192C17.9668 3.09192 18.3448 3.46992 18.3448 3.93672C18.3448 4.40352 17.9668 4.78152 17.5004 4.78152ZM17.5004 7.20112C17.0336 7.20112 16.6556 6.82312 16.6556 6.35632C16.6556 5.88992 17.0336 5.51152 17.5004 5.51152C17.9668 5.51152 18.3448 5.88952 18.3448 6.35632C18.3448 6.82272 17.9668 7.20112 17.5004 7.20112ZM16.6556 11.1331C16.6556 10.6667 17.0336 10.2883 17.5004 10.2883C17.9668 10.2883 18.3448 10.6663 18.3448 11.1331C18.3448 11.5995 17.9668 11.9779 17.5004 11.9779C17.0336 11.9779 16.6556 11.5995 16.6556 11.1331ZM16.6556 13.5527C16.6556 13.0863 17.0336 12.7079 17.5004 12.7079C17.9668 12.7079 18.3448 13.0859 18.3448 13.5527C18.3448 14.0191 17.9668 14.3975 17.5004 14.3975C17.0336 14.3971 16.6556 14.0191 16.6556 13.5527ZM5.1804 9.17192C6.9312 9.17192 8.3512 10.5919 8.3512 12.3427C8.3512 14.0935 6.9312 15.5135 5.1804 15.5135C3.4296 15.5135 2.0092 14.0939 2.0092 12.3427C2.0092 10.5915 3.4292 9.17192 5.1804 9.17192ZM12.4584 9.17232C14.2096 9.17232 15.6292 10.5919 15.6292 12.3431C15.6292 14.0939 14.2096 15.5135 12.4584 15.5135C10.7076 15.5135 9.2876 14.0939 9.2876 12.3431C9.2876 10.5923 10.7076 9.17232 12.4584 9.17232ZM0 0.0847168V17.9151H19.9984C20.0008 11.9719 20.0008 6.02832 19.9984 0.0847168H0ZM9.2876 5.14632C9.2876 3.39552 10.7076 1.97552 12.4584 1.97552C14.2096 1.97552 15.6292 3.39512 15.6292 5.14632C15.6292 6.89752 14.2096 8.31752 12.4584 8.31752C10.7076 8.31752 9.2876 6.89752 9.2876 5.14632ZM5.1804 3.94432C5.8444 3.94432 6.3824 4.48272 6.3824 5.14672C6.3824 5.81072 5.844 6.34912 5.1804 6.34912C4.5164 6.34912 3.978 5.81072 3.978 5.14672C3.9776 4.48232 4.5164 3.94432 5.1804 3.94432ZM5.1804 3.11152C4.0568 3.11152 3.1456 4.02272 3.1456 5.14632C3.1456 6.26992 4.0568 7.18112 5.1804 7.18112C6.3044 7.18112 7.2152 6.26992 7.2152 5.14632C7.2152 4.02272 6.304 3.11152 5.1804 3.11152ZM11.256 5.14632C11.256 4.48232 11.7944 3.94392 12.4584 3.94392C13.1224 3.94392 13.6608 4.48232 13.6608 5.14632C13.6608 5.81032 13.1224 6.34872 12.4584 6.34872C11.7944 6.34872 11.256 5.81072 11.256 5.14632ZM12.4584 3.11152C11.3348 3.11152 10.424 4.02272 10.424 5.14632C10.424 6.26992 11.3348 7.18112 12.4584 7.18112C13.5824 7.18112 14.4932 6.26992 14.4932 5.14632C14.4932 4.02272 13.582 3.11152 12.4584 3.11152ZM11.256 12.3427C11.256 11.6783 11.7944 11.1403 12.4584 11.1403C13.1224 11.1403 13.6608 11.6787 13.6608 12.3427C13.6608 13.0067 13.1224 13.5451 12.4584 13.5451C11.7944 13.5451 11.256 13.0067 11.256 12.3427ZM12.4584 10.3083C11.3344 10.3083 10.424 11.2195 10.424 12.3431C10.424 13.4663 11.3352 14.3775 12.4584 14.3775C13.582 14.3775 14.4932 13.4663 14.4932 12.3431C14.4932 11.2195 13.5824 10.3083 12.4584 10.3083ZM5.1804 11.1403C5.8444 11.1403 6.3824 11.6787 6.3824 12.3427C6.3824 13.0067 5.844 13.5451 5.1804 13.5451C4.5164 13.5451 3.978 13.0067 3.978 12.3427C3.9776 11.6787 4.5164 11.1403 5.1804 11.1403ZM7.2148 12.3427C7.2148 11.2191 6.304 10.3079 5.18 10.3079C4.056 10.3079 3.1452 11.2191 3.1452 12.3427C3.1452 13.4663 4.0564 14.3775 5.18 14.3775C6.3036 14.3775 7.2148 13.4663 7.2148 12.3427ZM5.1804 1.97552C6.9312 1.97552 8.3512 3.39512 8.3512 5.14632C8.3512 6.89752 6.9316 8.31752 5.1804 8.31752C3.4292 8.31752 2.0092 6.89752 2.0092 5.14632C2.0092 3.39552 3.4296 1.97552 5.1804 1.97552Z" fill="#3CB2F2"/>
</svg>
