<svg width="20" height="20" viewBox="0 0 20 20" fill="none" xmlns="http://www.w3.org/2000/svg">
<path d="M7.49998 11.0418C8.07528 11.0418 8.54165 10.5755 8.54165 10.0002C8.54165 9.42487 8.07528 8.9585 7.49998 8.9585C6.92468 8.9585 6.45831 9.42487 6.45831 10.0002C6.45831 10.5755 6.92468 11.0418 7.49998 11.0418Z" fill="#3CB2F2"/>
<path d="M12.5 11.0418C13.0753 11.0418 13.5416 10.5755 13.5416 10.0002C13.5416 9.42487 13.0753 8.9585 12.5 8.9585C11.9247 8.9585 11.4583 9.42487 11.4583 10.0002C11.4583 10.5755 11.9247 11.0418 12.5 11.0418Z" fill="#3CB2F2"/>
<path fill-rule="evenodd" clip-rule="evenodd" d="M18.9583 3.33341C18.9583 2.72591 18.7167 2.14258 18.2875 1.71258C17.8575 1.28341 17.2742 1.04175 16.6667 1.04175C13.4733 1.04175 6.52666 1.04175 3.33332 1.04175C2.72582 1.04175 2.14249 1.28341 1.71249 1.71258C1.28332 2.14258 1.04166 2.72591 1.04166 3.33341V16.6667C1.04166 17.2742 1.28332 17.8576 1.71249 18.2876C2.14249 18.7167 2.72582 18.9584 3.33332 18.9584H16.6667C17.2742 18.9584 17.8575 18.7167 18.2875 18.2876C18.7167 17.8576 18.9583 17.2742 18.9583 16.6667V3.33341ZM9.99999 3.54175C6.43582 3.54175 3.54166 6.43591 3.54166 10.0001C3.54166 13.5642 6.43582 16.4584 9.99999 16.4584C13.5642 16.4584 16.4583 13.5642 16.4583 10.0001C16.4583 6.43591 13.5642 3.54175 9.99999 3.54175Z" fill="#3CB2F2"/>
<path fill-rule="evenodd" clip-rule="evenodd" d="M10.625 16.25V15C10.625 14.655 10.345 14.375 10 14.375C9.655 14.375 9.375 14.655 9.375 15V16.25C9.375 16.595 9.655 16.875 10 16.875C10.345 16.875 10.625 16.595 10.625 16.25Z" fill="#3CB2F2"/>
<path fill-rule="evenodd" clip-rule="evenodd" d="M10.625 5V3.75C10.625 3.405 10.345 3.125 10 3.125C9.655 3.125 9.375 3.405 9.375 3.75V5C9.375 5.345 9.655 5.625 10 5.625C10.345 5.625 10.625 5.345 10.625 5Z" fill="#3CB2F2"/>
</svg>
