<svg width="20" height="20" viewBox="0 0 20 20" fill="none" xmlns="http://www.w3.org/2000/svg">
<path d="M14.6875 3.98438H14.356L14.4861 3.09238C14.5376 2.73887 14.2635 2.42188 13.9062 2.42188H3.67871C3.39449 2.42188 3.16406 2.6523 3.16406 2.93652C3.16406 3.8118 3.6873 4.59199 4.49707 4.92422L5.03184 5.14359L6.00211 11.7969H9.02344V10.625H8.82812C8.50453 10.625 8.24219 10.3627 8.24219 10.0391C8.24219 9.71547 8.50453 9.45312 8.82812 9.45312H10.3906C10.7142 9.45312 10.9766 9.71547 10.9766 10.0391C10.9766 10.3627 10.7142 10.625 10.3906 10.625H10.1953V11.7969H13.2166L14.1851 5.15625H14.6875C15.226 5.15625 15.6641 5.59434 15.6641 6.13281V10.0391C15.6641 10.3627 15.9264 10.625 16.25 10.625C16.5736 10.625 16.8359 10.3627 16.8359 10.0391V6.13281C16.8359 4.94816 15.8721 3.98438 14.6875 3.98438Z" fill="#3CB2F2"/>
<path d="M9.60938 17.0703C9.93298 17.0703 10.1953 16.808 10.1953 16.4844C10.1953 16.1608 9.93298 15.8984 9.60938 15.8984C9.28577 15.8984 9.02344 16.1608 9.02344 16.4844C9.02344 16.808 9.28577 17.0703 9.60938 17.0703Z" fill="#3CB2F2"/>
<path d="M14.7611 13.948C14.667 13.3829 14.178 12.9688 13.6052 12.9688H5.61355C5.0407 12.9688 4.55179 13.3829 4.45761 13.948L3.67636 18.6355C3.5573 19.3498 4.10816 20 4.8323 20H14.3864C15.1106 20 15.6614 19.3498 15.5424 18.6355L14.7611 13.948ZM9.60937 18.2422C8.64011 18.2422 7.85156 17.4536 7.85156 16.4844C7.85156 15.5151 8.64011 14.7266 9.60937 14.7266C10.5786 14.7266 11.3672 15.5151 11.3672 16.4844C11.3672 17.4536 10.5786 18.2422 9.60937 18.2422Z" fill="#3CB2F2"/>
<path d="M12.6057 0.812109C12.4496 0.328047 11.999 0 11.4904 0H7.72833C7.21974 0 6.76919 0.328047 6.61306 0.812109L6.47177 1.25H12.747L12.6057 0.812109Z" fill="#3CB2F2"/>
</svg>
