<svg width="20" height="20" viewBox="0 0 20 20" fill="none" xmlns="http://www.w3.org/2000/svg">
<path d="M5.625 9.375V16.25H14.375V9.375H5.625ZM11.25 11.875H8.75C8.40625 11.875 8.125 11.5938 8.125 11.25C8.125 10.9062 8.40625 10.625 8.75 10.625H11.25C11.5938 10.625 11.875 10.9062 11.875 11.25C11.875 11.5938 11.5938 11.875 11.25 11.875ZM5.625 9.375V16.25H14.375V9.375H5.625ZM11.25 11.875H8.75C8.40625 11.875 8.125 11.5938 8.125 11.25C8.125 10.9062 8.40625 10.625 8.75 10.625H11.25C11.5938 10.625 11.875 10.9062 11.875 11.25C11.875 11.5938 11.5938 11.875 11.25 11.875ZM1.875 6.875V18.75C1.875 19.0938 2.15625 19.375 2.5 19.375H17.5C17.8438 19.375 18.125 19.0938 18.125 18.75V6.875H1.875ZM15.625 16.875C15.625 17.2188 15.3438 17.5 15 17.5H5C4.65625 17.5 4.375 17.2188 4.375 16.875V8.75C4.375 8.40625 4.65625 8.125 5 8.125H15C15.3438 8.125 15.625 8.40625 15.625 8.75V16.875ZM5.625 16.25H14.375V9.375H5.625V16.25ZM8.75 10.625H11.25C11.5938 10.625 11.875 10.9062 11.875 11.25C11.875 11.5938 11.5938 11.875 11.25 11.875H8.75C8.40625 11.875 8.125 11.5938 8.125 11.25C8.125 10.9062 8.40625 10.625 8.75 10.625ZM17.5 1.875H15.625V1.25C15.625 0.90625 15.3438 0.625 15 0.625C14.6562 0.625 14.375 0.90625 14.375 1.25V1.875H12.5V1.25C12.5 0.90625 12.2188 0.625 11.875 0.625C11.5312 0.625 11.25 0.90625 11.25 1.25V1.875H8.75V1.25C8.75 0.90625 8.46875 0.625 8.125 0.625C7.78125 0.625 7.5 0.90625 7.5 1.25V1.875H5.625V1.25C5.625 0.90625 5.34375 0.625 5 0.625C4.65625 0.625 4.375 0.90625 4.375 1.25V1.875H2.5C2.15625 1.875 1.875 2.15625 1.875 2.5V5.625H18.125V2.5C18.125 2.15625 17.8438 1.875 17.5 1.875ZM6.25 4.375C5.90625 4.375 5.625 4.09375 5.625 3.75C5.625 3.40625 5.90625 3.125 6.25 3.125C6.59375 3.125 6.875 3.40625 6.875 3.75C6.875 4.09375 6.59375 4.375 6.25 4.375ZM10 4.375C9.65625 4.375 9.375 4.09375 9.375 3.75C9.375 3.40625 9.65625 3.125 10 3.125C10.3438 3.125 10.625 3.40625 10.625 3.75C10.625 4.09375 10.3438 4.375 10 4.375ZM13.75 4.375C13.4062 4.375 13.125 4.09375 13.125 3.75C13.125 3.40625 13.4062 3.125 13.75 3.125C14.0938 3.125 14.375 3.40625 14.375 3.75C14.375 4.09375 14.0938 4.375 13.75 4.375Z" fill="#3CB2F2"/>
</svg>
