<svg width="20" height="20" viewBox="0 0 20 20" fill="none" xmlns="http://www.w3.org/2000/svg">
<path d="M16 0H3.14286C2.57454 0 2.02949 0.225765 1.62763 0.627628C1.22576 1.02949 1 1.57454 1 2.14286V17.8571C1 18.4255 1.22576 18.9705 1.62763 19.3724C2.02949 19.7742 2.57454 20 3.14286 20H16C16.5683 20 17.1134 19.7742 17.5152 19.3724C17.9171 18.9705 18.1429 18.4255 18.1429 17.8571V2.14286C18.1429 1.57454 17.9171 1.02949 17.5152 0.627628C17.1134 0.225765 16.5683 0 16 0ZM13.1429 2.14286C13.2841 2.14286 13.4222 2.18475 13.5397 2.26324C13.6572 2.34172 13.7487 2.45328 13.8028 2.5838C13.8568 2.71432 13.871 2.85794 13.8434 2.99649C13.8159 3.13505 13.7478 3.26232 13.6479 3.36222C13.548 3.46211 13.4208 3.53014 13.2822 3.5577C13.1436 3.58526 13 3.57112 12.8695 3.51706C12.739 3.46299 12.6274 3.37144 12.5489 3.25398C12.4705 3.13652 12.4286 2.99842 12.4286 2.85714C12.4286 2.6677 12.5038 2.48602 12.6378 2.35207C12.7717 2.21811 12.9534 2.14286 13.1429 2.14286ZM3.14286 2.85714C3.14286 2.6677 3.21811 2.48602 3.35207 2.35207C3.48602 2.21811 3.6677 2.14286 3.85714 2.14286H6C6.18944 2.14286 6.37112 2.21811 6.50508 2.35207C6.63903 2.48602 6.71429 2.6677 6.71429 2.85714C6.71429 3.04658 6.63903 3.22826 6.50508 3.36222C6.37112 3.49617 6.18944 3.57143 6 3.57143H3.85714C3.6677 3.57143 3.48602 3.49617 3.35207 3.36222C3.21811 3.22826 3.14286 3.04658 3.14286 2.85714ZM9.57143 17.8571C8.44125 17.8571 7.33645 17.522 6.39674 16.8941C5.45703 16.2662 4.72462 15.3738 4.29212 14.3296C3.85962 13.2855 3.74645 12.1365 3.96694 11.0281C4.18743 9.91959 4.73166 8.9014 5.53082 8.10225C6.32998 7.30309 7.34816 6.75886 8.45663 6.53837C9.56509 6.31788 10.714 6.43105 11.7582 6.86355C12.8023 7.29605 13.6948 8.02846 14.3227 8.96817C14.9506 9.90788 15.2857 11.0127 15.2857 12.1429C15.284 13.6579 14.6814 15.1103 13.6102 16.1816C12.5389 17.2529 11.0864 17.8554 9.57143 17.8571ZM15.2857 3.57143C15.1444 3.57143 15.0063 3.52954 14.8889 3.45105C14.7714 3.37256 14.6799 3.26101 14.6258 3.13049C14.5717 2.99997 14.5576 2.85635 14.5852 2.71779C14.6127 2.57923 14.6807 2.45196 14.7806 2.35207C14.8805 2.25217 15.0078 2.18414 15.1464 2.15658C15.2849 2.12902 15.4285 2.14317 15.5591 2.19723C15.6896 2.25129 15.8011 2.34284 15.8796 2.46031C15.9581 2.57777 16 2.71587 16 2.85714C16 3.04658 15.9247 3.22826 15.7908 3.36222C15.6568 3.49617 15.4752 3.57143 15.2857 3.57143Z" fill="#3CB2F2"/>
<path d="M9.59355 12.1429C8.92515 11.8063 8.1868 11.6321 7.43844 11.6343C6.69008 11.6365 5.95279 11.8152 5.28641 12.1558C5.28707 13.2924 5.73924 14.3822 6.54343 15.1855C6.94163 15.5832 7.41427 15.8986 7.93436 16.1137C8.45445 16.3288 9.01181 16.4393 9.57462 16.439C10.1374 16.4386 10.6947 16.3275 11.2145 16.1118C11.7343 15.8961 12.2066 15.5802 12.6043 15.182C13.0021 14.7838 13.3175 14.3111 13.5326 13.791C13.7476 13.2709 13.8582 12.7136 13.8578 12.1508C13.1955 12.4815 12.4651 12.6529 11.7248 12.6516C10.9844 12.6502 10.2547 12.476 9.59355 12.1429Z" fill="#3CB2F2"/>
</svg>
