<svg width="20" height="20" viewBox="0 0 20 20" fill="none" xmlns="http://www.w3.org/2000/svg">
<g clip-path="url(#clip0_187_20168)">
<path d="M14.225 16.0345C14.3812 15.8907 14.3906 15.647 14.25 15.4907C14.1781 15.4126 14.075 15.3657 13.9656 15.3657C13.8687 15.3657 13.7781 15.4001 13.7062 15.4657C12.725 16.3626 13.2531 17.2626 13.6 17.8563C13.975 18.5001 14.1375 18.8282 13.6906 19.2813C13.6187 19.3532 13.5781 19.4501 13.5812 19.5532C13.5812 19.6563 13.6219 19.7532 13.6969 19.8251C13.7687 19.897 13.8656 19.9345 13.9656 19.9345C14.0687 19.9345 14.1687 19.8938 14.2406 19.8188C15.1156 18.9251 14.625 18.0813 14.2656 17.4657C13.8844 16.822 13.725 16.4907 14.225 16.0345Z" fill="#3CB2F2"/>
<path d="M10.2906 16.0345C10.4469 15.8907 10.4563 15.647 10.3156 15.4907C10.2438 15.4126 10.1406 15.3657 10.0313 15.3657C9.93439 15.3657 9.84376 15.4001 9.77189 15.4657C8.79064 16.3626 9.31876 17.2626 9.66564 17.8563C10.0406 18.5001 10.2031 18.8282 9.75626 19.2813C9.68439 19.3532 9.64376 19.4501 9.64689 19.5532C9.64689 19.6563 9.68751 19.7532 9.76251 19.8251C9.83439 19.897 9.93126 19.9345 10.0313 19.9345C10.1344 19.9345 10.2344 19.8938 10.3063 19.8188C11.1813 18.9251 10.6906 18.0813 10.3313 17.4657C9.95001 16.822 9.79064 16.4907 10.2906 16.0345Z" fill="#3CB2F2"/>
<path d="M6.35936 16.0345C6.51561 15.8907 6.52499 15.647 6.38436 15.4907C6.31249 15.4126 6.20936 15.3657 6.09999 15.3657C6.00311 15.3657 5.91249 15.4001 5.84061 15.4657C4.85936 16.3626 5.38749 17.2626 5.73436 17.8563C6.10936 18.5001 6.27186 18.8282 5.82499 19.2813C5.75311 19.3532 5.71249 19.4501 5.71561 19.5532C5.71561 19.6563 5.75624 19.7532 5.83124 19.8251C5.90311 19.897 5.99999 19.9345 6.09999 19.9345C6.20311 19.9345 6.30311 19.8938 6.37499 19.8188C7.24999 18.9251 6.75936 18.0813 6.39999 17.4657C6.01874 16.822 5.85936 16.4907 6.35936 16.0345Z" fill="#3CB2F2"/>
<path d="M19.5875 11.1375H0.415625C0.184375 11.1375 0 11.3218 0 11.55V14.1312C0 14.3625 0.184375 14.5468 0.415625 14.5468H19.5844C19.8125 14.5468 19.9969 14.3625 19.9969 14.1312V11.55C20 11.3218 19.8156 11.1375 19.5875 11.1375ZM2.23125 13.5312C1.85 13.5312 1.5375 13.225 1.5375 12.8406C1.5375 12.4593 1.84687 12.1468 2.23125 12.1468C2.6125 12.1468 2.92187 12.4562 2.92187 12.8406C2.91875 13.2218 2.6125 13.5312 2.23125 13.5312ZM4.94687 13.5312C4.56562 13.5312 4.25312 13.225 4.25312 12.8406C4.25312 12.4593 4.5625 12.1468 4.94687 12.1468C5.32812 12.1468 5.64062 12.4562 5.64062 12.8406C5.6375 13.2218 5.32812 13.5312 4.94687 13.5312ZM7.65937 13.5312C7.27812 13.5312 6.96875 13.225 6.96875 12.8406C6.96875 12.4593 7.275 12.1468 7.65937 12.1468C8.04062 12.1468 8.35312 12.4562 8.35312 12.8406C8.35312 13.2218 8.04062 13.5312 7.65937 13.5312ZM18.0531 13.1625H11.825C11.65 13.1625 11.5031 13.0187 11.5031 12.8406C11.5031 12.6656 11.6469 12.5187 11.825 12.5187H18.0562C18.2312 12.5187 18.3781 12.6625 18.3781 12.8406C18.375 13.0187 18.2312 13.1625 18.0531 13.1625Z" fill="#3CB2F2"/>
<path d="M6.54376 0.0625H13.4531V1.60938H6.54376V0.0625Z" fill="#3CB2F2"/>
<path d="M13.5906 4.17188H6.40938L1.16251 10.625H18.8375L13.5906 4.17188Z" fill="#3CB2F2"/>
<path d="M6.54376 2.125H13.4531V3.65937H6.54376V2.125Z" fill="#3CB2F2"/>
</g>
<defs>
<clipPath id="clip0_187_20168">
<rect width="20" height="20" fill="white"/>
</clipPath>
</defs>
</svg>
