<svg width="20" height="20" viewBox="0 0 20 20" fill="none" xmlns="http://www.w3.org/2000/svg">
<path fill-rule="evenodd" clip-rule="evenodd" d="M2.98621 4.7618H8.2545L7.37645 3.59106H2.98621V4.7618Z" fill="#3CB2F2"/>
<path fill-rule="evenodd" clip-rule="evenodd" d="M10.0106 3.59097V2.42024H11.1813V3.59097H10.0106ZM12.352 3.59097V2.42024H13.5228V3.59097H12.352ZM9.71792 4.76171H17.035V1.24951H2.98621V2.42024H7.96182L9.71792 4.76171ZM14.6935 3.59097V2.42024H15.8642V3.59097H14.6935Z" fill="#3CB2F2"/>
<path fill-rule="evenodd" clip-rule="evenodd" d="M4.7423 12.3714C4.7423 9.46645 7.10566 7.10309 10.0106 7.10309C12.9155 7.10309 15.2789 9.46645 15.2789 12.3714C15.2789 15.2763 12.9155 17.6397 10.0106 17.6397C7.10567 17.6397 4.7423 15.2763 4.7423 12.3714ZM17.035 18.8104V5.93237H2.98621V18.8104H17.035Z" fill="#3CB2F2"/>
<path fill-rule="evenodd" clip-rule="evenodd" d="M10.0106 15.2983C8.39674 15.2983 7.08376 13.9853 7.08376 12.3715C7.08376 10.7576 8.39673 9.44466 10.0106 9.44466C11.424 9.44466 12.6067 10.4518 12.8786 11.7861H14.0665C13.7816 9.803 12.0713 8.27393 10.0106 8.27393C7.75118 8.27393 5.91302 10.1121 5.91302 12.3715C5.91302 14.6309 7.75119 16.469 10.0106 16.469C12.0713 16.469 13.7816 14.94 14.0665 12.9568H12.8786C12.6067 14.2912 11.424 15.2983 10.0106 15.2983Z" fill="#3CB2F2"/>
<path d="M10.0106 14.1274C10.9805 14.1274 11.7667 13.3412 11.7667 12.3713C11.7667 11.4015 10.9805 10.6152 10.0106 10.6152C9.04075 10.6152 8.25452 11.4015 8.25452 12.3713C8.25452 13.3412 9.04075 14.1274 10.0106 14.1274Z" fill="#3CB2F2"/>
</svg>
