<svg width="20" height="21" viewBox="0 0 20 21" fill="none" xmlns="http://www.w3.org/2000/svg">
<g id="fi-rr-menu-dots-vertical" clip-path="url(#clip0_190_12624)">
<path id="Vector" d="M10.0001 3.83333C10.9205 3.83333 11.6667 3.08714 11.6667 2.16667C11.6667 1.24619 10.9205 0.5 10.0001 0.5C9.0796 0.5 8.3334 1.24619 8.3334 2.16667C8.3334 3.08714 9.0796 3.83333 10.0001 3.83333Z" fill="#001B2B"/>
<path id="Vector_2" d="M10.0001 12.1668C10.9205 12.1668 11.6667 11.4206 11.6667 10.5002C11.6667 9.57969 10.9205 8.8335 10.0001 8.8335C9.0796 8.8335 8.3334 9.57969 8.3334 10.5002C8.3334 11.4206 9.0796 12.1668 10.0001 12.1668Z" fill="#001B2B"/>
<path id="Vector_3" d="M10.0001 20.4999C10.9205 20.4999 11.6667 19.7537 11.6667 18.8332C11.6667 17.9127 10.9205 17.1665 10.0001 17.1665C9.0796 17.1665 8.3334 17.9127 8.3334 18.8332C8.3334 19.7537 9.0796 20.4999 10.0001 20.4999Z" fill="#001B2B"/>
</g>
<defs>
<clipPath id="clip0_190_12624">
<rect width="20" height="20" fill="white" transform="translate(0 0.5)"/>
</clipPath>
</defs>
</svg>
