<svg width="70" height="70" viewBox="0 0 70 70" fill="none" xmlns="http://www.w3.org/2000/svg">
<g id="fi_4206919" clip-path="url(#clip0_137_8523)">
<path id="Vector" d="M24.902 38.2236C24.4229 37.5036 23.8037 36.8875 23.0815 36.4118C22.3592 35.9361 21.5486 35.6106 20.698 35.4546C19.8473 35.2987 18.974 35.3156 18.13 35.5042C17.2859 35.6928 16.4885 36.0493 15.7851 36.5525C14.9725 37.1328 14.3076 37.8958 13.8438 38.7801L12.5781 36.7229V19.6875C12.5781 18.0921 11.9443 16.562 10.8162 15.4338C9.68804 14.3057 8.15794 13.6719 6.5625 13.6719C4.96706 13.6719 3.43696 14.3057 2.30881 15.4338C1.18066 16.562 0.546875 18.0921 0.546875 19.6875V52.8498C0.548428 53.6937 0.82727 54.5137 1.34049 55.1836L11.1682 67.9594C11.5271 68.4227 11.9869 68.798 12.5126 69.0568C13.0383 69.3157 13.6162 69.4512 14.2022 69.4531H29.5312C30.5462 69.4519 31.5191 69.0482 32.2368 68.3305C32.9544 67.6129 33.3581 66.6399 33.3594 65.625V52.0685C33.3601 51.3126 33.1363 50.5735 32.7164 49.9451L24.902 38.2236ZM30.0781 65.625C30.078 65.77 30.0204 65.9091 29.9178 66.0116C29.8153 66.1141 29.6763 66.1718 29.5312 66.1719H14.2022C14.1183 66.1721 14.0355 66.153 13.9603 66.1159C13.8851 66.0789 13.8194 66.0249 13.7685 65.9583L3.94187 53.1841C3.86852 53.0881 3.82858 52.9707 3.82812 52.8498V19.6875C3.82812 18.9623 4.11621 18.2668 4.629 17.754C5.1418 17.2412 5.8373 16.9531 6.5625 16.9531C7.2877 16.9531 7.9832 17.2412 8.496 17.754C9.00879 18.2668 9.29688 18.9623 9.29688 19.6875V37.1875C9.29687 37.4911 9.38118 37.7888 9.54041 38.0473L18.2904 52.2661C18.5178 52.635 18.8819 52.8989 19.3032 53.0003C19.7245 53.1017 20.1688 53.0323 20.5391 52.8072C20.9094 52.5821 21.1756 52.2197 21.2796 51.799C21.3836 51.3783 21.317 50.9336 21.0942 50.5619L16.8164 43.4322C16.391 42.7226 16.26 41.8747 16.4514 41.0697C16.6427 40.2648 17.1412 39.5665 17.8403 39.1241C18.5395 38.6817 19.384 38.5303 20.1933 38.7021C21.0027 38.8739 21.7128 39.3554 22.1719 40.0436L29.9868 51.7657C30.0465 51.8553 30.0783 51.9607 30.0781 52.0685L30.0781 65.625Z" fill="#001B2B"/>
<path id="Vector_2" d="M63.4375 13.6719C61.8426 13.6737 60.3136 14.308 59.1858 15.4358C58.058 16.5636 57.4237 18.0926 57.4219 19.6875V36.7229L56.1562 38.7801C55.6924 37.8959 55.0277 37.1329 54.2154 36.5525C53.512 36.0493 52.7145 35.6927 51.8705 35.5041C51.0264 35.3155 50.153 35.2986 49.3023 35.4545C48.4516 35.6105 47.641 35.936 46.9187 36.4117C46.1964 36.8874 45.5772 37.5036 45.098 38.2236L37.2842 49.9445C36.8639 50.5731 36.6399 51.3124 36.6406 52.0685V65.625C36.6419 66.6399 37.0456 67.6129 37.7632 68.3305C38.4809 69.0482 39.4538 69.4519 40.4688 69.4531H55.7978C56.3839 69.4512 56.9619 69.3156 57.4877 69.0566C58.0136 68.7977 58.4734 68.4222 58.8323 67.9588L68.66 55.1826C69.173 54.513 69.4517 53.6933 69.4531 52.8498V19.6875C69.4513 18.0926 68.817 16.5636 67.6892 15.4358C66.5614 14.308 65.0324 13.6737 63.4375 13.6719ZM66.1719 52.8498C66.1715 52.9703 66.1318 53.0873 66.0587 53.1831L56.232 65.9577C56.181 66.0245 56.1153 66.0786 56.04 66.1157C55.9647 66.1529 55.8818 66.1721 55.7978 66.1719H40.4688C40.3237 66.1718 40.1847 66.1141 40.0822 66.0116C39.9796 65.9091 39.922 65.77 39.9219 65.625V52.0685C39.9217 51.9605 39.9537 51.8549 40.0138 51.7651L47.8281 40.0436C48.2873 39.3555 48.9974 38.8741 49.8067 38.7024C50.616 38.5306 51.4603 38.6821 52.1595 39.1245C52.8586 39.5668 53.3571 40.265 53.5484 41.0699C53.7398 41.8748 53.6088 42.7226 53.1836 43.4322L48.9058 50.5619C48.683 50.9336 48.6164 51.3783 48.7204 51.799C48.8244 52.2197 49.0906 52.5821 49.4609 52.8072C49.8312 53.0323 50.2755 53.1017 50.6968 53.0003C51.1181 52.8989 51.4822 52.6349 51.7096 52.266L60.4596 38.0473C60.6188 37.7888 60.7031 37.4911 60.7031 37.1875V19.6875C60.7031 18.9623 60.9912 18.2668 61.504 17.754C62.0168 17.2412 62.7123 16.9531 63.4375 16.9531C64.1627 16.9531 64.8582 17.2412 65.371 17.754C65.8838 18.2668 66.1719 18.9623 66.1719 19.6875V52.8498Z" fill="#001B2B"/>
<path id="Vector_3" d="M51.5697 8.18177C45.7829 7.73754 40.3491 5.22666 36.2604 1.10764C36.1013 0.931124 35.9069 0.789994 35.6897 0.693393C35.4726 0.596792 35.2376 0.546875 35 0.546875C34.7624 0.546875 34.5274 0.596792 34.3103 0.693393C34.0931 0.789994 33.8987 0.931124 33.7396 1.10764C33.6894 1.16852 28.5828 7.16653 18.4303 8.18177C18.0255 8.22234 17.6502 8.41186 17.3773 8.71353C17.1043 9.01521 16.9531 9.40754 16.9531 9.81437C16.9531 10.0349 17.1545 31.9105 34.5776 36.5557C34.8543 36.6298 35.1457 36.6298 35.4224 36.5557C52.8455 31.9105 53.0469 10.0349 53.0469 9.81437C53.0469 9.40754 52.8957 9.01521 52.6227 8.71353C52.3498 8.41186 51.9745 8.22234 51.5697 8.18177ZM41.9363 12.7356L35.3738 25.8606C35.2452 26.1176 35.0514 26.3362 34.8117 26.4947C34.5721 26.6533 34.295 26.7461 34.0082 26.7639C33.7215 26.7818 33.435 26.724 33.1776 26.5964C32.9201 26.4688 32.7007 26.2759 32.5412 26.0369L28.1662 19.4744C27.9281 19.1123 27.8429 18.6708 27.9292 18.2461C28.0155 17.8215 28.2664 17.4482 28.6269 17.2078C28.9875 16.9675 29.4285 16.8795 29.8537 16.9632C30.2788 17.0468 30.6537 17.2953 30.8963 17.6543L33.7033 21.8643L39.0012 11.268C39.1958 10.8788 39.537 10.5828 39.9499 10.4452C40.3627 10.3076 40.8133 10.3396 41.2026 10.5342C41.5918 10.7288 41.8878 11.0701 42.0254 11.483C42.163 11.8958 42.131 12.3464 41.9363 12.7356Z" fill="#3CB2F2"/>
</g>
<defs>
<clipPath id="clip0_137_8523">
<rect width="70" height="70" fill="white"/>
</clipPath>
</defs>
</svg>
