<svg width="70" height="70" viewBox="0 0 70 70" fill="none" xmlns="http://www.w3.org/2000/svg">
<g id="fi_4984586" clip-path="url(#clip0_137_8504)">
<path id="Vector" d="M67.8125 36.6406H48.125C47.6899 36.6406 47.2726 36.8135 46.9649 37.1212C46.6573 37.4288 46.4844 37.8461 46.4844 38.2812V57.9688C46.4844 58.4039 46.6573 58.8212 46.9649 59.1288C47.2726 59.4365 47.6899 59.6094 48.125 59.6094H67.8125C68.2476 59.6094 68.6649 59.4365 68.9726 59.1288C69.2802 58.8212 69.4531 58.4039 69.4531 57.9688V38.2812C69.4531 37.8461 69.2802 37.4288 68.9726 37.1212C68.6649 36.8135 68.2476 36.6406 67.8125 36.6406ZM64.5312 56.3281H57.9688C57.5336 56.3281 57.1163 56.1553 56.8087 55.8476C56.501 55.5399 56.3281 55.1226 56.3281 54.6875C56.3281 54.2524 56.501 53.8351 56.8087 53.5274C57.1163 53.2197 57.5336 53.0469 57.9688 53.0469H64.5312C64.9664 53.0469 65.3837 53.2197 65.6913 53.5274C65.999 53.8351 66.1719 54.2524 66.1719 54.6875C66.1719 55.1226 65.999 55.5399 65.6913 55.8476C65.3837 56.1553 64.9664 56.3281 64.5312 56.3281ZM64.5312 50.8594H57.9688C57.5336 50.8594 57.1163 50.6865 56.8087 50.3788C56.501 50.0712 56.3281 49.6539 56.3281 49.2188C56.3281 48.7836 56.501 48.3663 56.8087 48.0587C57.1163 47.751 57.5336 47.5781 57.9688 47.5781H64.5312C64.9664 47.5781 65.3837 47.751 65.6913 48.0587C65.999 48.3663 66.1719 48.7836 66.1719 49.2188C66.1719 49.6539 65.999 50.0712 65.6913 50.3788C65.3837 50.6865 64.9664 50.8594 64.5312 50.8594Z" fill="#3CB2F2"/>
<path id="Vector_2" d="M65.6912 63.3712C65.5389 63.2188 65.3581 63.0979 65.159 63.0155C64.96 62.933 64.7467 62.8905 64.5312 62.8905H47.2758C46.9998 62.1118 46.5322 61.415 45.916 60.8647C45.2998 60.3143 44.5549 59.928 43.75 59.7415V38.2812C43.75 37.9079 43.6227 37.5458 43.3891 37.2547C43.1554 36.9635 42.8295 36.7608 42.465 36.68L37.5432 35.5858C37.3327 35.5385 37.1149 35.5332 36.9024 35.5702C36.6898 35.6072 36.4867 35.6858 36.3045 35.8014C36.1224 35.9171 35.9648 36.0675 35.8409 36.2441C35.717 36.4207 35.6291 36.62 35.5824 36.8306C35.5356 37.0412 35.5308 37.259 35.5683 37.4715C35.6058 37.6839 35.6849 37.8869 35.8009 38.0688C35.917 38.2506 36.0678 38.4078 36.2447 38.5313C36.4216 38.6548 36.6211 38.7422 36.8318 38.7885L40.4687 39.5971V60.1453C39.7474 60.5021 39.1249 61.0307 38.656 61.6847C38.1871 62.3387 37.8862 63.0979 37.7798 63.8956C37.6734 64.6932 37.7647 65.5048 38.0457 66.2589C38.3268 67.0129 38.7889 67.6863 39.3914 68.2197C39.9939 68.7531 40.7183 69.1302 41.5009 69.3178C42.2834 69.5054 43.1001 69.4977 43.8789 69.2954C44.6578 69.0931 45.375 68.7024 45.9673 68.1577C46.5597 67.613 47.009 66.931 47.2758 66.1718H63.8519L66.6525 68.9724C66.9601 69.2801 67.3774 69.4529 67.8125 69.4529C68.2476 69.4529 68.6648 69.2801 68.9725 68.9724C69.2801 68.6648 69.4529 68.2475 69.4529 67.8125C69.4529 67.3774 69.2801 66.9601 68.9725 66.6525L65.6912 63.3712ZM42.6562 66.1718C42.3317 66.1718 42.0145 66.0756 41.7447 65.8953C41.4749 65.715 41.2647 65.4588 41.1405 65.159C41.0163 64.8592 40.9838 64.5293 41.0471 64.2111C41.1104 63.8928 41.2667 63.6005 41.4961 63.3711C41.7256 63.1416 42.0179 62.9854 42.3362 62.9221C42.6544 62.8588 42.9843 62.8912 43.2841 63.0154C43.5839 63.1396 43.8401 63.3499 44.0204 63.6197C44.2006 63.8895 44.2969 64.2067 44.2969 64.5312C44.2964 64.9661 44.1234 65.3832 43.8158 65.6907C43.5082 65.9983 43.0912 66.1713 42.6562 66.1718Z" fill="#3CB2F2"/>
<path id="Vector_3" d="M68.5062 16.0132L35.6937 0.700684C35.4765 0.599375 35.2397 0.546875 35 0.546875C34.7603 0.546875 34.5235 0.599375 34.3063 0.700684L1.49376 16.0132C1.21078 16.1452 0.971361 16.3552 0.803629 16.6186C0.635898 16.882 0.546825 17.1878 0.546875 17.5V67.8125C0.546898 68.2476 0.719757 68.6649 1.02743 68.9726C1.3351 69.2803 1.75239 69.4531 2.1875 69.4531H35C35.4351 69.4531 35.8524 69.2803 36.1601 68.9726C36.4678 68.6649 36.6406 68.2476 36.6406 67.8125C36.6406 67.3774 36.4678 66.9601 36.1601 66.6524C35.8524 66.3447 35.4351 66.1719 35 66.1719H34.4531V51.4063C34.4517 50.1013 33.9327 48.8503 33.01 47.9275C32.0872 47.0048 30.8362 46.4858 29.5312 46.4844H28.9844V38.2813C28.983 36.9763 28.4639 35.7253 27.5412 34.8025C26.6185 33.8798 25.3674 33.3608 24.0625 33.3594H12.5781V27.3438C12.5786 26.9088 12.7516 26.4918 13.0592 26.1842C13.3668 25.8766 13.7838 25.7036 14.2188 25.7031H55.7812C56.2162 25.7036 56.6332 25.8766 56.9408 26.1842C57.2484 26.4918 57.4214 26.9088 57.4219 27.3438V32.8125C57.4219 33.2476 57.5947 33.6649 57.9024 33.9726C58.2101 34.2803 58.6274 34.4531 59.0625 34.4531C59.4976 34.4531 59.9149 34.2803 60.2226 33.9726C60.5303 33.6649 60.7031 33.2476 60.7031 32.8125V27.3438C60.7017 26.0388 60.1827 24.7878 59.26 23.865C58.3372 22.9423 57.0862 22.4233 55.7812 22.4219H14.2188C12.9138 22.4233 11.6628 22.9423 10.74 23.865C9.81731 24.7878 9.2983 26.0388 9.29688 27.3438V66.1719H3.82812V18.5446L35 3.99796L66.1719 18.5446V32.8125C66.1719 33.2476 66.3447 33.6649 66.6524 33.9726C66.9601 34.2803 67.3774 34.4531 67.8125 34.4531C68.2476 34.4531 68.6649 34.2803 68.9726 33.9726C69.2803 33.6649 69.4531 33.2476 69.4531 32.8125V17.5C69.4532 17.1878 69.3641 16.882 69.1964 16.6186C69.0286 16.3552 68.7892 16.1452 68.5062 16.0132ZM24.0625 36.6406C24.4975 36.6411 24.9145 36.8141 25.2221 37.1217C25.5296 37.4293 25.7027 37.8463 25.7031 38.2813V46.4844H12.5781V36.6406H24.0625ZM12.5781 49.7656H29.5312C29.9662 49.7661 30.3832 49.9391 30.6908 50.2467C30.9984 50.5543 31.1714 50.9713 31.1719 51.4063V66.1719H12.5781V49.7656Z" fill="#001B2B"/>
<path id="Vector_4" d="M30.625 11.4844C30.1899 11.4844 29.7726 11.6572 29.4649 11.9649C29.1572 12.2726 28.9844 12.6899 28.9844 13.125C28.9844 13.5601 29.1572 13.9774 29.4649 14.2851C29.7726 14.5928 30.1899 14.7656 30.625 14.7656H39.375C39.8101 14.7656 40.2274 14.5928 40.5351 14.2851C40.8428 13.9774 41.0156 13.5601 41.0156 13.125C41.0156 12.6899 40.8428 12.2726 40.5351 11.9649C40.2274 11.6572 39.8101 11.4844 39.375 11.4844H30.625Z" fill="#001B2B"/>
<path id="Vector_5" d="M25.1562 60.7031H21.875C21.4399 60.7031 21.0226 60.876 20.7149 61.1837C20.4072 61.4913 20.2344 61.9086 20.2344 62.3438C20.2344 62.7789 20.4072 63.1962 20.7149 63.5038C21.0226 63.8115 21.4399 63.9844 21.875 63.9844H25.1562C25.5914 63.9844 26.0087 63.8115 26.3163 63.5038C26.624 63.1962 26.7969 62.7789 26.7969 62.3438C26.7969 61.9086 26.624 61.4913 26.3163 61.1837C26.0087 60.876 25.5914 60.7031 25.1562 60.7031Z" fill="#001B2B"/>
<path id="Vector_6" d="M25.1562 55.2344H21.875C21.4399 55.2344 21.0226 55.4072 20.7149 55.7149C20.4072 56.0226 20.2344 56.4399 20.2344 56.875C20.2344 57.3101 20.4072 57.7274 20.7149 58.0351C21.0226 58.3428 21.4399 58.5156 21.875 58.5156H25.1562C25.5914 58.5156 26.0087 58.3428 26.3163 58.0351C26.624 57.7274 26.7969 57.3101 26.7969 56.875C26.7969 56.4399 26.624 56.0226 26.3163 55.7149C26.0087 55.4072 25.5914 55.2344 25.1562 55.2344Z" fill="#001B2B"/>
</g>
<defs>
<clipPath id="clip0_137_8504">
<rect width="70" height="70" fill="white"/>
</clipPath>
</defs>
</svg>
