<svg width="94" height="30" viewBox="0 0 94 30" fill="none" xmlns="http://www.w3.org/2000/svg">
<g clip-path="url(#clip0_137_8941)">
<mask id="mask0_137_8941" style="mask-type:luminance" maskUnits="userSpaceOnUse" x="0" y="0" width="94" height="30">
<path d="M0.0357056 0H93.7857V30H0.0357056V0Z" fill="white"/>
</mask>
<g mask="url(#mask0_137_8941)">
<path fill-rule="evenodd" clip-rule="evenodd" d="M18.4295 5.9675V19.6737C18.4295 19.6737 18.4295 24.2812 13.8313 24.2812V17.4237H4.63446V19.6875H11.5251C11.5251 19.6875 11.5251 24.2581 6.91258 24.2581H0.0357056V17.3863C0.0357056 12.8156 4.63446 12.8156 4.63446 12.8156H11.5251C13.822 12.8156 13.817 10.5562 13.817 10.5562H0.0357056C0.0357056 10.5562 0.0357056 5.9675 4.63446 5.9675H18.4295ZM29.6232 17.03H34.3107L32.042 10.4675H31.9901L29.6463 17.03H29.6232ZM30.0026 6.05187H34.062L40.817 23.9487H36.687L35.3276 19.9644H28.592L27.1857 23.9487H23.1688L30.0026 6.05187ZM45.3357 18.0094C45.3357 20.3906 47.2107 21.3194 49.3201 21.3194C50.7263 21.3194 52.8263 20.9156 52.8263 19.0875C52.8263 17.1563 50.1263 16.8331 47.4776 16.13C44.8295 15.4269 42.1107 14.4 42.1107 11.0394C42.1107 7.37813 45.5888 5.625 48.842 5.625C52.592 5.625 56.0557 7.25625 56.0557 11.3906H52.222C52.0945 9.23438 50.5576 8.68125 48.6638 8.68125C47.4026 8.68125 45.9401 9.20625 45.9401 10.7106C45.9401 12.0894 46.7982 12.2669 51.3126 13.42C52.6251 13.7481 56.6607 14.5731 56.6607 18.6325C56.6607 21.9137 54.0638 24.375 49.1607 24.375C45.1763 24.375 41.4451 22.4206 41.492 18.0094H45.3357ZM59.7076 6.05187H63.6638V13.4719L70.6995 6.05187H75.6451L68.6088 13.1206L76.3245 23.9487H71.3563L65.937 15.905L63.6638 18.1831V23.9487H59.7076V6.05187ZM84.9357 21.0656C88.4938 21.0656 89.8288 18.0563 89.8288 15.075C89.8288 11.9438 88.4938 8.93438 84.9357 8.93438C81.3782 8.93438 80.042 11.9438 80.042 15.075C80.042 18.0563 81.3782 21.0656 84.9357 21.0656ZM84.9357 5.625C90.5045 5.625 93.7857 9.75938 93.7857 15.075C93.7857 20.2313 90.5045 24.375 84.9357 24.375C79.367 24.375 76.0857 20.2406 76.0857 15.075C76.0857 9.75938 79.367 5.625 84.9357 5.625Z" fill="#001B2B"/>
</g>
</g>
<defs>
<clipPath id="clip0_137_8941">
<rect width="93.75" height="30" fill="white" transform="translate(0.0357056)"/>
</clipPath>
</defs>
</svg>
