<svg width="95" height="30" viewBox="0 0 95 30" fill="none" xmlns="http://www.w3.org/2000/svg">
<g clip-path="url(#clip0_137_8930)">
<path fill-rule="evenodd" clip-rule="evenodd" d="M9.10543 19.2479C9.00164 21.585 7.02284 23.3947 4.68579 23.2909C2.49522 23.1938 0.740758 21.4393 0.642822 19.2479C0.746617 16.9109 2.72541 15.1011 5.06247 15.2049C7.25387 15.3029 9.00834 17.0565 9.10543 19.2479Z" fill="#001B2B"/>
<path fill-rule="evenodd" clip-rule="evenodd" d="M90.375 7.81375H90.4252V5.96386H93.7399V17.7496C93.7399 19.9008 93.5641 23.475 87.0435 23.475C84.3147 23.475 81.4436 22.3785 81.2929 19.7334H85.0597C85.2103 20.3696 85.4866 20.9973 87.4955 20.9973C89.3546 20.9973 90.2494 20.1603 90.2494 18.143V16.653L90.2076 16.6028C89.512 17.8735 88.1258 18.6076 86.6836 18.4694C83.5111 18.4694 81 16.3936 81 12.0409C81 7.68819 83.5948 5.63741 86.4994 5.63741C88.1132 5.51018 89.6434 6.36983 90.375 7.81375ZM73.5251 6.05594C76.1375 6.05594 79.7285 7.31152 79.7285 13.1709V13.7736H70.6791C70.7712 14.7446 70.9721 16.9376 73.7762 16.9376C74.7346 16.9929 75.6194 16.4295 75.9776 15.5398H79.577C78.8487 18.1053 76.4389 19.823 73.7762 19.6748C70.0597 19.6748 67.2053 17.9254 67.2053 12.6017C67.2053 11.0448 67.7494 6.05594 73.5251 6.05594ZM87.3197 8.43317C86.0307 8.43317 84.5909 9.32045 84.5909 12.225C84.5909 13.8071 85.2857 15.6821 87.3448 15.6821C89.697 15.6821 90.2996 13.7903 90.2996 12.0827C90.2996 10.0738 89.2533 8.43317 87.3197 8.43317ZM73.4665 8.8517C71.7924 8.8517 70.9553 9.8729 70.7628 11.5805H76.1618C75.9776 9.48786 74.5965 8.8517 73.4665 8.8517Z" fill="#001B2B"/>
<path fill-rule="evenodd" clip-rule="evenodd" d="M66.1004 19.3401H62.6266V11.4969C62.6266 9.58003 61.7896 8.94386 60.7349 8.94386C59.0022 8.92712 58.3995 10.0488 58.3995 11.5806V19.3401H54.909V11.5555C54.909 10.4589 54.909 8.92712 52.8247 8.92712C51.1506 8.92712 50.6651 10.0488 50.6651 11.4383V19.3233H47.1913V6.39922H50.5396V8.29933H50.5898C51.2686 6.87132 52.7352 5.98739 54.3147 6.05603C55.8482 5.94386 57.2979 6.77087 57.981 8.14866C58.71 6.88388 60.046 6.09119 61.505 6.05603C64.0831 6.05603 66.0929 7.54598 66.0929 10.3836V19.3401H66.1004Z" fill="#001B2B"/>
<path fill-rule="evenodd" clip-rule="evenodd" d="M42.8052 10.3416C42.6546 9.50457 42.3616 8.66752 40.4698 8.66752C38.5781 8.66752 38.3103 9.33716 38.3103 9.89798C38.3103 11.9404 46.5636 10.4588 46.5636 15.23C46.5636 18.9968 42.8471 19.6748 40.7879 19.6748C37.7829 19.6748 34.5351 18.6536 34.4347 15.2049H38.0089C38.0089 16.2931 38.7037 17.0966 40.8884 17.0966C42.6713 17.0966 43.0898 16.2596 43.0898 15.7657C43.0898 13.5978 34.9118 15.23 34.9118 10.3835C34.962 8.49173 36.159 6.05591 40.2773 6.05591C42.8555 6.05591 45.9274 6.69207 46.2037 10.3416H42.8052Z" fill="#001B2B"/>
<path fill-rule="evenodd" clip-rule="evenodd" d="M17.5598 19.2478C17.5598 21.5824 15.6672 23.475 13.3327 23.475C10.9981 23.475 9.10553 21.5824 9.10553 19.2478C9.10553 16.9133 10.9981 15.0207 13.3327 15.0207C15.6438 14.9973 17.5363 16.853 17.5598 19.1633C17.5598 19.1918 17.5598 19.2202 17.5598 19.2478Z" fill="#001B2B"/>
<path fill-rule="evenodd" clip-rule="evenodd" d="M17.5598 10.7855C17.5598 13.12 15.6672 15.0126 13.3327 15.0126C10.9981 15.0126 9.10553 13.12 9.10553 10.7855C9.10553 8.45093 10.9981 6.55835 13.3327 6.55835C15.6655 6.56337 17.5556 8.4526 17.5598 10.7855ZM26.0224 19.2481C26.0274 21.5876 24.134 23.4869 21.7953 23.492C19.4565 23.4961 17.5564 21.6036 17.5514 19.2648C17.5464 16.9253 19.4398 15.0251 21.7785 15.021H21.7953C24.1064 14.9975 25.9998 16.8533 26.0224 19.1635C26.0224 19.1912 26.0224 19.2205 26.0224 19.2481Z" fill="#001B2B"/>
<path fill-rule="evenodd" clip-rule="evenodd" d="M26.0222 10.7856C26.0222 13.1218 24.1313 15.016 21.7951 15.0211C19.4564 15.0252 17.5562 13.1335 17.5512 10.7939C17.547 8.45436 19.4396 6.55425 21.7783 6.55006C24.1179 6.54588 26.018 8.43762 26.0222 10.7772V10.7856Z" fill="#001B2B"/>
<path fill-rule="evenodd" clip-rule="evenodd" d="M34.4852 10.7856C34.6191 13.1209 32.8345 15.1232 30.4991 15.2571C28.1637 15.391 26.1623 13.6064 26.0276 11.2711C26.0217 11.1539 26.0192 11.0367 26.0226 10.9195V10.7856C26.1264 8.44851 28.1051 6.63797 30.4422 6.7426C32.6336 6.8397 34.3872 8.59416 34.4852 10.7856Z" fill="#001B2B"/>
</g>
<defs>
<clipPath id="clip0_137_8930">
<rect width="93.75" height="30" fill="white" transform="translate(0.642822)"/>
</clipPath>
</defs>
</svg>
