<svg width="144" height="27" viewBox="0 0 144 27" fill="none" xmlns="http://www.w3.org/2000/svg">
<g id="Group 1321314514">
<g id="&#208;&#178;&#209;&#128;&#208;&#190;&#208;&#188;&#208;&#190;&#208;&#185;&#208;&#186;&#208;&#176;">
<g id="Vector">
<path d="M135.71 22.135C133.058 22.135 131.368 20.653 131.368 18.443C131.368 15.583 133.396 14.673 136.828 14.075C139.012 13.685 140.416 13.529 140.416 11.943C140.416 10.591 139.532 9.68103 137.4 9.68103C134.826 9.68103 133.916 10.591 133.786 12.541H131.992C132.122 10.201 133.604 8.19903 137.452 8.19903C139.896 8.19903 142.054 9.23903 142.054 12.411V19.041C142.054 20.107 142.21 20.601 142.808 20.601C142.912 20.601 143.016 20.601 143.172 20.575V21.797C142.886 21.849 142.6 21.901 142.288 21.901C141.17 21.901 140.52 21.459 140.416 19.795H140.364C139.454 21.303 137.868 22.135 135.71 22.135ZM135.918 20.653C138.622 20.653 140.416 19.223 140.416 16.831V14.361C140.026 14.907 138.622 15.219 137.036 15.479C134.462 15.947 133.136 16.597 133.136 18.287C133.136 19.821 133.994 20.653 135.918 20.653Z" fill="#001B2B"/>
<path d="M130.813 8.53703L125.717 15.219L130.969 21.797H128.811L124.209 15.999H122.233V21.797H120.543V8.53703H122.233V14.517H124.287L128.837 8.53703H130.813Z" fill="#001B2B"/>
<path d="M111.868 6.50903C110.022 6.50903 108.722 5.36503 108.644 3.20703H109.944C110.074 4.50703 110.672 5.23503 111.868 5.23503C113.064 5.23503 113.662 4.50703 113.766 3.20703H115.092C114.988 5.31303 113.74 6.50903 111.868 6.50903ZM107.786 21.797H106.096V8.53703H107.786V19.353L115.742 8.53703H117.432V21.797H115.742V10.981L107.786 21.797Z" fill="#001B2B"/>
<path d="M97.3412 22.161C93.3632 22.161 90.9712 19.301 90.9712 15.193C90.9712 11.059 93.3632 8.19903 97.3412 8.19903C101.319 8.19903 103.711 11.059 103.711 15.193C103.711 19.301 101.319 22.161 97.3412 22.161ZM97.3412 20.679C100.435 20.679 101.943 18.235 101.943 15.193C101.943 12.125 100.435 9.68103 97.3412 9.68103C94.2472 9.68103 92.7392 12.125 92.7392 15.193C92.7392 18.235 94.2472 20.679 97.3412 20.679Z" fill="#001B2B"/>
<path d="M76.3013 21.797H74.6113V8.53703H76.8213L81.6053 19.379H81.6573L86.4413 8.53703H88.5733V21.797H86.8833V11.423H86.8313L82.2813 21.771H80.8513L76.3533 11.423H76.3013V21.797Z" fill="#001B2B"/>
</g>
<g id="Vector_2">
<path d="M65.334 22.239C60.94 22.239 58.262 19.379 58.262 15.167C58.262 10.981 60.94 8.04297 65.412 8.04297C69.806 8.04297 72.484 10.903 72.484 15.089C72.484 19.301 69.806 22.239 65.334 22.239ZM65.386 19.119C67.232 19.119 68.272 17.715 68.272 15.141C68.272 12.567 67.232 11.163 65.386 11.163C63.514 11.163 62.474 12.567 62.474 15.141C62.474 17.715 63.514 19.119 65.386 19.119Z" fill="#3CB2F2"/>
<path d="M51.2788 8.06897C54.8148 8.06897 57.0768 10.773 57.0768 15.141C57.0768 19.509 54.8148 22.213 51.2788 22.213C49.3548 22.213 47.9508 21.173 47.4308 20.471H47.3787V26.399H43.2188V8.48497H47.3787V9.81097H47.4308C47.9508 9.10897 49.3548 8.06897 51.2788 8.06897ZM50.1348 19.093C51.8248 19.093 52.8128 17.741 52.8128 15.141C52.8128 12.541 51.8248 11.189 50.1348 11.189C48.4447 11.189 47.4567 12.541 47.4567 15.141C47.4567 17.741 48.4447 19.093 50.1348 19.093Z" fill="#3CB2F2"/>
<path d="M36.176 21.797H29V8.48497H35.864C38.854 8.48497 40.752 10.071 40.752 11.969C40.752 13.633 39.66 14.751 38.1 14.855V14.907C39.66 15.037 41.584 15.765 41.584 17.767C41.584 20.627 39.504 21.797 36.176 21.797ZM33.16 11.605V13.789H35.76C36.462 13.789 36.8 13.425 36.8 12.671C36.8 11.969 36.462 11.605 35.76 11.605H33.16ZM33.16 16.389V18.677H35.942C36.904 18.677 37.372 18.287 37.372 17.481C37.372 16.753 36.982 16.389 36.176 16.389H33.16Z" fill="#3CB2F2"/>
</g>
</g>
<g id="Vector_3">
<path d="M19.9905 14.2887C19.9883 14.273 19.9861 14.2573 19.9836 14.2415C19.6833 12.2225 18.1341 10.6465 16.255 10.4481C13.7422 10.1829 11.6265 12.3146 11.6265 14.9815C11.6265 15.4272 11.6868 15.8577 11.7969 16.2648H18.3934C19.3679 16.265 20.1357 15.3324 19.9905 14.2887Z" fill="#3CB2F2"/>
<path fill-rule="evenodd" clip-rule="evenodd" d="M13 25C20.1797 25 26 19.4036 26 12.5C26 5.59644 20.1797 0 13 0C5.8203 0 0 5.59644 0 12.5C0 19.4036 5.8203 25 13 25ZM19.1157 22.2509C16.8856 22.2509 14.0376 21.9282 13 19.5221H20.6013C22.8097 19.5221 24.6707 17.8871 24.8116 15.7678C24.8306 15.481 24.8352 15.1904 24.8243 14.8967C24.6568 10.3387 20.7404 6.6338 15.9979 6.5446C10.7379 6.44553 6.47973 10.6803 6.82372 15.7864C7.11008 20.0352 10.65 23.5009 15.0636 23.846C17.7139 24.0533 20.1469 23.1561 21.9225 21.5829C21.113 22.004 20.1509 22.2509 19.1157 22.2509ZM19.9836 14.2415C19.9861 14.2573 19.9883 14.273 19.9905 14.2887C20.1357 15.3324 19.3679 16.265 18.3934 16.2648H11.7969C11.6868 15.8577 11.6265 15.4272 11.6265 14.9815C11.6265 12.3146 13.7422 10.1829 16.255 10.4481C18.1341 10.6465 19.6833 12.2225 19.9836 14.2415ZM21.5617 3.09811C23.3448 4.6007 24.699 6.56196 25.4185 8.79342C23.3956 5.98074 20.0193 4.13661 16.1932 4.13661C10.8248 4.13661 6.34009 7.76619 5.24248 12.612C5.55204 6.75187 10.5916 2.09225 16.7628 2.09225C18.4759 2.09225 20.1001 2.45398 21.5617 3.09811Z" fill="#3CB2F2"/>
</g>
</g>
</svg>
