<svg width="144" height="28" viewBox="0 0 144 28" fill="none" xmlns="http://www.w3.org/2000/svg">
<g id="Group 1321314514">
<g id="&#208;&#178;&#209;&#128;&#208;&#190;&#208;&#188;&#208;&#190;&#208;&#185;&#208;&#186;&#208;&#176;">
<g id="Vector">
<path d="M135.71 22.9353C133.058 22.9353 131.368 21.4533 131.368 19.2433C131.368 16.3833 133.396 15.4733 136.828 14.8753C139.012 14.4853 140.416 14.3293 140.416 12.7433C140.416 11.3913 139.532 10.4813 137.4 10.4813C134.826 10.4813 133.916 11.3913 133.786 13.3413H131.992C132.122 11.0013 133.604 8.99933 137.452 8.99933C139.896 8.99933 142.054 10.0393 142.054 13.2113V19.8413C142.054 20.9073 142.21 21.4013 142.808 21.4013C142.912 21.4013 143.016 21.4013 143.172 21.3753V22.5973C142.886 22.6493 142.6 22.7013 142.288 22.7013C141.17 22.7013 140.52 22.2593 140.416 20.5953H140.364C139.454 22.1033 137.868 22.9353 135.71 22.9353ZM135.918 21.4533C138.622 21.4533 140.416 20.0233 140.416 17.6313V15.1613C140.026 15.7073 138.622 16.0193 137.036 16.2793C134.462 16.7473 133.136 17.3973 133.136 19.0873C133.136 20.6213 133.994 21.4533 135.918 21.4533Z" fill="#001B2B"/>
<path d="M130.813 9.33732L125.717 16.0193L130.969 22.5973H128.811L124.209 16.7993H122.233V22.5973H120.543V9.33732H122.233V15.3173H124.287L128.837 9.33732H130.813Z" fill="#001B2B"/>
<path d="M111.868 7.30933C110.022 7.30933 108.722 6.16532 108.644 4.00732H109.944C110.074 5.30732 110.672 6.03533 111.868 6.03533C113.064 6.03533 113.662 5.30732 113.766 4.00732H115.092C114.988 6.11333 113.74 7.30933 111.868 7.30933ZM107.786 22.5973H106.096V9.33732H107.786V20.1533L115.742 9.33732H117.432V22.5973H115.742V11.7813L107.786 22.5973Z" fill="#001B2B"/>
<path d="M97.3412 22.9613C93.3632 22.9613 90.9712 20.1013 90.9712 15.9933C90.9712 11.8593 93.3632 8.99933 97.3412 8.99933C101.319 8.99933 103.711 11.8593 103.711 15.9933C103.711 20.1013 101.319 22.9613 97.3412 22.9613ZM97.3412 21.4793C100.435 21.4793 101.943 19.0353 101.943 15.9933C101.943 12.9253 100.435 10.4813 97.3412 10.4813C94.2472 10.4813 92.7392 12.9253 92.7392 15.9933C92.7392 19.0353 94.2472 21.4793 97.3412 21.4793Z" fill="#001B2B"/>
<path d="M76.3013 22.5973H74.6113V9.33732H76.8213L81.6053 20.1793H81.6573L86.4413 9.33732H88.5733V22.5973H86.8833V12.2233H86.8313L82.2813 22.5713H80.8513L76.3533 12.2233H76.3013V22.5973Z" fill="#001B2B"/>
</g>
<g id="Vector_2">
<path d="M65.334 23.0393C60.94 23.0393 58.262 20.1793 58.262 15.9673C58.262 11.7813 60.94 8.84326 65.412 8.84326C69.806 8.84326 72.484 11.7033 72.484 15.8893C72.484 20.1013 69.806 23.0393 65.334 23.0393ZM65.386 19.9193C67.232 19.9193 68.272 18.5153 68.272 15.9413C68.272 13.3673 67.232 11.9633 65.386 11.9633C63.514 11.9633 62.474 13.3673 62.474 15.9413C62.474 18.5153 63.514 19.9193 65.386 19.9193Z" fill="#3CB2F2"/>
<path d="M51.2788 8.86926C54.8148 8.86926 57.0768 11.5733 57.0768 15.9413C57.0768 20.3093 54.8148 23.0133 51.2788 23.0133C49.3548 23.0133 47.9508 21.9733 47.4308 21.2713H47.3787V27.1993H43.2188V9.28526H47.3787V10.6113H47.4308C47.9508 9.90926 49.3548 8.86926 51.2788 8.86926ZM50.1348 19.8933C51.8248 19.8933 52.8128 18.5413 52.8128 15.9413C52.8128 13.3413 51.8248 11.9893 50.1348 11.9893C48.4447 11.9893 47.4567 13.3413 47.4567 15.9413C47.4567 18.5413 48.4447 19.8933 50.1348 19.8933Z" fill="#3CB2F2"/>
<path d="M36.176 22.5973H29V9.28526H35.864C38.854 9.28526 40.752 10.8713 40.752 12.7693C40.752 14.4333 39.66 15.5513 38.1 15.6553V15.7073C39.66 15.8373 41.584 16.5653 41.584 18.5673C41.584 21.4273 39.504 22.5973 36.176 22.5973ZM33.16 12.4053V14.5893H35.76C36.462 14.5893 36.8 14.2253 36.8 13.4713C36.8 12.7693 36.462 12.4053 35.76 12.4053H33.16ZM33.16 17.1893V19.4773H35.942C36.904 19.4773 37.372 19.0873 37.372 18.2813C37.372 17.5533 36.982 17.1893 36.176 17.1893H33.16Z" fill="#3CB2F2"/>
</g>
</g>
<g id="Vector_3">
<path d="M19.9905 15.089C19.9883 15.0733 19.9861 15.0576 19.9836 15.0418C19.6833 13.0228 18.1341 11.4468 16.255 11.2484C13.7422 10.9832 11.6265 13.1148 11.6265 15.7817C11.6265 16.2275 11.6868 16.658 11.7969 17.0651H18.3934C19.3679 17.0653 20.1357 16.1327 19.9905 15.089Z" fill="#3CB2F2"/>
<path fill-rule="evenodd" clip-rule="evenodd" d="M13 25.8003C20.1797 25.8003 26 20.2039 26 13.3003C26 6.39673 20.1797 0.800293 13 0.800293C5.8203 0.800293 0 6.39673 0 13.3003C0 20.2039 5.8203 25.8003 13 25.8003ZM19.1157 23.0512C16.8856 23.0512 14.0376 22.7285 13 20.3224H20.6013C22.8097 20.3224 24.6707 18.6874 24.8116 16.5681C24.8306 16.2813 24.8352 15.9907 24.8243 15.697C24.6568 11.139 20.7404 7.43409 15.9979 7.34489C10.7379 7.24583 6.47973 11.4806 6.82372 16.5867C7.11008 20.8355 10.65 24.3012 15.0636 24.6463C17.7139 24.8536 20.1469 23.9564 21.9225 22.3832C21.113 22.8043 20.1509 23.0512 19.1157 23.0512ZM19.9836 15.0418C19.9861 15.0576 19.9883 15.0733 19.9905 15.089C20.1357 16.1327 19.3679 17.0653 18.3934 17.0651H11.7969C11.6868 16.658 11.6265 16.2275 11.6265 15.7817C11.6265 13.1148 13.7422 10.9832 16.255 11.2484C18.1341 11.4468 19.6833 13.0228 19.9836 15.0418ZM21.5617 3.89841C23.3448 5.40099 24.699 7.36226 25.4185 9.59371C23.3956 6.78104 20.0193 4.93691 16.1932 4.93691C10.8248 4.93691 6.34009 8.56648 5.24248 13.4123C5.55204 7.55216 10.5916 2.89254 16.7628 2.89254C18.4759 2.89254 20.1001 3.25428 21.5617 3.89841Z" fill="#3CB2F2"/>
</g>
</g>
</svg>
