<svg width="49" height="14" viewBox="0 0 49 14" fill="none" xmlns="http://www.w3.org/2000/svg">
<g id="i3" clip-path="url(#clip0_137_8642)">
<path id="Vector" fill-rule="evenodd" clip-rule="evenodd" d="M43.5002 0H34.2002C34.7002 3.1 37.7002 6 41.0002 6H48.4002C48.5002 5.7 48.5002 5.3 48.5002 5C48.5002 2.2 46.3002 0 43.5002 0Z" fill="url(#paint0_linear_137_8642)"/>
<path id="Vector_2" fill-rule="evenodd" clip-rule="evenodd" d="M35 6.5V14H39.5V10H43.5C45.7 10 47.6 8.5 48.2 6.5H35ZM19 0V14H23C23 14 24 14 24.5 13L28 6H28.5V14H33V0H29C29 0 28 0.1 27.5 1L24 8H23.5V0H19ZM0 14V0H4.5C4.5 0 5.8 0 6.5 2C8.3 7.3 8.5 8 8.5 8C8.5 8 8.9 6.7 10.5 2C11.2 0 12.5 0 12.5 0H17V14H12.5V6.5H12L9.5 14H7.5L5 6.5H4.5V14H0Z" fill="#4DB45F"/>
</g>
<defs>
<linearGradient id="paint0_linear_137_8642" x1="34.1742" y1="3" x2="48.5002" y2="3" gradientUnits="userSpaceOnUse">
<stop stop-color="#00B4E6"/>
<stop offset="1" stop-color="#088CCB"/>
</linearGradient>
<clipPath id="clip0_137_8642">
<rect width="49" height="14" fill="white"/>
</clipPath>
</defs>
</svg>
