<svg width="20" height="20" viewBox="0 0 20 20" fill="none" xmlns="http://www.w3.org/2000/svg">
<path d="M15.3773 11.431C15.3756 11.4184 15.3739 11.4058 15.372 11.3932C15.141 9.77803 13.9493 8.51718 12.5039 8.3585C10.5709 8.14629 8.94347 9.85164 8.94347 11.9852C8.94347 12.3418 8.98986 12.6862 9.07455 13.0118H14.1487C14.8984 13.012 15.489 12.2659 15.3773 11.431Z" fill="#3CB2F2"/>
<path fill-rule="evenodd" clip-rule="evenodd" d="M10 20C15.5228 20 20 15.5228 20 10C20 4.47715 15.5228 0 10 0C4.47715 0 0 4.47715 0 10C0 15.5228 4.47715 20 10 20ZM14.7044 17.8007C12.9889 17.8007 10.7981 17.5425 10 15.6176H15.8471C17.5459 15.6176 18.9775 14.3097 19.0858 12.6143C19.1005 12.3848 19.104 12.1523 19.0956 11.9174C18.9668 8.27098 15.9542 5.30704 12.3061 5.23568C8.25991 5.15643 4.98441 8.54422 5.24901 12.6291C5.46929 16.0282 8.1923 18.8007 11.5874 19.0768C13.6261 19.2426 15.4977 18.5249 16.8635 17.2663C16.2408 17.6032 15.5007 17.8007 14.7044 17.8007ZM15.372 11.3932C15.3739 11.4058 15.3756 11.4184 15.3773 11.431C15.489 12.2659 14.8984 13.012 14.1487 13.0118H9.07455C8.98986 12.6862 8.94347 12.3418 8.94347 11.9852C8.94347 9.85164 10.5709 8.14629 12.5039 8.3585C13.9493 8.51718 15.141 9.77803 15.372 11.3932ZM16.5859 2.47849C17.9576 3.68056 18.9993 5.24957 19.5527 7.03474C17.9966 4.7846 15.3994 3.30929 12.4563 3.30929C8.32676 3.30929 4.877 6.21295 4.03268 10.0896C4.2708 5.4015 8.14742 1.6738 12.8945 1.6738C14.2122 1.6738 15.4616 1.96319 16.5859 2.47849Z" fill="#3CB2F2"/>
<path fill-rule="evenodd" clip-rule="evenodd" d="M14.7044 17.8007C12.9889 17.8007 10.7981 17.5425 10 15.6176H15.8471C17.5459 15.6176 18.9775 14.3097 19.0858 12.6143C19.1005 12.3848 19.104 12.1523 19.0956 11.9174C18.9668 8.27098 15.9542 5.30704 12.3061 5.23568C8.25991 5.15643 4.98441 8.54422 5.24901 12.6291C5.46929 16.0282 8.1923 18.8007 11.5874 19.0768C13.6261 19.2426 15.4977 18.5249 16.8635 17.2663C16.2408 17.6032 15.5007 17.8007 14.7044 17.8007ZM15.372 11.3932L15.3773 11.431C15.489 12.2659 14.8984 13.012 14.1487 13.0118H9.07455C8.98986 12.6862 8.94347 12.3418 8.94347 11.9852C8.94347 9.85164 10.5709 8.14629 12.5039 8.3585C13.9493 8.51718 15.141 9.77803 15.372 11.3932Z" fill="white"/>
<path d="M19.5527 7.03474C18.9993 5.24957 17.9576 3.68056 16.5859 2.47849C15.4616 1.96319 14.2122 1.6738 12.8945 1.6738C8.14742 1.6738 4.2708 5.4015 4.03268 10.0896C4.877 6.21295 8.32676 3.30929 12.4563 3.30929C15.3994 3.30929 17.9966 4.7846 19.5527 7.03474Z" fill="white"/>
</svg>
