<svg width="20" height="20" viewBox="0 0 20 20" fill="none" xmlns="http://www.w3.org/2000/svg">
<g clip-path="url(#clip0_299_17643)">
<path d="M19.0229 7.6427L15.7904 4.4102C15.6332 4.2584 15.4227 4.1744 15.2042 4.1763C14.9858 4.1782 14.7767 4.26584 14.6222 4.42035C14.4677 4.57485 14.3801 4.78386 14.3782 5.00236C14.3763 5.22086 14.4603 5.43136 14.6121 5.58853L17.8446 8.82103C17.9406 8.91897 18.0246 9.02808 18.0946 9.14603C18.0821 9.14603 18.0721 9.13936 18.0596 9.13936L4.98958 9.16603C4.76857 9.16603 4.55661 9.25383 4.40033 9.41011C4.24405 9.56639 4.15625 9.77835 4.15625 9.99936C4.15625 10.2204 4.24405 10.4323 4.40033 10.5886C4.55661 10.7449 4.76857 10.8327 4.98958 10.8327L18.0546 10.806C18.0779 10.806 18.0971 10.7944 18.1196 10.7927C18.0457 10.9337 17.9519 11.0633 17.8412 11.1777L14.6087 14.4102C14.5292 14.4871 14.4657 14.579 14.422 14.6807C14.3783 14.7824 14.3553 14.8917 14.3544 15.0024C14.3534 15.113 14.3745 15.2227 14.4164 15.3252C14.4583 15.4276 14.5202 15.5206 14.5984 15.5989C14.6767 15.6771 14.7697 15.739 14.8721 15.7809C14.9745 15.8228 15.0843 15.8439 15.1949 15.8429C15.3056 15.8419 15.4149 15.819 15.5166 15.7753C15.6183 15.7316 15.7102 15.6681 15.7871 15.5885L19.0196 12.356C19.6445 11.7309 19.9955 10.8832 19.9955 9.99936C19.9955 9.11548 19.6445 8.26779 19.0196 7.6427H19.0229Z" fill="#3CB2F2"/>
<path d="M5.83333 18.3333H4.16667C3.50363 18.3333 2.86774 18.0699 2.3989 17.6011C1.93006 17.1323 1.66667 16.4964 1.66667 15.8333V4.16667C1.66667 3.50363 1.93006 2.86774 2.3989 2.3989C2.86774 1.93006 3.50363 1.66667 4.16667 1.66667H5.83333C6.05435 1.66667 6.26631 1.57887 6.42259 1.42259C6.57887 1.26631 6.66667 1.05435 6.66667 0.833333C6.66667 0.61232 6.57887 0.400358 6.42259 0.244078C6.26631 0.0877974 6.05435 0 5.83333 0L4.16667 0C3.062 0.00132321 2.00296 0.440735 1.22185 1.22185C0.440735 2.00296 0.00132321 3.062 0 4.16667L0 15.8333C0.00132321 16.938 0.440735 17.997 1.22185 18.7782C2.00296 19.5593 3.062 19.9987 4.16667 20H5.83333C6.05435 20 6.26631 19.9122 6.42259 19.7559C6.57887 19.5996 6.66667 19.3877 6.66667 19.1667C6.66667 18.9457 6.57887 18.7337 6.42259 18.5774C6.26631 18.4211 6.05435 18.3333 5.83333 18.3333Z" fill="#3CB2F2"/>
</g>
<defs>
<clipPath id="clip0_299_17643">
<rect width="20" height="20" fill="white"/>
</clipPath>
</defs>
</svg>
