<svg width="70" height="70" viewBox="0 0 70 70" fill="none" xmlns="http://www.w3.org/2000/svg">
<g id="fi_6036375" clip-path="url(#clip0_137_8529)">
<path id="Vector" d="M68.3743 50.7116C68.1261 50.4298 67.947 50.0941 67.8511 49.7311C67.7553 49.3681 67.7454 48.9877 67.8221 48.6202C67.9291 45.9954 67.3597 44.9689 64.9841 43.7293C64.6264 43.6099 64.3013 43.4088 64.0348 43.1421C63.7682 42.8753 63.5673 42.5501 63.4482 42.1923C62.2225 39.8434 61.1964 39.2389 58.5562 39.3543C58.1887 39.431 57.8083 39.421 57.4453 39.3252C57.0823 39.2293 56.7466 39.0502 56.4648 38.8021C54.2297 37.3776 53.0056 37.343 50.7162 38.8021C50.4345 39.0503 50.0988 39.2294 49.7358 39.3252C49.3728 39.4211 48.9924 39.431 48.6249 39.3543C45.9938 39.2394 44.9631 39.8356 43.7334 42.1923C43.6146 42.5501 43.4138 42.8753 43.1472 43.142C42.8805 43.4086 42.5554 43.6094 42.1975 43.7282C39.8174 44.9702 39.2522 46.0005 39.359 48.6202C39.4356 48.9877 39.4256 49.3681 39.3298 49.7311C39.2339 50.0941 39.0549 50.4298 38.8068 50.7116C37.3644 52.9787 37.3637 54.1918 38.8068 56.4602C39.0549 56.7419 39.2341 57.0776 39.3299 57.4406C39.4258 57.8036 39.4357 58.184 39.359 58.5515C39.252 61.1763 39.8214 62.2029 42.197 63.4424C42.5547 63.5618 42.8797 63.7629 43.1463 64.0297C43.4129 64.2964 43.6137 64.6216 43.7329 64.9794C44.959 67.3292 45.9851 67.9328 48.6249 67.8174C48.9924 67.7408 49.3727 67.7509 49.7357 67.8467C50.0987 67.9426 50.4344 68.1216 50.7162 68.3696C52.9514 69.7942 54.1755 69.8287 56.4648 68.3696C56.7466 68.1215 57.0823 67.9425 57.4453 67.8466C57.8083 67.7508 58.1887 67.7408 58.5562 67.8174C61.1866 67.9324 62.2179 67.3361 63.4476 64.9794C63.5665 64.6216 63.7672 64.2964 64.0339 64.0297C64.3005 63.7631 64.6257 63.5624 64.9836 63.4435C67.3637 62.2016 67.9289 61.1712 67.8221 58.5515C67.7454 58.184 67.7554 57.8036 67.8513 57.4406C67.9471 57.0776 68.1262 56.7419 68.3743 56.4602C69.8166 54.193 69.8174 52.98 68.3743 50.7116ZM61.313 50.9177L52.563 59.6677C52.3999 59.8308 52.2042 59.9578 51.9887 60.0401C51.7732 60.1225 51.5427 60.1585 51.3124 60.1459C51.082 60.1332 50.8569 60.072 50.6518 59.9665C50.4466 59.8609 50.2661 59.7133 50.1218 59.5332L45.7468 54.0644C45.6122 53.8962 45.512 53.7031 45.452 53.4961C45.3919 53.2891 45.3733 53.0723 45.397 52.8582C45.4208 52.644 45.4865 52.4366 45.5904 52.2478C45.6943 52.059 45.8344 51.8925 46.0026 51.7578C46.1709 51.6232 46.364 51.523 46.571 51.463C46.778 51.4029 46.9947 51.3843 47.2089 51.408C47.4231 51.4318 47.6305 51.4975 47.8193 51.6014C48.0081 51.7053 48.1746 51.8454 48.3092 52.0137L51.5392 56.0511L58.9931 48.5978C59.3007 48.2902 59.718 48.1173 60.153 48.1173C60.5881 48.1173 61.0054 48.2902 61.313 48.5978C61.6207 48.9055 61.7935 49.3227 61.7935 49.7578C61.7935 50.1929 61.6207 50.6101 61.313 50.9177Z" fill="#3CB2F2"/>
<path id="Vector_2" d="M41.0119 35.5039H28.9807C28.5455 35.5039 28.1282 35.6768 27.8206 35.9844C27.5129 36.2921 27.34 36.7094 27.34 37.1445C27.34 37.5797 27.5129 37.997 27.8206 38.3046C28.1282 38.6123 28.5455 38.7852 28.9807 38.7852H41.0119C41.447 38.7852 41.8643 38.6123 42.172 38.3046C42.4797 37.997 42.6525 37.5797 42.6525 37.1445C42.6525 36.7094 42.4797 36.2921 42.172 35.9844C41.8643 35.6768 41.447 35.5039 41.0119 35.5039Z" fill="#001B2B"/>
<path id="Vector_3" d="M43.7463 28.9414H26.2463C25.8112 28.9414 25.3939 29.1143 25.0862 29.4219C24.7785 29.7296 24.6057 30.1469 24.6057 30.582C24.6057 31.0172 24.7785 31.4345 25.0862 31.7421C25.3939 32.0498 25.8112 32.2227 26.2463 32.2227H43.7463C44.1814 32.2227 44.5987 32.0498 44.9064 31.7421C45.2141 31.4345 45.3869 31.0172 45.3869 30.582C45.3869 30.1469 45.2141 29.7296 44.9064 29.4219C44.5987 29.1143 44.1814 28.9414 43.7463 28.9414Z" fill="#001B2B"/>
<path id="Vector_4" d="M48.1213 15.8164H21.8713C20.8564 15.8176 19.8834 16.2213 19.1657 16.939C18.4481 17.6566 18.0444 18.6296 18.0432 19.6445V41.5195C18.0444 42.5344 18.4481 43.5074 19.1657 44.2251C19.8834 44.9427 20.8564 45.3464 21.8713 45.3477H35.329C35.7641 45.3477 36.1814 45.1748 36.4891 44.8671C36.7968 44.5595 36.9696 44.1422 36.9696 43.707C36.9696 43.2719 36.7968 42.8546 36.4891 42.5469C36.1814 42.2393 35.7641 42.0664 35.329 42.0664H21.8713C21.7263 42.0662 21.5873 42.0085 21.4848 41.906C21.3823 41.8035 21.3246 41.6645 21.3244 41.5195V19.6445C21.3246 19.4995 21.3823 19.3606 21.4848 19.258C21.5873 19.1555 21.7263 19.0978 21.8713 19.0977H28.9807V24.0195C28.9807 24.4546 29.1535 24.8719 29.4612 25.1796C29.7689 25.4873 30.1862 25.6601 30.6213 25.6602H39.3713C39.8064 25.6601 40.2237 25.4873 40.5313 25.1796C40.839 24.8719 41.0119 24.4546 41.0119 24.0195V19.0977H48.1213C48.2663 19.0978 48.4053 19.1555 48.5078 19.258C48.6103 19.3606 48.668 19.4995 48.6682 19.6445V33.4595C48.6682 33.8946 48.841 34.3119 49.1487 34.6196C49.4564 34.9272 49.8737 35.1001 50.3088 35.1001C50.7439 35.1001 51.1612 34.9272 51.4689 34.6196C51.7766 34.3119 51.9494 33.8946 51.9494 33.4595V19.6445C51.9482 18.6296 51.5445 17.6566 50.8268 16.939C50.1092 16.2213 49.1362 15.8176 48.1213 15.8164ZM37.7307 22.3789H32.2619V19.0977H37.7307V22.3789Z" fill="#001B2B"/>
<path id="Vector_5" d="M61.2457 7.10156H8.74678C8.31167 7.10159 7.89438 7.27444 7.58671 7.58212C7.27904 7.88979 7.10618 8.30707 7.10616 8.74219V30.3267C7.09854 38.0593 9.81969 45.5467 14.7904 51.4701C19.761 57.3934 26.6624 61.3729 34.279 62.7076C34.7075 62.7831 35.1485 62.6852 35.5049 62.4357C35.8613 62.1861 36.104 61.8051 36.1796 61.3766C36.2552 60.9481 36.1576 60.5072 35.9081 60.1507C35.6587 59.7941 35.2778 59.5513 34.8494 59.4755C27.9927 58.2745 21.7797 54.6924 17.3049 49.3602C12.8301 44.028 10.3804 37.2877 10.3874 30.3267V10.3828H59.6051V30.3267C59.6049 31.6611 59.5141 32.994 59.3332 34.3161C59.2743 34.7472 59.3891 35.1841 59.6523 35.5307C59.9155 35.8772 60.3056 36.105 60.7367 36.1639C61.1679 36.2228 61.6048 36.1081 61.9513 35.8449C62.2979 35.5817 62.5257 35.1916 62.5846 34.7604C62.7853 33.291 62.8861 31.8097 62.8863 30.3267V8.74219C62.8863 8.30708 62.7134 7.88979 62.4058 7.58212C62.0981 7.27445 61.6808 7.10159 61.2457 7.10156Z" fill="#001B2B"/>
<path id="Vector_6" d="M63.4332 0.539062H6.55926C4.96439 0.540956 3.4354 1.17535 2.30766 2.30309C1.17992 3.43083 0.545524 4.95983 0.543631 6.55469V30.3373C0.51121 39.7141 3.83437 48.7932 9.91242 55.9333C15.9905 63.0735 24.4224 67.8038 33.684 69.269L34.734 69.4389C34.9077 69.4673 35.0848 69.4673 35.2585 69.4389L36.3095 69.269C37.1683 69.1291 38.0703 68.9465 39.0679 68.7083C39.2775 68.6583 39.4752 68.5676 39.6497 68.4413C39.8242 68.3149 39.9721 68.1555 40.085 67.972C40.1978 67.7885 40.2735 67.5846 40.3075 67.3719C40.3416 67.1591 40.3334 66.9418 40.2835 66.7322C40.2335 66.5227 40.1428 66.325 40.0165 66.1505C39.8902 65.976 39.7307 65.8281 39.5472 65.7152C39.3637 65.6023 39.1598 65.5267 38.9471 65.4927C38.7344 65.4586 38.517 65.4668 38.3074 65.5167C37.3878 65.7357 36.5621 65.9034 35.784 66.0305L34.9963 66.1576L34.208 66.0305C25.717 64.6868 17.9867 60.35 12.4144 53.8038C6.84207 47.2576 3.79535 38.934 3.82488 30.3373V6.55469C3.82564 5.82972 4.11397 5.13466 4.6266 4.62203C5.13923 4.1094 5.83429 3.82107 6.55926 3.82031H63.4332C64.1581 3.82107 64.8532 4.1094 65.3658 4.62203C65.8784 5.13466 66.1668 5.82972 66.1675 6.55469V30.3267C66.1646 32.9147 65.8781 35.4947 65.313 38.0203C65.2657 38.2307 65.2604 38.4484 65.2973 38.6609C65.3343 38.8734 65.4127 39.0765 65.5283 39.2586C65.6438 39.4408 65.7941 39.5983 65.9706 39.7223C66.147 39.8463 66.3462 39.9342 66.5567 39.9811C66.7673 40.028 66.9849 40.033 67.1974 39.9957C67.4098 39.9583 67.6128 39.8795 67.7947 39.7636C67.9766 39.6478 68.1339 39.4972 68.2575 39.3205C68.3812 39.1438 68.4688 38.9444 68.5153 38.7338C69.1328 35.974 69.4459 33.1547 69.4488 30.3267V6.55469C69.4469 4.95983 68.8125 3.43083 67.6848 2.3031C66.557 1.17536 65.028 0.540961 63.4332 0.539062Z" fill="#001B2B"/>
</g>
<defs>
<clipPath id="clip0_137_8529">
<rect width="70" height="70" fill="white"/>
</clipPath>
</defs>
</svg>
