<svg width="70" height="70" viewBox="0 0 70 70" fill="none" xmlns="http://www.w3.org/2000/svg">
<g id="fi_6139642" clip-path="url(#clip0_137_8549)">
<path id="Vector" d="M65.5667 44.3555H55.176V42.7148C55.1748 41.6999 54.7711 40.727 54.0534 40.0093C53.3358 39.2917 52.3628 38.888 51.3479 38.8867H42.8735L41.2479 29.9311C41.2097 29.7188 41.1301 29.5161 41.0136 29.3346C40.897 29.153 40.7458 28.9963 40.5686 28.8733C40.3914 28.7503 40.1917 28.6635 39.9809 28.6178C39.7701 28.5721 39.5523 28.5684 39.3401 28.6069C39.1279 28.6455 38.9253 28.7255 38.7441 28.8425C38.5628 28.9594 38.4064 29.1109 38.2838 29.2884C38.1612 29.4659 38.0747 29.6658 38.0295 29.8767C37.9842 30.0876 37.981 30.3053 38.02 30.5175L39.5392 38.8867H37.1292C36.1142 38.8879 35.1413 39.2916 34.4236 40.0093C33.706 40.7269 33.3023 41.6999 33.301 42.7148V56.3867H3.95135L7.80724 19.7114C7.85437 19.2694 8.06368 18.8606 8.39473 18.5639C8.72578 18.2673 9.15504 18.104 9.59954 18.1055H12.9577V20.8398C12.9577 21.275 13.1306 21.6923 13.4382 21.9999C13.7459 22.3076 14.1632 22.4805 14.5983 22.4805C15.0334 22.4805 15.4507 22.3076 15.7584 21.9999C16.0661 21.6923 16.239 21.275 16.239 20.8398V18.1055H27.1765V20.8398C27.1765 21.275 27.3493 21.6923 27.657 21.9999C27.9647 22.3076 28.382 22.4805 28.8171 22.4805C29.2522 22.4805 29.6695 22.3076 29.9772 21.9999C30.2849 21.6923 30.4577 21.275 30.4577 20.8398V18.1055H33.8586C34.2937 18.1055 34.711 17.9326 35.0187 17.6249C35.3263 17.3173 35.4992 16.9 35.4992 16.4648C35.4992 16.0297 35.3263 15.6124 35.0187 15.3047C34.711 14.9971 34.2937 14.8242 33.8586 14.8242H30.4577V8.51594C30.4554 6.41867 29.6212 4.40797 28.1382 2.92498C26.6552 1.44199 24.6445 0.607814 22.5472 0.605469H20.8692C18.7718 0.607776 16.761 1.44191 15.2779 2.92488C13.7947 4.40785 12.9603 6.41856 12.9577 8.51594V14.8242H9.59954C8.34404 14.8213 7.13209 15.2842 6.19823 16.1234C5.26437 16.9625 4.67499 18.1183 4.54415 19.3669L0.497068 57.8559C0.492693 57.8976 0.488525 57.981 0.488525 58.0273V65.6836C0.489753 66.6985 0.893466 67.6715 1.61111 68.3891C2.32876 69.1068 3.30175 69.5105 4.31665 69.5117H65.5667C66.5816 69.5105 67.5545 69.1068 68.2722 68.3891C68.9898 67.6715 69.3935 66.6985 69.3948 65.6836V48.1836C69.3935 47.1687 68.9898 46.1957 68.2722 45.4781C67.5545 44.7604 66.5816 44.3567 65.5667 44.3555ZM16.239 8.51594C16.2405 7.28849 16.7289 6.11176 17.5969 5.24392C18.4649 4.37608 19.6418 3.88799 20.8692 3.88672H22.5472C23.7746 3.88802 24.9513 4.37616 25.8191 5.24403C26.687 6.11189 27.1751 7.28859 27.1765 8.51594V14.8242H16.239V8.51594ZM65.5667 47.6367C65.7116 47.6369 65.8506 47.6946 65.9531 47.7971C66.0557 47.8996 66.1133 48.0386 66.1135 48.1836V56.3867H55.176V47.6367H65.5667ZM36.5823 42.7148C36.5825 42.5699 36.6401 42.4309 36.7427 42.3284C36.8452 42.2258 36.9842 42.1682 37.1292 42.168H51.3479C51.4929 42.1682 51.6319 42.2258 51.7344 42.3284C51.8369 42.4309 51.8946 42.5699 51.8948 42.7148V56.3867H36.5823V42.7148ZM66.1135 65.6836C66.1133 65.8286 66.0557 65.9676 65.9531 66.0701C65.8506 66.1726 65.7116 66.2303 65.5667 66.2305H4.31665C4.17167 66.2303 4.03267 66.1726 3.93016 66.0701C3.82764 65.9676 3.76996 65.8286 3.76978 65.6836V59.668H66.1135V65.6836Z" fill="#001B2B"/>
<path id="Vector_2" d="M53.8088 0.488281C50.7032 0.488279 47.6672 1.40922 45.0849 3.13465C42.5026 4.86007 40.49 7.31249 39.3015 10.1818C38.113 13.0511 37.802 16.2083 38.4079 19.2543C39.0138 22.3004 40.5093 25.0983 42.7054 27.2943C44.9015 29.4904 47.6994 30.9859 50.7454 31.5918C53.7914 32.1977 56.9487 31.8867 59.818 30.6982C62.6873 29.5098 65.1397 27.4971 66.8651 24.9148C68.5905 22.3325 69.5115 19.2966 69.5115 16.1909C69.5068 12.0277 67.8509 8.03642 64.9071 5.09261C61.9633 2.14881 57.972 0.492936 53.8088 0.488281ZM56.0583 24.3118H48.9318C48.5692 24.3118 48.2215 24.1677 47.9651 23.9113C47.7087 23.6549 47.5646 23.3072 47.5646 22.9446C47.5646 22.582 47.7087 22.2342 47.9651 21.9779C48.2215 21.7215 48.5692 21.5774 48.9318 21.5774H56.0583C56.5399 21.5782 57.017 21.4841 57.4622 21.3004C57.9073 21.1166 58.3119 20.8469 58.6528 20.5067C58.9936 20.1664 59.264 19.7623 59.4485 19.3174C59.633 18.8725 59.728 18.3957 59.728 17.914C59.728 17.4324 59.633 16.9555 59.4485 16.5107C59.264 16.0658 58.9936 15.6617 58.6528 15.3214C58.3119 14.9812 57.9073 14.7114 57.4622 14.5277C57.017 14.344 56.5399 14.2498 56.0583 14.2507H50.113L51.428 15.4C51.564 15.5178 51.6754 15.6614 51.7557 15.8224C51.8361 15.9835 51.8839 16.1588 51.8963 16.3383C51.9088 16.5178 51.8857 16.698 51.8283 16.8686C51.771 17.0392 51.6805 17.1968 51.5621 17.3323C51.4437 17.4678 51.2998 17.5787 51.1385 17.6584C50.9771 17.7382 50.8017 17.7853 50.6221 17.7971C50.4425 17.8089 50.2624 17.7852 50.092 17.7272C49.9217 17.6692 49.7644 17.5782 49.6293 17.4593L45.6292 13.9633C45.4824 13.835 45.3646 13.6768 45.284 13.4993C45.2033 13.3217 45.1616 13.129 45.1616 12.9339C45.1616 12.7389 45.2033 12.5462 45.284 12.3686C45.3646 12.1911 45.4824 12.0328 45.6292 11.9045L49.6293 8.40807C49.7645 8.28997 49.9216 8.19964 50.0916 8.14224C50.2617 8.08485 50.4414 8.06151 50.6204 8.07356C50.7995 8.08561 50.9745 8.13282 51.1353 8.21248C51.2961 8.29214 51.4397 8.40271 51.5578 8.53786C51.6759 8.673 51.7662 8.83009 51.8236 9.00015C51.881 9.1702 51.9044 9.3499 51.8923 9.52898C51.8803 9.70806 51.8331 9.88301 51.7534 10.0438C51.6737 10.2047 51.5632 10.3482 51.428 10.4663L50.2272 11.5163H56.0583C56.8992 11.5152 57.732 11.6799 58.5092 12.0009C59.2864 12.322 59.9926 12.793 60.5876 13.3872C61.1826 13.9814 61.6546 14.6871 61.9766 15.4638C62.2987 16.2406 62.4644 17.0732 62.4644 17.9141C62.4644 18.755 62.2987 19.5876 61.9766 20.3643C61.6546 21.1411 61.1826 21.8467 60.5876 22.4409C59.9926 23.0351 59.2864 23.5062 58.5092 23.8272C57.732 24.1483 56.8992 24.3129 56.0583 24.3118Z" fill="#3CB2F2"/>
</g>
<defs>
<clipPath id="clip0_137_8549">
<rect width="70" height="70" fill="white"/>
</clipPath>
</defs>
</svg>
