<svg width="14" height="14" viewBox="0 0 14 14" fill="none" xmlns="http://www.w3.org/2000/svg">
<g id="Vector">
<path d="M10.7641 8.00169C10.7629 7.99288 10.7617 7.98407 10.7604 7.97527C10.5987 6.84462 9.76451 5.96203 8.7527 5.85095C7.39963 5.7024 6.26043 6.89615 6.26043 8.38961C6.26043 8.63925 6.2929 8.88034 6.35219 9.10828H9.90412C10.4289 9.10841 10.8423 8.58614 10.7641 8.00169Z" fill="#3CB2F2"/>
<path fill-rule="evenodd" clip-rule="evenodd" d="M7 14C10.866 14 14 10.866 14 7C14 3.13401 10.866 0 7 0C3.13401 0 0 3.13401 0 7C0 10.866 3.13401 14 7 14ZM10.2931 12.4605C9.09225 12.4605 7.55869 12.2798 7 10.9324H11.093C12.2821 10.9324 13.2842 10.0168 13.3601 8.82999C13.3703 8.66935 13.3728 8.50661 13.3669 8.34216C13.2767 5.78969 11.1679 3.71493 8.61427 3.66497C5.78193 3.6095 3.48909 5.98095 3.67431 8.84037C3.82851 11.2197 5.73461 13.1605 8.11119 13.3538C9.53827 13.4698 10.8484 12.9674 11.8044 12.0864C11.3685 12.3222 10.8505 12.4605 10.2931 12.4605ZM10.7604 7.97527C10.7617 7.98407 10.7629 7.99288 10.7641 8.00169C10.8423 8.58614 10.4289 9.10841 9.90412 9.10828H6.35219C6.2929 8.88034 6.26043 8.63925 6.26043 8.38961C6.26043 6.89615 7.39963 5.7024 8.7527 5.85095C9.76451 5.96203 10.5987 6.84462 10.7604 7.97527ZM11.6101 1.73494C12.5703 2.57639 13.2995 3.6747 13.6869 4.92432C12.5976 3.34922 10.7796 2.3165 8.71944 2.3165C5.82873 2.3165 3.4139 4.34907 2.82287 7.0627C2.98956 3.78105 5.70319 1.17166 9.02612 1.17166C9.94855 1.17166 10.8231 1.37423 11.6101 1.73494Z" fill="#3CB2F2"/>
<path fill-rule="evenodd" clip-rule="evenodd" d="M10.2931 12.4605C9.09225 12.4605 7.55869 12.2798 7 10.9324H11.093C12.2821 10.9324 13.2842 10.0168 13.3601 8.82999C13.3703 8.66935 13.3728 8.50661 13.3669 8.34216C13.2767 5.78969 11.1679 3.71493 8.61427 3.66497C5.78193 3.6095 3.48909 5.98095 3.67431 8.84037C3.82851 11.2197 5.73461 13.1605 8.11119 13.3538C9.53827 13.4698 10.8484 12.9674 11.8044 12.0864C11.3685 12.3222 10.8505 12.4605 10.2931 12.4605ZM10.7604 7.97527L10.7641 8.00169C10.8423 8.58614 10.4289 9.10841 9.90412 9.10828H6.35219C6.2929 8.88034 6.26043 8.63925 6.26043 8.38961C6.26043 6.89615 7.39963 5.7024 8.7527 5.85095C9.76451 5.96203 10.5987 6.84462 10.7604 7.97527Z" fill="white"/>
<path d="M13.6869 4.92432C13.2995 3.6747 12.5703 2.57639 11.6101 1.73494C10.8231 1.37423 9.94855 1.17166 9.02612 1.17166C5.70319 1.17166 2.98956 3.78105 2.82287 7.0627C3.4139 4.34907 5.82873 2.3165 8.71944 2.3165C10.7796 2.3165 12.5976 3.34922 13.6869 4.92432Z" fill="white"/>
</g>
</svg>
