<svg width="94" height="30" viewBox="0 0 94 30" fill="none" xmlns="http://www.w3.org/2000/svg">
<g id="smeg-SC-logo-mid" clip-path="url(#clip0_165_17431)">
<g id="smeg-SC-logo">
<g id="Group">
<path id="Path" fill-rule="evenodd" clip-rule="evenodd" d="M8.46261 19.2479C8.35882 21.585 6.38002 23.3947 4.04297 23.2909C1.8524 23.1938 0.0979353 21.4393 0 19.2479C0.103795 16.9109 2.08259 15.1011 4.41964 15.2049C6.61105 15.3029 8.36551 17.0565 8.46261 19.2479Z" fill="#202F38"/>
<path id="Combined-Shape" fill-rule="evenodd" clip-rule="evenodd" d="M89.7321 7.81375H89.7824V5.96386H93.0971V17.7496C93.0971 19.9008 92.9213 23.475 86.4007 23.475C83.6719 23.475 80.8008 22.3785 80.6501 19.7334H84.4169C84.5675 20.3696 84.8437 20.9973 86.8527 20.9973C88.7118 20.9973 89.6066 20.1603 89.6066 18.143V16.653L89.5647 16.6028C88.8691 17.8735 87.483 18.6076 86.0407 18.4694C82.8683 18.4694 80.3571 16.3936 80.3571 12.0409C80.3571 7.68819 82.952 5.63741 85.8566 5.63741C87.4704 5.51018 89.0006 6.36983 89.7321 7.81375ZM72.8823 6.05594C75.4947 6.05594 79.0857 7.31152 79.0857 13.1709V13.7736H70.0363C70.1283 14.7446 70.3292 16.9376 73.1334 16.9376C74.0918 16.9929 74.9766 16.4295 75.3348 15.5398H78.9341C78.2059 18.1053 75.796 19.823 73.1334 19.6748C69.4169 19.6748 66.5625 17.9254 66.5625 12.6017C66.5625 11.0448 67.1066 6.05594 72.8823 6.05594ZM86.6769 8.43317C85.3878 8.43317 83.9481 9.32045 83.9481 12.225C83.9481 13.8071 84.6429 15.6821 86.702 15.6821C89.0541 15.6821 89.6568 13.7903 89.6568 12.0827C89.6568 10.0738 88.6105 8.43317 86.6769 8.43317ZM72.8237 8.8517C71.1496 8.8517 70.3125 9.8729 70.12 11.5805H75.519C75.3348 9.48786 73.9537 8.8517 72.8237 8.8517Z" fill="#202F38"/>
<path id="Path_2" fill-rule="evenodd" clip-rule="evenodd" d="M65.4576 19.3401H61.9839V11.4969C61.9839 9.58003 61.1468 8.94386 60.0921 8.94386C58.3594 8.92712 57.7567 10.0488 57.7567 11.5806V19.3401H54.2662V11.5555C54.2662 10.4589 54.2662 8.92712 52.182 8.92712C50.5078 8.92712 50.0224 10.0488 50.0224 11.4383V19.3233H46.5486V6.39922H49.8968V8.29933H49.947C50.6259 6.87132 52.0924 5.98739 53.6719 6.05603C55.2054 5.94386 56.6552 6.77087 57.3382 8.14866C58.0673 6.88388 59.4032 6.09119 60.8622 6.05603C63.4403 6.05603 65.4501 7.54598 65.4501 10.3836V19.3401H65.4576Z" fill="#202F38"/>
<path id="Path_3" fill-rule="evenodd" clip-rule="evenodd" d="M42.1624 10.3419C42.0117 9.50481 41.7188 8.66776 39.827 8.66776C37.9353 8.66776 37.6674 9.3374 37.6674 9.89823C37.6674 11.9406 45.9208 10.4591 45.9208 15.2303C45.9208 18.997 42.2043 19.675 40.1451 19.675C37.1401 19.675 33.8923 18.6538 33.7919 15.2051H37.3661C37.3661 16.2933 38.0608 17.0969 40.2456 17.0969C42.0285 17.0969 42.447 16.2598 42.447 15.766C42.447 13.598 34.269 15.2303 34.269 10.3837C34.3192 8.49198 35.5162 6.05615 39.6345 6.05615C42.2126 6.05615 45.2846 6.69231 45.5608 10.3419H42.1624Z" fill="#202F38"/>
<path id="Fill-4" fill-rule="evenodd" clip-rule="evenodd" d="M16.9169 19.2478C16.9169 21.5824 15.0243 23.475 12.6898 23.475C10.3552 23.475 8.46265 21.5824 8.46265 19.2478C8.46265 16.9133 10.3552 15.0207 12.6898 15.0207C15.0009 14.9973 16.8934 16.853 16.9169 19.1633C16.9169 19.1918 16.9169 19.2202 16.9169 19.2478Z" fill="#202F38"/>
<path id="Fill-6" fill-rule="evenodd" clip-rule="evenodd" d="M16.9169 10.7852C16.9169 13.1198 15.0243 15.0123 12.6898 15.0123C10.3552 15.0123 8.46265 13.1198 8.46265 10.7852C8.46265 8.45068 10.3552 6.55811 12.6898 6.55811C15.0226 6.56313 16.9127 8.45236 16.9169 10.7852ZM25.3795 19.2478C25.3845 21.5874 23.4911 23.4867 21.1524 23.4917C18.8137 23.4959 16.9135 21.6033 16.9085 19.2646C16.9035 16.925 18.7969 15.0249 21.1356 15.0207H21.1524C23.4635 14.9973 25.3569 16.853 25.3795 19.1633C25.3795 19.1909 25.3795 19.2202 25.3795 19.2478Z" fill="#202F38"/>
<path id="Fill-8" fill-rule="evenodd" clip-rule="evenodd" d="M25.3793 10.7853C25.3793 13.1215 23.4884 15.0158 21.1522 15.0208C18.8135 15.025 16.9134 13.1332 16.9083 10.7937C16.9042 8.45412 18.7967 6.554 21.1355 6.54981C23.475 6.54563 25.3751 8.43737 25.3793 10.7769V10.7853Z" fill="#202F38"/>
<path id="Fill-10" fill-rule="evenodd" clip-rule="evenodd" d="M33.8423 10.7856C33.9762 13.1209 32.1916 15.1232 29.8562 15.2571C27.5209 15.391 25.5195 13.6064 25.3847 11.2711C25.3788 11.1539 25.3763 11.0367 25.3797 10.9195V10.7856C25.4835 8.44851 27.4623 6.63797 29.7993 6.7426C31.9907 6.8397 33.7444 8.59416 33.8423 10.7856Z" fill="#202F38"/>
</g>
</g>
</g>
<defs>
<clipPath id="clip0_165_17431">
<rect width="93.75" height="30" fill="white"/>
</clipPath>
</defs>
</svg>
