<svg width="24" height="25" viewBox="0 0 24 25" fill="none" xmlns="http://www.w3.org/2000/svg">
<path d="M2.04004 12.5C2.04004 6.977 6.51604 2.5 12.04 2.5C17.562 2.5 22.04 6.977 22.04 12.5C22.04 18.023 17.562 22.5 12.04 22.5C6.51604 22.5 2.04004 18.023 2.04004 12.5Z" fill="#FC3F1D"/>
<path d="M13.3202 8.16606H12.3962C10.7022 8.16606 9.81123 9.02406 9.81123 10.2891C9.81123 11.7191 10.4272 12.3891 11.6922 13.2481L12.7372 13.9521L9.73423 18.4391H7.49023L10.1852 14.4251C8.63523 13.3141 7.76523 12.2351 7.76523 10.4101C7.76523 8.12206 9.36023 6.56006 12.3852 6.56006H15.3882V18.4281H13.3202V8.16606Z" fill="white"/>
</svg>
