<svg width="25" height="25" viewBox="0 0 25 25" fill="none" xmlns="http://www.w3.org/2000/svg">
<g clip-path="url(#clip0_137_12271)">
<path d="M5.91949 15.0034L5.08409 18.1221L2.0307 18.1867C1.11818 16.4942 0.600586 14.5577 0.600586 12.4999C0.600586 10.51 1.08452 8.6335 1.94234 6.9812H1.94299L4.66137 7.47958L5.85218 10.1816C5.60294 10.9082 5.4671 11.6882 5.4671 12.4999C5.4672 13.3808 5.62676 14.2247 5.91949 15.0034Z" fill="#FBBB00"/>
<path d="M24.3908 10.2581C24.5286 10.984 24.6004 11.7336 24.6004 12.4998C24.6004 13.3589 24.5101 14.197 24.338 15.0053C23.7539 17.7561 22.2275 20.1581 20.113 21.8578L20.1124 21.8572L16.6884 21.6825L16.2038 18.6574C17.6069 17.8346 18.7034 16.5469 19.281 15.0053H12.8643V10.2581H19.3746H24.3908Z" fill="#518EF8"/>
<path d="M20.112 21.857L20.1127 21.8577C18.0562 23.5106 15.4439 24.4996 12.6002 24.4996C8.03027 24.4996 4.0571 21.9454 2.03027 18.1865L5.91907 15.0032C6.93246 17.7078 9.54148 19.6331 12.6002 19.6331C13.9149 19.6331 15.1466 19.2777 16.2034 18.6572L20.112 21.857Z" fill="#28B446"/>
<path d="M20.2602 3.26262L16.3727 6.44525C15.2789 5.76153 13.9859 5.36656 12.6006 5.36656C9.47271 5.36656 6.8149 7.38017 5.85227 10.1817L1.94304 6.98131H1.94238C3.93954 3.13077 7.96282 0.5 12.6006 0.5C15.5123 0.5 18.1819 1.53716 20.2602 3.26262Z" fill="#F14336"/>
</g>
<defs>
<clipPath id="clip0_137_12271">
<rect width="24" height="24" fill="white" transform="translate(0.600586 0.5)"/>
</clipPath>
</defs>
</svg>
