<svg width="25" height="25" viewBox="0 0 25 25" fill="none" xmlns="http://www.w3.org/2000/svg">
<g clip-path="url(#clip0_137_12257)">
<path d="M5.09094 13.3727C4.54548 14.5727 5.20003 15.1182 6.83639 16.1C8.14548 16.9727 10.1091 17.1909 11.2 17.4091L6.50912 21.9909C5.09094 23.3 7.27276 25.3727 8.69094 24.1727L12.4 20.4636L16.1091 24.0636C17.5273 25.3727 19.7091 23.3 18.2909 21.8818L13.6 17.4091C14.8 17.3 16.6546 16.9727 17.9637 16.1C19.6 15.1182 20.2546 14.5727 19.7091 13.3727C19.2728 12.7182 18.2909 12.1727 16.9818 13.1545C16.9818 13.1545 15.2364 14.4636 12.4 14.4636C9.56367 14.4636 7.81821 13.1545 7.81821 13.1545C6.50912 12.0636 5.5273 12.7182 5.09094 13.3727Z" fill="#F69143"/>
<path d="M12.4005 12.6091C15.8914 12.6091 18.7278 9.88182 18.7278 6.60909C18.7278 3.22727 15.8914 0.499997 12.4005 0.499997C11.5839 0.485545 10.7724 0.63211 10.0125 0.931322C9.25251 1.23053 8.55894 1.67653 7.97137 2.24384C7.3838 2.81114 6.91375 3.48864 6.58807 4.23764C6.26238 4.98664 6.08744 5.79247 6.07324 6.60909C6.07324 9.88182 8.90961 12.6091 12.4005 12.6091ZM12.4005 3.55454C14.146 3.55454 15.4551 4.97272 15.4551 6.60909C15.4551 8.24545 14.146 9.55454 12.4005 9.55454C11.609 9.55505 10.8481 9.24825 10.2783 8.6988C9.70849 8.14934 9.37424 7.40015 9.34597 6.60909C9.34597 4.86363 10.6551 3.55454 12.4005 3.55454Z" fill="#F69143"/>
</g>
<defs>
<clipPath id="clip0_137_12257">
<rect width="24" height="24" fill="white" transform="translate(0.400391 0.5)"/>
</clipPath>
</defs>
</svg>
