<svg width="25" height="25" viewBox="0 0 25 25" fill="none" xmlns="http://www.w3.org/2000/svg">
<g clip-path="url(#clip0_137_12268)">
<path fill-rule="evenodd" clip-rule="evenodd" d="M12.8008 0.5C6.18353 0.5 0.800781 5.8835 0.800781 12.5C0.800781 19.1165 6.18353 24.5 12.8008 24.5C15.233 24.5 17.5783 23.7673 19.5598 22.4128L17.9878 20.585C16.4412 21.5803 14.6407 22.1089 12.8015 22.1075C7.50353 22.1075 3.19403 17.798 3.19403 12.5C3.19403 7.20275 7.50353 2.89325 12.8015 2.89325C18.0988 2.89325 22.409 7.20275 22.409 12.5007C22.409 13.1982 22.3303 13.892 22.1825 14.567C21.875 15.83 20.9938 16.22 20.3173 16.1675C19.6498 16.1135 18.8578 15.638 18.8525 14.4635V12.5C18.8525 9.16325 16.1375 6.449 12.8015 6.449C9.46478 6.449 6.75053 9.164 6.75053 12.5C6.75053 15.8368 9.46553 18.551 12.8015 18.551C14.492 18.551 16.0228 17.8535 17.1215 16.7315C17.4428 17.2508 17.8826 17.6865 18.4049 18.003C18.9271 18.3194 19.517 18.5074 20.126 18.5518C21.1075 18.6305 22.0835 18.3445 22.8673 17.7485C23.5903 17.1995 24.1168 16.4187 24.4115 15.4752C24.4588 15.3245 24.545 14.975 24.5465 14.9705H24.5458C24.7423 14.1185 24.8008 13.3325 24.8008 12.5C24.8008 5.8835 19.418 0.5 12.8008 0.5ZM9.14228 12.5C9.14347 11.5301 9.5293 10.6002 10.2151 9.91436C10.901 9.22852 11.8309 8.84269 12.8008 8.8415C13.7707 8.84269 14.7006 9.22852 15.3864 9.91436C16.0723 10.6002 16.4581 11.5301 16.4593 12.5C16.4581 13.4699 16.0723 14.3998 15.3864 15.0856C14.7006 15.7715 13.7707 16.1573 12.8008 16.1585C11.8309 16.1573 10.901 15.7715 10.2151 15.0856C9.5293 14.3998 9.14347 13.4699 9.14228 12.5Z" fill="#FF9E00"/>
</g>
<defs>
<clipPath id="clip0_137_12268">
<rect width="24" height="24" fill="white" transform="translate(0.800781 0.5)"/>
</clipPath>
</defs>
</svg>
