<svg width="18" height="18" viewBox="0 0 18 18" fill="none" xmlns="http://www.w3.org/2000/svg">
<g id="Star">
<path id="Star_2" d="M8.30788 2.40797C8.56452 1.7932 9.43548 1.7932 9.69212 2.40797L11.1289 5.84973C11.2314 6.09542 11.4566 6.26832 11.7204 6.30403L15.5376 6.82067C16.1878 6.90867 16.4195 7.73016 15.9112 8.14497L12.9761 10.5401C12.7547 10.7208 12.6552 11.0117 12.7196 11.2902L13.6572 15.3419C13.8123 16.012 13.0587 16.52 12.4957 16.1248L9.43086 13.9738C9.17229 13.7923 8.82771 13.7923 8.56914 13.9738L5.50429 16.1249C4.94126 16.52 4.18767 16.0121 4.34274 15.3419L5.28027 11.2902C5.34472 11.0117 5.24524 10.7208 5.02377 10.5401L2.0888 8.14497C1.58048 7.73015 1.81222 6.90867 2.4624 6.82067L6.27961 6.30403C6.54344 6.26832 6.76857 6.09542 6.87113 5.84973L8.30788 2.40797Z" fill="#FDA348"/>
</g>
</svg>
