<svg width="70" height="70" viewBox="0 0 70 70" fill="none" xmlns="http://www.w3.org/2000/svg">
<g id="fi_4875032" clip-path="url(#clip0_137_8538)">
<g id="Group">
<path id="Vector" d="M48.6656 37.7354V36.6416C48.6656 36.3515 48.5504 36.0733 48.3453 35.8682C48.1402 35.6631 47.862 35.5479 47.5719 35.5479C47.2818 35.5479 47.0036 35.6631 46.7985 35.8682C46.5934 36.0733 46.4781 36.3515 46.4781 36.6416V37.7354C46.4781 38.0254 46.5934 38.3036 46.7985 38.5088C47.0036 38.7139 47.2818 38.8291 47.5719 38.8291C47.862 38.8291 48.1402 38.7139 48.3453 38.5088C48.5504 38.3036 48.6656 38.0254 48.6656 37.7354Z" fill="#3CB2F2"/>
<path id="Vector_2" d="M57.4156 48.6729C57.1257 48.6731 56.8476 48.7885 56.6426 48.9935C56.4375 49.1986 56.3222 49.4766 56.3219 49.7666V50.8604C56.3219 51.1504 56.4371 51.4286 56.6423 51.6338C56.8474 51.8389 57.1256 51.9541 57.4156 51.9541C57.7057 51.9541 57.9839 51.8389 58.189 51.6338C58.3942 51.4286 58.5094 51.1504 58.5094 50.8604V49.7666C58.5091 49.4766 58.3938 49.1986 58.1887 48.9935C57.9837 48.7885 57.7056 48.6731 57.4156 48.6729Z" fill="#3CB2F2"/>
<path id="Vector_3" d="M68.3083 40.7225C68.0336 40.4088 67.8353 40.0358 67.7288 39.6327C67.6222 39.2296 67.6103 38.8073 67.6941 38.3988C67.8079 35.6476 67.2352 34.5675 64.7055 33.2472C64.3087 33.113 63.9482 32.8891 63.652 32.5929C63.3558 32.2967 63.1318 31.9361 62.9976 31.5393C61.7151 29.0788 60.6759 28.4347 57.8482 28.5502C57.439 28.6337 57.016 28.6217 56.6121 28.5151C56.2083 28.4085 55.8344 28.2102 55.5197 27.9355C53.125 26.4102 51.8649 26.4088 49.4678 27.9355C49.1531 28.2099 48.7795 28.408 48.3759 28.5146C47.9722 28.6212 47.5495 28.6334 47.1404 28.5502C44.3707 28.4399 43.3044 29.019 41.991 31.5388C41.8567 31.9358 41.6326 32.2965 41.3362 32.5928C41.0398 32.8891 40.6791 33.1131 40.282 33.2472C37.8218 34.5296 37.1766 35.5711 37.2934 38.3988C37.377 38.8071 37.3652 39.2292 37.2588 39.6321C37.1525 40.0351 36.9545 40.408 36.6803 40.7219C35.1456 43.1272 35.1592 44.3914 36.6792 46.7787C36.9539 47.0924 37.1522 47.4654 37.2588 47.8685C37.3653 48.2716 37.3772 48.6939 37.2934 49.1024C37.1796 51.8535 37.7523 52.9338 40.282 54.2539C40.6788 54.3882 41.0393 54.6121 41.3356 54.9083C41.6318 55.2045 41.8557 55.5651 41.9899 55.9619C43.3002 58.4758 44.3615 59.0609 47.1393 58.951C47.5485 58.8675 47.9716 58.8794 48.3754 58.9861C48.7793 59.0927 49.1531 59.291 49.4678 59.5657C51.8626 61.091 53.1226 61.0924 55.5197 59.5657C55.8345 59.2916 56.2082 59.0936 56.6118 58.987C57.0154 58.8804 57.438 58.8681 57.8471 58.951C60.5975 59.0651 61.678 58.4921 62.9965 55.9624C63.1308 55.5654 63.3549 55.2047 63.6513 54.9084C63.9477 54.6121 64.3085 54.3882 64.7055 54.254C67.1657 52.9716 67.811 51.9301 67.6941 49.1024C67.6105 48.6941 67.6224 48.272 67.7287 47.8691C67.8351 47.4661 68.033 47.0932 68.3072 46.7793C69.8419 44.374 69.8283 43.1098 68.3083 40.7225ZM43.1969 37.735V36.6412C43.1969 35.4809 43.6578 34.3681 44.4783 33.5476C45.2988 32.7272 46.4115 32.2662 47.5719 32.2662C48.7322 32.2662 49.845 32.7272 50.6655 33.5476C51.4859 34.3681 51.9469 35.4809 51.9469 36.6412V37.735C51.9469 38.8953 51.4859 40.0081 50.6655 40.8286C49.845 41.649 48.7322 42.11 47.5719 42.11C46.4115 42.11 45.2988 41.649 44.4783 40.8286C43.6578 40.0081 43.1969 38.8953 43.1969 37.735ZM49.5436 52.2208C49.3278 52.5987 48.9706 52.8753 48.5508 52.9899C48.1309 53.1045 47.6827 53.0476 47.3048 52.8317C46.9269 52.6159 46.6503 52.2587 46.5357 51.8389C46.4211 51.419 46.478 50.9708 46.6939 50.5929L55.4439 35.2804C55.6597 34.9025 56.0169 34.6259 56.4367 34.5113C56.8566 34.3967 57.3048 34.4536 57.6827 34.6695C58.0606 34.8853 58.3372 35.2425 58.4518 35.6623C58.5664 36.0822 58.5095 36.5304 58.2936 36.9083L49.5436 52.2208ZM61.7906 50.86C61.7906 52.0203 61.3297 53.1331 60.5092 53.9536C59.6887 54.774 58.5759 55.235 57.4156 55.235C56.2553 55.235 55.1425 54.774 54.322 53.9536C53.5016 53.1331 53.0406 52.0203 53.0406 50.86V49.7662C53.0406 48.6059 53.5016 47.4931 54.322 46.6726C55.1425 45.8522 56.2553 45.3912 57.4156 45.3912C58.5759 45.3912 59.6887 45.8522 60.5092 46.6726C61.3297 47.4931 61.7906 48.6059 61.7906 49.7662V50.86Z" fill="#3CB2F2"/>
</g>
<path id="Vector_4" d="M5.46857 69.4533H38.2811C39.586 69.4519 40.8371 68.9329 41.7598 68.0102C42.6825 67.0874 43.2015 65.8364 43.2029 64.5315V61.2502C43.2029 60.8151 43.0301 60.3978 42.7224 60.0901C42.4147 59.7824 41.9974 59.6096 41.5623 59.6096C41.1272 59.6096 40.7099 59.7824 40.4022 60.0901C40.0945 60.3978 39.9217 60.8151 39.9217 61.2502V64.5315C39.9212 64.9664 39.7482 65.3835 39.4406 65.691C39.1331 65.9986 38.716 66.1716 38.2811 66.1721H5.46857C5.03359 66.1716 4.61657 65.9986 4.30899 65.691C4.00142 65.3835 3.82842 64.9664 3.82794 64.5315V23.6317C3.82776 23.3616 3.89437 23.0956 4.02185 22.8575C4.14932 22.6193 4.3337 22.4164 4.55857 22.2667L20.2342 11.8164V16.0935C18.8373 16.4895 17.6307 17.3774 16.8371 18.5933C16.0436 19.8092 15.7166 21.2711 15.9165 22.7093C16.1164 24.1474 16.8297 25.4647 17.9248 26.4181C19.0199 27.3715 20.4228 27.8967 21.8748 27.8967C23.3268 27.8967 24.7298 27.3715 25.8249 26.4181C26.92 25.4647 27.6333 24.1474 27.8332 22.7093C28.0331 21.2711 27.7061 19.8092 26.9125 18.5933C26.1189 17.3774 24.9124 16.4895 23.5154 16.0935V11.8164L39.1911 22.2667C39.4159 22.4163 39.6003 22.6193 39.7278 22.8574C39.8553 23.0956 39.9219 23.3616 39.9217 23.6317V26.2507C39.9217 26.6858 40.0945 27.1031 40.4022 27.4108C40.7099 27.7184 41.1272 27.8913 41.5623 27.8913C41.9974 27.8913 42.4147 27.7184 42.7224 27.4108C43.0301 27.1031 43.2029 26.6858 43.2029 26.2507V23.6317C43.2038 22.8213 43.0041 22.0232 42.6217 21.3087C42.2393 20.5942 41.686 19.9854 41.0112 19.5366L23.5986 7.92835C23.7919 6.78406 24.3837 5.745 25.2691 4.99485C26.1546 4.2447 27.2768 3.83179 28.4373 3.8291H30.4881C32.8978 3.83212 35.2641 4.47056 37.3483 5.68001C39.4325 6.88946 41.1609 8.62716 42.3591 10.7178L44.7068 14.8273C49.0402 22.4091 60.7029 19.3347 60.7029 10.58C60.7014 9.17337 61.1709 7.8067 62.0366 6.69801C62.9024 5.58932 64.1145 4.80249 65.4795 4.46302L68.2107 3.77997C68.63 3.67172 68.9895 3.4021 69.2108 3.0299C69.4321 2.65769 69.4972 2.21309 69.3921 1.79303C69.2869 1.37296 69.02 1.01151 68.6494 0.787467C68.2788 0.563426 67.8347 0.494971 67.4139 0.597027L64.6838 1.28007C62.6084 1.79609 60.7655 2.99231 59.4493 4.67791C58.133 6.36351 57.4192 8.44137 57.4217 10.58C57.417 11.742 57.0295 12.8701 56.3192 13.7897C55.6089 14.7094 54.6154 15.3693 53.4923 15.6676C52.3692 15.9658 51.1791 15.8856 50.1062 15.4395C49.0332 14.9934 48.1371 14.2061 47.5566 13.1995L45.2089 9.09004C43.7227 6.49772 41.5794 4.34307 38.9949 2.84334C36.4104 1.34362 33.4762 0.551842 30.4881 0.547852H28.4373C26.4211 0.550579 24.4763 1.29495 22.9735 2.63915C21.4707 3.98334 20.515 5.83341 20.2883 7.83687L2.73847 19.5366C2.06364 19.9854 1.51035 20.5942 1.12793 21.3087C0.745498 22.0232 0.545821 22.8213 0.546695 23.6317V64.5315C0.548131 65.8364 1.06715 67.0874 1.98987 68.0102C2.91259 68.9329 4.16365 69.4519 5.46857 69.4533ZM24.6092 21.8757C24.6092 22.4166 24.4488 22.9452 24.1484 23.3949C23.8479 23.8445 23.4209 24.195 22.9212 24.402C22.4216 24.6089 21.8718 24.6631 21.3414 24.5576C20.811 24.4521 20.3237 24.1917 19.9413 23.8092C19.5589 23.4268 19.2985 22.9396 19.193 22.4092C19.0875 21.8788 19.1416 21.329 19.3486 20.8293C19.5555 20.3297 19.906 19.9027 20.3557 19.6022C20.8053 19.3017 21.334 19.1414 21.8748 19.1414C22.5998 19.1421 23.2948 19.4305 23.8075 19.9431C24.3201 20.4557 24.6084 21.1508 24.6092 21.8757Z" fill="#001B2B"/>
<path id="Vector_5" d="M20.2342 35V56.875C20.2342 57.3101 20.407 57.7274 20.7147 58.0351C21.0224 58.3428 21.4397 58.5156 21.8748 58.5156C22.3099 58.5156 22.7272 58.3428 23.0349 58.0351C23.3426 57.7274 23.5154 57.3101 23.5154 56.875V35C23.5154 34.5649 23.3426 34.1476 23.0349 33.8399C22.7272 33.5322 22.3099 33.3594 21.8748 33.3594C21.4397 33.3594 21.0224 33.5322 20.7147 33.8399C20.407 34.1476 20.2342 34.5649 20.2342 35Z" fill="#001B2B"/>
<path id="Vector_6" d="M28.9842 35V56.875C28.9842 57.3101 29.157 57.7274 29.4647 58.0351C29.7724 58.3428 30.1897 58.5156 30.6248 58.5156C31.0599 58.5156 31.4772 58.3428 31.7849 58.0351C32.0926 57.7274 32.2654 57.3101 32.2654 56.875V35C32.2654 34.5649 32.0926 34.1476 31.7849 33.8399C31.4772 33.5322 31.0599 33.3594 30.6248 33.3594C30.1897 33.3594 29.7724 33.5322 29.4647 33.8399C29.157 34.1476 28.9842 34.5649 28.9842 35Z" fill="#001B2B"/>
<path id="Vector_7" d="M11.4842 35V56.875C11.4842 57.3101 11.657 57.7274 11.9647 58.0351C12.2724 58.3428 12.6897 58.5156 13.1248 58.5156C13.5599 58.5156 13.9772 58.3428 14.2849 58.0351C14.5926 57.7274 14.7654 57.3101 14.7654 56.875V35C14.7654 34.7846 14.723 34.5712 14.6406 34.3722C14.5581 34.1731 14.4373 33.9922 14.2849 33.8399C14.1326 33.6876 13.9517 33.5667 13.7527 33.4843C13.5536 33.4018 13.3403 33.3594 13.1248 33.3594C12.9094 33.3594 12.696 33.4018 12.497 33.4843C12.2979 33.5667 12.1171 33.6876 11.9647 33.8399C11.8124 33.9922 11.6915 34.1731 11.6091 34.3722C11.5266 34.5712 11.4842 34.7846 11.4842 35Z" fill="#001B2B"/>
</g>
<defs>
<clipPath id="clip0_137_8538">
<rect width="70" height="70" fill="white"/>
</clipPath>
</defs>
</svg>
