<svg width="25" height="25" viewBox="0 0 25 25" fill="none" xmlns="http://www.w3.org/2000/svg">
<g id="Group 1321314511">
<path id="Oval" d="M12.5 25C19.4036 25 25 19.4036 25 12.5C25 5.59644 19.4036 0 12.5 0C5.59644 0 0 5.59644 0 12.5C0 19.4036 5.59644 25 12.5 25Z" fill="#3CB2F2"/>
<path id="Path-3" fill-rule="evenodd" clip-rule="evenodd" d="M5.65773 12.368C9.30173 10.7803 11.7316 9.73365 12.9474 9.22796C16.4188 7.78409 17.1402 7.53327 17.6103 7.52499C17.7137 7.52317 17.9449 7.5488 18.0947 7.67032C18.2211 7.77293 18.2559 7.91155 18.2726 8.00884C18.2892 8.10612 18.31 8.32775 18.2935 8.50092C18.1054 10.4775 17.2914 15.274 16.8773 17.4878C16.7021 18.4245 16.3571 18.7386 16.023 18.7693C15.2971 18.8361 14.7459 18.2896 14.0429 17.8287C12.9427 17.1076 12.3212 16.6586 11.2533 15.9549C10.0191 15.1416 10.8192 14.6946 11.5225 13.9641C11.7066 13.7729 14.9049 10.8638 14.9668 10.5999C14.9745 10.5669 14.9817 10.4439 14.9086 10.3789C14.8355 10.3139 14.7277 10.3362 14.6498 10.3538C14.5395 10.3789 12.782 11.5405 9.37726 13.8388C8.87839 14.1814 8.42653 14.3483 8.02168 14.3395C7.57537 14.3299 6.71684 14.0872 6.07861 13.8797C5.29579 13.6253 4.67363 13.4907 4.72781 13.0586C4.75602 12.8335 5.066 12.6033 5.65773 12.368Z" fill="white"/>
</g>
</svg>
