<svg width="25" height="25" viewBox="0 0 25 25" fill="none" xmlns="http://www.w3.org/2000/svg">
<g id="Group 1321314510">
<path id="Oval" d="M12.5 25C19.4036 25 25 19.4036 25 12.5C25 5.59644 19.4036 0 12.5 0C5.59644 0 0 5.59644 0 12.5C0 19.4036 5.59644 25 12.5 25Z" fill="#50D152"/>
<g id="Group">
<g id="Group_2">
<path id="Vector" d="M12.7129 5.93213H12.7097C9.20522 5.93213 6.35538 8.78276 6.35538 12.2881C6.35538 13.6784 6.80347 14.9671 7.56539 16.0134L6.77328 18.3747L9.21634 17.5937C10.2214 18.2595 11.4203 18.644 12.7129 18.644C16.2174 18.644 19.0672 15.7926 19.0672 12.2881C19.0672 8.78356 16.2174 5.93213 12.7129 5.93213ZM16.4113 14.9075C16.2579 15.3405 15.6493 15.6996 15.1639 15.8045C14.8318 15.8752 14.398 15.9316 12.9377 15.3262C11.0699 14.5524 9.86703 12.6543 9.77328 12.5312C9.6835 12.408 9.01851 11.5261 9.01851 10.6141C9.01851 9.70199 9.4817 9.25787 9.66841 9.06719C9.82174 8.91068 10.0752 8.83917 10.3183 8.83917C10.397 8.83917 10.4677 8.84315 10.5312 8.84632C10.7179 8.85427 10.8117 8.86539 10.9348 9.16015C11.0882 9.52959 11.4616 10.4417 11.5061 10.5354C11.5514 10.6292 11.5966 10.7563 11.5331 10.8794C11.4735 11.0065 11.4211 11.063 11.3273 11.171C11.2336 11.2791 11.1446 11.3617 11.0508 11.4777C10.965 11.5786 10.8681 11.6866 10.9761 11.8733C11.0842 12.0561 11.4576 12.6654 12.0074 13.1549C12.7169 13.7865 13.2921 13.9883 13.4979 14.0741C13.6512 14.1376 13.8339 14.1225 13.9459 14.0034C14.0882 13.85 14.2637 13.5958 14.4425 13.3455C14.5696 13.166 14.7301 13.1437 14.8985 13.2073C15.0702 13.2669 15.9783 13.7158 16.165 13.8087C16.3517 13.9025 16.4748 13.947 16.5201 14.0256C16.5646 14.1043 16.5646 14.4737 16.4113 14.9075Z" fill="white"/>
</g>
</g>
</g>
</svg>
